<?xml version="1.0" encoding="UTF-8" standalone="no"?>
<!-- Created with Inkscape (http://www.inkscape.org/) -->

<svg
   xmlns:dc="http://purl.org/dc/elements/1.1/"
   xmlns:cc="http://creativecommons.org/ns#"
   xmlns:rdf="http://www.w3.org/1999/02/22-rdf-syntax-ns#"
   xmlns:svg="http://www.w3.org/2000/svg"
   xmlns="http://www.w3.org/2000/svg"
   xmlns:sodipodi="http://sodipodi.sourceforge.net/DTD/sodipodi-0.dtd"
   xmlns:inkscape="http://www.inkscape.org/namespaces/inkscape"
   width="297mm"
   height="210mm"
   viewBox="0 0 297 210"
   version="1.1"
   id="svg8"
   inkscape:version="0.92.3 (2405546, 2018-03-11)"
   sodipodi:docname="logo baloise group.svg">
  <defs
     id="defs2" />
  <sodipodi:namedview
     id="base"
     pagecolor="#ffffff"
     bordercolor="#666666"
     borderopacity="1.0"
     inkscape:pageopacity="0.0"
     inkscape:pageshadow="2"
     inkscape:zoom="0.35"
     inkscape:cx="1192.1855"
     inkscape:cy="-316.53588"
     inkscape:document-units="mm"
     inkscape:current-layer="layer1"
     showgrid="false"
     inkscape:window-width="3440"
     inkscape:window-height="1377"
     inkscape:window-x="-8"
     inkscape:window-y="-8"
     inkscape:window-maximized="1" />
  <metadata
     id="metadata5">
    <rdf:RDF>
      <cc:Work
         rdf:about="">
        <dc:format>image/svg+xml</dc:format>
        <dc:type
           rdf:resource="http://purl.org/dc/dcmitype/StillImage" />
        <dc:title></dc:title>
      </cc:Work>
    </rdf:RDF>
  </metadata>
  <g
     inkscape:label="Layer 1"
     inkscape:groupmode="layer"
     id="layer1"
     transform="translate(0,-87)">
    <g
       transform="matrix(2.7012123,0,0,-2.7012123,6.4562398,224.21888)"
       inkscape:label="ink_ext_XXXXXX"
       id="g843">
      <g
         transform="scale(0.1)"
         id="g845">
        <path
           inkscape:connector-curvature="0"
           id="path847"
           style="fill:#1c4f9c;fill-opacity:1;fill-rule:nonzero;stroke:none"
           d="m 371.688,48.1914 c -0.161,-8.3125 -0.965,-12.7539 -3.149,-17.2734 -4.598,-9.4453 -13.152,-14.5313 -24.457,-14.5313 -17.031,0 -28.734,11.625 -28.734,28.5742 0,17.1914 11.863,28.9024 29.222,28.9024 11.461,0 19.125,-4.8438 24.215,-15.1758 l -13.32,-5.4883 c -2.422,5.8086 -6.133,8.5547 -11.543,8.5547 -7.988,0 -13.965,-7.1836 -13.965,-16.8711 0,-9.9336 5.977,-16.9531 14.367,-16.9531 6.379,0 10.172,3.1484 11.063,9.3633 h -11.465 v 10.8984 h 27.766" />
        <path
           inkscape:connector-curvature="0"
           id="path849"
           style="fill:#1c4f9c;fill-opacity:1;fill-rule:nonzero;stroke:none"
           d="m 393.652,54.8906 v -5.9765 c 2.989,4.6054 6.461,6.4609 12.028,6.4609 0.886,0 1.211,0 2.504,-0.082 V 42.9453 c -2.098,1.0469 -3.313,1.293 -5.489,1.293 -6.054,0 -9.043,-3.4727 -9.043,-10.2539 V 18.3242 h -12.914 v 36.5664 h 12.914" />
        <path
           inkscape:connector-curvature="0"
           id="path851"
           style="fill:#1c4f9c;fill-opacity:1;fill-rule:nonzero;stroke:none"
           d="m 427.793,36.7266 c 0,-4.5977 3.715,-8.3907 8.398,-8.3907 4.602,0 8.313,3.793 8.313,8.3907 0,4.6836 -3.711,8.3945 -8.313,8.3945 -4.683,0 -8.398,-3.7109 -8.398,-8.3945 z m 30.352,-0.0782 c 0,-11.5429 -9.122,-19.6953 -21.954,-19.6953 -12.914,0 -22.035,8.1524 -22.035,19.6953 0,11.461 9.121,19.6172 22.035,19.6172 12.832,0 21.954,-8.1562 21.954,-19.6172" />
        <path
           inkscape:connector-curvature="0"
           id="path853"
           style="fill:#1c4f9c;fill-opacity:1;fill-rule:nonzero;stroke:none"
           d="m 479.863,34.1445 c 0,-4.4375 2.184,-6.6992 6.621,-6.6992 4.356,0 6.539,2.2617 6.539,6.6992 v 20.7461 h 12.915 V 31.6445 c 0,-9.6875 -6.782,-14.8515 -19.454,-14.8515 -12.754,0 -19.535,5.164 -19.535,14.8515 v 23.2461 h 12.914 V 34.1445" />
        <path
           inkscape:connector-curvature="0"
           id="path855"
           style="fill:#1c4f9c;fill-opacity:1;fill-rule:nonzero;stroke:none"
           d="m 528.629,36.6484 c 0,-4.6015 3.793,-8.3984 8.391,-8.3984 4.601,0 8.316,3.7188 8.316,8.3984 0,4.6016 -3.715,8.3125 -8.316,8.3125 -4.68,0 -8.391,-3.7109 -8.391,-8.3125 z M 516.113,0 v 54.8906 h 12.914 v -4.0351 c 2.828,3.6328 6.379,5.2461 11.305,5.2461 10.41,0 18.481,-8.5586 18.481,-19.5352 0,-10.9766 -7.989,-19.4531 -18.403,-19.4531 -4.683,0 -8.152,1.457 -11.383,4.7617 V 0 h -12.914" />
        <path
           inkscape:connector-curvature="0"
           id="path857"
           style="fill:#1c4f9c;fill-opacity:1;fill-rule:nonzero;stroke:none"
           d="m 354.262,236.484 h 2.988 c 11.309,0 24.336,-0.855 24.336,-15.679 0,-13.739 -11.527,-15.68 -22.633,-15.68 h -4.691 z m 22.535,-128.671 c 29.316,0 57.969,11.023 57.969,44.57 0,22.324 -9.766,37.851 -32.688,40.836 v 0.418 c 13.055,6.601 17.731,18.371 17.731,32.968 0,30.665 -19.11,41.692 -47.618,41.692 H 312.52 V 107.813 Z m -22.535,66.253 h 4.25 c 13.605,0 34.23,1.918 34.23,-17.429 0,-17.649 -20.84,-17.008 -33.168,-17.008 h -5.312 v 34.437" />
        <path
           inkscape:connector-curvature="0"
           id="path859"
           style="fill:#1c4f9c;fill-opacity:1;fill-rule:nonzero;stroke:none"
           d="m 571.781,217.02 h -38.695 v -10.735 c -8.074,9.582 -21.246,14.278 -33.773,14.278 -32.266,0 -54.543,-26.852 -54.543,-58.036 0,-31.195 22.703,-58.254 54.964,-58.254 12.743,0 26.125,4.895 32.926,15.766 h 0.426 v -12.226 h 38.695 z m -62.187,-30.125 c 15.777,0 24.937,-11.231 24.937,-24.582 0,-13.782 -9.16,-24.375 -24.937,-24.375 -15.778,0 -24.942,10.593 -24.942,24.375 0,13.351 9.164,24.582 24.942,24.582" />
        <path
           inkscape:connector-curvature="0"
           id="path861"
           style="fill:#1c4f9c;fill-opacity:1;fill-rule:nonzero;stroke:none"
           d="m 591.293,107.813 h 38.6953 V 284.438 H 591.293 Z" />
        <path
           inkscape:connector-curvature="0"
           id="path863"
           style="fill:#1c4f9c;fill-opacity:1;fill-rule:nonzero;stroke:none"
           d="m 707.781,220.563 c -35.011,0 -65.636,-21.102 -65.636,-58.25 0,-37.161 30.828,-58.04 65.636,-58.04 35.024,0 65.653,21.102 65.653,58.04 0,37.148 -30.629,58.25 -65.653,58.25 z m 0,-33.668 c 15.692,0 24.817,-11.231 24.817,-24.582 0,-13.782 -9.125,-24.375 -24.817,-24.375 -15.691,0 -24.801,10.593 -24.801,24.375 0,13.351 9.11,24.582 24.801,24.582" />
        <path
           inkscape:connector-curvature="0"
           id="path865"
           style="fill:#1c4f9c;fill-opacity:1;fill-rule:nonzero;stroke:none"
           d="m 826.77,258.922 c 0,-11.922 -9.793,-21.707 -21.707,-21.707 -11.915,0 -21.704,9.785 -21.704,21.707 0,11.906 9.789,21.699 21.704,21.699 11.914,0 21.707,-9.793 21.707,-21.699 z M 824.414,107.813 H 785.719 V 217.02 h 38.695 V 107.813" />
        <path
           inkscape:connector-curvature="0"
           id="path867"
           style="fill:#1c4f9c;fill-opacity:1;fill-rule:nonzero;stroke:none"
           d="m 915.727,188.906 c -5.957,3.192 -14.239,5.321 -20.829,5.321 -4.543,0 -12.394,-1.918 -12.394,-7.446 0,-7.457 12.394,-8.511 17.707,-9.57 18.07,-3.625 31.676,-12.137 31.676,-32.352 0,-28.707 -26.149,-40.605 -51.715,-40.605 -15.484,0 -30.774,4.453 -43.942,12.539 l 14.024,27.012 c 7.848,-5.535 21.012,-11.063 30.559,-11.063 4.964,0 12.375,2.336 12.375,8.293 0,8.516 -12.375,8.949 -24.465,12.133 -12.114,3.184 -24.207,9.156 -24.207,28.723 0,26.789 24.207,38.695 48.238,38.695 12.344,0 24.68,-1.918 35.945,-7.023 l -12.972,-24.657" />
        <path
           inkscape:connector-curvature="0"
           id="path869"
           style="fill:#1c4f9c;fill-opacity:1;fill-rule:nonzero;stroke:none"
           d="m 1058.41,160.043 c 0,37.102 -21.91,60.52 -59.777,60.52 -35.52,0 -60.395,-21.926 -60.395,-58.184 0,-37.672 27.004,-58.106 63.162,-58.106 24.89,0 49.35,11.704 55.52,37.465 h -37.23 c -4.26,-7.207 -10.21,-9.965 -18.51,-9.965 -15.95,0 -24.246,8.504 -24.246,24.239 h 81.476 z m -80.832,18.281 c 2.332,11.196 11.699,17.11 22.972,17.11 10.42,0 20,-6.754 21.91,-17.11 h -44.882" />
        <path
           inkscape:connector-curvature="0"
           id="path871"
           style="fill:#1c4f9c;fill-opacity:1;fill-rule:nonzero;stroke:none"
           d="M 168.258,132.484 204.977,95.7188 127.559,18.1602 0,145.719 127.559,273.281 242.078,158.637 h 53.863 v -50.61 h -78.484 l -89.891,89.871 -53.0426,-53.089 53.0276,-52.9496 40.707,40.6246 v 0" />
      </g>
    </g>
  </g>
</svg>
