<?xml version="1.0" encoding="UTF-8" standalone="no"?>
<!-- Created with Inkscape (http://www.inkscape.org/) -->

<svg
   xmlns:dc="http://purl.org/dc/elements/1.1/"
   xmlns:cc="http://creativecommons.org/ns#"
   xmlns:rdf="http://www.w3.org/1999/02/22-rdf-syntax-ns#"
   xmlns:svg="http://www.w3.org/2000/svg"
   xmlns="http://www.w3.org/2000/svg"
   xmlns:sodipodi="http://sodipodi.sourceforge.net/DTD/sodipodi-0.dtd"
   xmlns:inkscape="http://www.inkscape.org/namespaces/inkscape"
   width="297mm"
   height="210mm"
   viewBox="0 0 297 210"
   version="1.1"
   id="svg8"
   sodipodi:docname="pushfetch.svg"
   inkscape:version="0.92.3 (2405546, 2018-03-11)">
  <defs
     id="defs2" />
  <sodipodi:namedview
     id="base"
     pagecolor="#ffffff"
     bordercolor="#666666"
     borderopacity="1.0"
     inkscape:pageopacity="0.0"
     inkscape:pageshadow="2"
     inkscape:zoom="0.7"
     inkscape:cx="586.195"
     inkscape:cy="139.62679"
     inkscape:document-units="mm"
     inkscape:current-layer="layer1"
     showgrid="false"
     inkscape:window-width="1718"
     inkscape:window-height="1368"
     inkscape:window-x="4"
     inkscape:window-y="0"
     inkscape:window-maximized="0" />
  <metadata
     id="metadata5">
    <rdf:RDF>
      <cc:Work
         rdf:about="">
        <dc:format>image/svg+xml</dc:format>
        <dc:type
           rdf:resource="http://purl.org/dc/dcmitype/StillImage" />
        <dc:title></dc:title>
      </cc:Work>
    </rdf:RDF>
  </metadata>
  <g
     inkscape:label="Ebene 1"
     inkscape:groupmode="layer"
     id="layer1"
     transform="translate(0,-87)">
    <rect
       style="opacity:1;vector-effect:none;fill:#000000;fill-opacity:1;stroke:none;stroke-width:1.41834939;stroke-linecap:butt;stroke-linejoin:miter;stroke-miterlimit:4;stroke-dasharray:none;stroke-dashoffset:0;stroke-opacity:0.27096779"
       id="rect1088"
       width="206.2188"
       height="72.578453"
       x="44.820015"
       y="113.77197"
       rx="9.8377237"
       ry="10.000007" />
    <rect
       style="opacity:1;vector-effect:none;fill:#ffffff;fill-opacity:1;stroke:none;stroke-width:1.43000007;stroke-linecap:butt;stroke-linejoin:miter;stroke-miterlimit:4;stroke-dasharray:none;stroke-dashoffset:0;stroke-opacity:0.27096779"
       id="rect1090"
       width="55.057522"
       height="55.057522"
       x="52.919365"
       y="122.74026"
       rx="8"
       ry="8" />
    <path
       inkscape:connector-curvature="0"
       id="path1067"
       d="m 97.247344,150.24286 v -25.38592 h 0.86683 0.86683 v 25.38592 25.38592 h -0.86683 -0.86683 z m -20.80407,21.73244 c -0.60177,-0.30061 -0.88947,-0.62751 -0.94085,-1.06899 -0.0829,-0.7124 1.50825,-5.35972 2.51356,-7.34138 l 0.65458,-1.29032 -1.05173,-0.60011 c -2.86807,-1.63647 -6.16096,-3.38244 -6.37927,-3.38244 -0.14471,0 -0.24535,0.98835 -0.2459,2.41475 -9.3e-4,3.00134 -0.0655,3.1175 -3.92364,7.07704 -3.29342,3.38002 -4.661631,4.37758 -6.004115,4.37758 -0.945534,0 -1.216331,-0.28658 -1.216331,-1.2872 0,-0.81812 2.024208,-3.60489 4.628446,-6.37202 l 2.43005,-2.58205 0.13554,-4.22882 c 0.11076,-3.45552 0.21921,-4.38641 0.59309,-5.09073 0.66689,-1.25625 6.65983,-7.79267 7.97333,-8.69639 2.62921,-1.80894 5.44799,-2.22487 10.91499,-1.61058 1.93522,0.21744 4.38712,0.39598 5.4487,0.39674 3.14168,0.002 4.53062,0.6548 4.53062,2.12857 0,1.08812 -0.3893,1.15261 -6.68601,1.10781 -5.89895,-0.0419 -5.94755,-0.038 -6.50665,0.52706 -0.7699,0.77815 -7.11607,8.5587 -7.11607,8.72446 0,0.0731 1.5023,1.13848 3.33845,2.36738 1.83614,1.22891 3.51197,2.49921 3.72405,2.82288 0.35637,0.54389 0.34043,0.70812 -0.21018,2.16611 -1.18818,3.14624 -3.94214,9.0179 -4.4281,9.44104 -0.62601,0.54508 -1.08481,0.545 -2.17656,-3.9e-4 z m 5.70129,-31.70144 c -1.32228,-0.66434 -1.98628,-1.84403 -1.98628,-3.52888 0,-2.55335 1.63084,-4.08009 4.1587,-3.89326 1.39075,0.10279 2.25848,0.58939 3.12807,1.75411 0.6545,0.87663 0.68182,3.13844 0.0522,4.3257 -0.82716,1.55983 -3.55716,2.24445 -5.35272,1.34233 z"
       style="fill:#000000;stroke-width:0.24766752" />
    <text
       xml:space="preserve"
       style="font-style:normal;font-variant:normal;font-weight:bold;font-stretch:normal;font-size:55.21494675px;line-height:1.25;font-family:sans-serif;-inkscape-font-specification:'sans-serif Bold';letter-spacing:0px;word-spacing:0px;fill:#000000;fill-opacity:1;stroke:none;stroke-width:0.34509337"
       x="149.15714"
       y="136.02402"
       id="text1145"
       transform="scale(0.76670067,1.30429)"><tspan
         sodipodi:role="line"
         x="149.15714"
         y="136.02402"
         id="tspan1143"
         style="stroke-width:0.34509337"><tspan
           x="149.15714"
           y="136.02402"
           style="font-style:normal;font-variant:normal;font-weight:bold;font-stretch:normal;font-size:55.21494675px;font-family:sans-serif;-inkscape-font-specification:'sans-serif Bold';fill:#ffffff;stroke-width:0.34509337"
           id="tspan1141">PUSH</tspan></tspan></text>
    <rect
       style="opacity:1;vector-effect:none;fill:#000000;fill-opacity:1;stroke:none;stroke-width:1.41704893;stroke-linecap:butt;stroke-linejoin:miter;stroke-miterlimit:4;stroke-dasharray:none;stroke-dashoffset:0;stroke-opacity:0.27096779"
       id="rect1088-4"
       width="205.84082"
       height="72.578453"
       x="44.82"
       y="201.16733"
       rx="9.8196917"
       ry="10.000007" />
    <rect
       style="opacity:1;vector-effect:none;fill:#ffffff;fill-opacity:1;stroke:none;stroke-width:1.43000007;stroke-linecap:butt;stroke-linejoin:miter;stroke-miterlimit:4;stroke-dasharray:none;stroke-dashoffset:0;stroke-opacity:0.27096779"
       id="rect1090-0"
       width="55.057526"
       height="55.057526"
       x="52.91935"
       y="210.13562"
       rx="8"
       ry="8" />
    <text
       xml:space="preserve"
       style="font-style:normal;font-weight:normal;font-size:50.49328995px;line-height:1.25;font-family:sans-serif;letter-spacing:0px;word-spacing:0px;fill:#000000;fill-opacity:1;stroke:none;stroke-width:0.31558305"
       x="160.70219"
       y="188.63489"
       id="text1151"
       transform="scale(0.7151738,1.3982615)"><tspan
         sodipodi:role="line"
         x="160.70219"
         y="188.63489"
         id="tspan1149"
         style="stroke-width:0.31558305"><tspan
           x="160.70219"
           y="188.63489"
           style="font-style:normal;font-variant:normal;font-weight:bold;font-stretch:normal;font-size:50.49328995px;font-family:sans-serif;-inkscape-font-specification:'sans-serif Bold';fill:#ffffff;stroke-width:0.31558305"
           id="tspan1147">FETCH</tspan></tspan></text>
    <path
       inkscape:connector-curvature="0"
       id="path1050"
       d="m 97.275024,250.57372 v -13.05047 h -1.48416 c -0.8163,0 -1.62236,-0.13817 -1.79124,-0.30706 -0.16889,-0.1689 -0.30865,-0.77344 -0.31055,-1.34344 -0.005,-1.56086 -0.23197,-2.11877 -0.98047,-2.41297 -0.68912,-0.27085 -11.60137,-1.58619 -11.7797,-1.4199 -0.0534,0.0497 0.46482,1.95716 1.1515,4.23865 l 1.24855,4.14818 4.47809,1.48542 c 2.46296,0.81699 5.01299,1.73226 5.66671,2.03397 1.11828,0.51607 1.75415,1.29892 1.75415,2.15959 0,0.2034 -0.75338,2.67231 -1.6742,5.48646 -1.78972,5.46969 -1.89384,5.63474 -3.55475,5.63474 -1.07799,0 -1.93601,-0.73106 -1.93601,-1.64955 0,-0.34431 0.40749,-2.20213 0.90553,-4.12853 0.49803,-1.92639 0.86746,-3.61673 0.82093,-3.75631 -0.0774,-0.23203 -3.00591,-1.27331 -3.00591,-1.06878 0,0.0489 0.28787,0.51311 0.63972,1.03159 0.72859,1.07364 0.79331,1.72233 0.27162,2.72238 -0.46527,0.8919 -6.27444,8.31986 -7.11792,9.10144 -1.35872,1.25897 -3.21628,1.13942 -3.78926,-0.24388 -0.27713,-0.66907 -0.25033,-0.91674 0.19885,-1.8386 0.5215,-1.07032 3.10155,-4.68788 4.46184,-6.25608 0.40101,-0.46231 0.72911,-1.10105 0.72911,-1.41944 0,-0.62579 -1.12243,-1.80338 -3.18584,-3.34242 -0.69665,-0.5196 -1.52345,-1.31406 -1.83734,-1.76542 -0.74136,-1.06609 -3.42691,-10.08452 -3.6039,-12.10238 -0.15629,-1.78185 0.34915,-3.19403 1.38641,-3.87367 0.54754,-0.35876 1.07293,-0.36864 4.75971,-0.0895 2.27933,0.17257 5.98667,0.5331 8.2385,0.8012 5.63234,0.67057 5.40908,0.68752 5.6181,-0.42662 0.24096,-1.28449 1.1136,-2.06935 2.53831,-2.283 l 1.18362,-0.1775 v -7.51973 -7.51975 h 0.89563 0.89562 v 26.10092 26.10092 h -0.89562 -0.89563 z m -27.76421,-23.7686 c -1.36408,-0.62799 -1.91942,-1.64802 -1.91822,-3.52332 0.002,-2.62493 1.33546,-3.92731 4.02112,-3.92643 2.49842,8e-4 4.16677,1.57853 4.16604,3.93979 -7.8e-4,2.57992 -1.41041,3.99684 -3.96591,3.98642 -0.7037,-0.003 -1.74006,-0.21728 -2.30303,-0.47646 z"
       style="fill:#000000;stroke-width:0.25589138" />
    <flowRoot
       xml:space="preserve"
       id="flowRoot1133"
       style="fill:black;fill-opacity:1;stroke:none;font-family:sans-serif;font-style:normal;font-weight:normal;font-size:40px;line-height:1.25;letter-spacing:0px;word-spacing:0px"><flowRegion
         id="flowRegion1135"><rect
           id="rect1137"
           width="1212.1831"
           height="1040.4572"
           x="58.588848"
           y="-517.47723" /></flowRegion><flowPara
         id="flowPara1139"></flowPara></flowRoot>  </g>
</svg>
