<?xml version="1.0" encoding="UTF-8" standalone="no"?>
<svg
   xmlns:dc="http://purl.org/dc/elements/1.1/"
   xmlns:cc="http://creativecommons.org/ns#"
   xmlns:rdf="http://www.w3.org/1999/02/22-rdf-syntax-ns#"
   xmlns:svg="http://www.w3.org/2000/svg"
   xmlns="http://www.w3.org/2000/svg"
   xmlns:sodipodi="http://sodipodi.sourceforge.net/DTD/sodipodi-0.dtd"
   xmlns:inkscape="http://www.inkscape.org/namespaces/inkscape"
   height="900"
   viewBox="0 0 1600 900"
   width="1600"
   version="1.1"
   id="svg6"
   sodipodi:docname="4ears.svg"
   style="fill:#000000"
   inkscape:version="0.92.2 (5c3e80d, 2017-08-06)">
  <metadata
     id="metadata12">
    <rdf:RDF>
      <cc:Work
         rdf:about="">
        <dc:format>image/svg+xml</dc:format>
        <dc:type
           rdf:resource="http://purl.org/dc/dcmitype/StillImage" />
        <dc:title></dc:title>
      </cc:Work>
    </rdf:RDF>
  </metadata>
  <defs
     id="defs10" />
  <sodipodi:namedview
     pagecolor="#ffffff"
     bordercolor="#666666"
     borderopacity="1"
     objecttolerance="10"
     gridtolerance="10"
     guidetolerance="10"
     inkscape:pageopacity="0"
     inkscape:pageshadow="2"
     inkscape:window-width="1920"
     inkscape:window-height="1028"
     id="namedview8"
     showgrid="false"
     inkscape:zoom="0.61458333"
     inkscape:cx="766.27802"
     inkscape:cy="315.86172"
     inkscape:window-x="-8"
     inkscape:window-y="-8"
     inkscape:window-maximized="1"
     inkscape:current-layer="svg6"
     showguides="false" />
  <rect
     style="opacity:1;fill:#a3cdfb;fill-opacity:1;stroke:none;stroke-width:5;stroke-miterlimit:4;stroke-dasharray:none;stroke-opacity:1"
     id="rect933"
     width="1600"
     height="900"
     x="0"
     y="0" />
  <path
     inkscape:connector-curvature="0"
     id="path931"
     d="M 43.675705,449.22523 V 2.7496076 H 472.12591 900.57612 V 449.22523 895.70085 H 472.12591 43.675705 Z"
     style="fill:#9fcbfb;stroke-width:2.77314043" />
  <path
     inkscape:connector-curvature="0"
     id="path929"
     d="m 398.14524,891.13305 c 3.17801,-5.67881 21.97977,-6.80914 24.03541,-1.44495 2.28676,5.96727 1.54642,7.73363 -1.35784,3.23961 -1.79214,-2.77314 -2.70237,-3.00422 -2.73068,-0.69328 -0.0277,2.19549 -4.15993,3.46642 -11.27282,3.46642 -9.61434,0 -10.8625,-0.65729 -8.67407,-4.5678 z m 29.47546,-5.0287 c -6.96433,-12.93199 -3.48077,-15.43827 3.95089,-2.84253 6.54988,11.10122 6.93207,12.43903 3.55361,12.43903 -1.28504,0 -4.66209,-4.31844 -7.5045,-9.5965 z m 10.55754,3.35694 c -4.32067,-9.00511 -14.58229,-61.34251 -14.58229,-74.37408 0,-7.28543 1.42312,-11.62015 4.15971,-12.67028 5.48805,-2.10598 5.44684,-18.64557 -0.0674,-27.06136 -2.32489,-3.54826 -6.79428,-20.03921 -9.93192,-36.64655 -3.13767,-16.60734 -9.3469,-38.51576 -13.79832,-48.68537 -4.45141,-10.16963 -8.09349,-20.36145 -8.09349,-22.64851 0,-7.57121 -10.83183,-29.57982 -14.46043,-29.38143 -1.96075,0.10704 -5.96957,1.13688 -8.90852,2.2882 -4.78126,1.87304 -4.85422,2.28105 -0.69329,3.87777 9.75328,3.74268 3.96801,6.90839 -13.09271,7.16432 -12.77262,0.19163 -18.157,-0.81272 -19.22092,-3.58525 -2.21698,-5.77737 0.56697,-7.16067 14.54768,-7.2285 l 12.71021,-0.0616 -6.77267,-5.20541 c -3.72497,-2.86296 -11.37639,-6.58468 -17.00315,-8.2705 -14.54496,-4.35777 -18.58218,-9.93597 -12.25293,-16.92969 4.8104,-5.31544 4.67732,-5.57942 -4.81137,-9.54404 -5.83574,-2.43834 -10.44235,-6.62986 -11.4595,-10.42693 -2.93675,-10.96305 -1.93555,-30.91888 2.38309,-47.49927 2.28785,-8.78361 4.1182,-18.71711 4.06746,-22.07447 l -0.0923,-6.10427 -5.45402,6.54678 c -2.99971,3.60067 -5.45402,8.04565 -5.45402,9.8777 0,5.10852 -15.78141,15.62152 -20.64714,13.75436 -2.37112,-0.90989 -4.31112,-2.4641 -4.31112,-3.45383 0,-4.32166 -17.41139,-9.172 -26.68188,-7.43285 -8.3486,1.56621 -10.01911,1.00571 -11.2711,-3.78193 -1.78185,-6.81385 -4.61317,-7.79066 -32.83207,-11.32689 -17.89765,-2.24286 -27.98163,-5.66031 -52.87694,-17.92012 -16.91899,-8.33181 -32.35872,-17.07295 -34.31054,-19.42474 -1.95179,-2.35176 -5.69833,-4.27596 -8.32566,-4.27596 -7.15618,0 -12.50376,-7.9804 -16.59983,-24.77257 l -3.67513,-15.06659 8.01252,-6.41147 c 4.40685,-3.52632 8.98849,-6.41768 10.18142,-6.42525 1.19289,-0.008 6.8085,-2.03776 12.47913,-4.51152 5.6706,-2.47375 17.00035,-4.9318 25.17718,-5.46233 8.17682,-0.53053 16.3532,-2.19805 18.16972,-3.70564 1.81649,-1.50756 5.77066,-2.09563 8.787,-1.30684 9.01828,2.35833 20.23292,-3.50955 22.27764,-11.65643 2.35143,-9.36877 -7.17747,-17.5892 -20.4937,-17.6796 -7.76602,-0.0527 -9.31323,-1.21769 -10.67759,-8.03942 -1.59201,-7.96005 -1.63408,-7.97466 -18.95456,-6.58435 -16.90459,1.35696 -17.40683,1.20282 -19.1865,-5.88793 -1.00512,-4.00478 -3.36362,-7.37686 -5.24109,-7.49355 -1.87747,-0.1167 -5.90943,-0.7 -8.95988,-1.2962 -3.05046,-0.59619 -15.51813,-2.47322 -27.705976,-4.17119 -12.187814,-1.69794 -23.087948,-4.54642 -24.222495,-6.32994 -3.409382,-5.35954 -2.415322,-12.25271 2.011941,-13.95161 2.287841,-0.87793 4.159711,-4.76992 4.159711,-8.64888 0,-6.71804 -0.546309,-6.96529 -11.514551,-5.21142 -19.841848,3.17286 -115.951083,3.21825 -101.973046,-165.49664 L -26.290447,-10.267342 472.12591,2.7496076 H 900.57612 V 415.94754 c 0,227.25887 656.61398,432.29508 -2.11555,413.19794 C 739.49897,824.53705 1645.2148,575.96832 1612.794,759.36574 1750.6666,1172.6421 956.02506,865.8471 811.67598,924.98899 724.6308,959.24227 710.96694,896.37578 733.1598,877.82486 c 6.94522,-5.80552 14.85987,-14.22596 17.58806,-18.7121 2.72819,-4.48614 9.16559,-10.25621 14.30536,-12.82239 6.80448,-3.39732 9.59115,-6.81768 10.25044,-12.58141 2.13249,-18.64335 -23.04372,-25.13228 -55.1464,-14.21345 -11.0257,3.75009 -25.3927,9.9513 -31.92666,13.78043 -6.53397,3.82915 -15.71342,6.9621 -20.39881,6.9621 -8.99748,0 -21.04021,-9.3104 -18.13113,-14.01742 2.75889,-4.46395 -9.70582,-22.0334 -15.63166,-22.0334 -2.97403,0 -6.72362,2.94987 -8.38529,6.59686 -2.16989,4.76242 -4.65959,6.23781 -8.95325,5.30571 -4.49365,-0.97551 -5.00138,-0.62285 -2.07699,1.44269 2.12877,1.5036 3.10386,4.73165 2.16687,7.17343 -1.20498,3.14013 -0.11259,4.43957 3.73212,4.43957 2.98967,0 6.91666,2.37131 8.72666,5.26958 1.81,2.89826 4.81412,4.68505 6.67584,3.97066 5.32201,-2.04225 7.75808,4.50178 8.32835,22.37254 0.36153,11.32847 1.89397,17.52544 4.87249,19.70338 2.71155,1.98274 3.75217,5.44457 2.76795,9.20822 -1.57672,6.02936 -6.47656,8.4941 -6.47656,3.25785 0,-1.52522 -1.32156,-2.77314 -2.93681,-2.77314 -1.61524,0 -2.16554,1.24792 -1.2229,2.77314 1.13061,1.82936 -32.63049,2.77314 -99.20078,2.77314 H 441.17201 Z m 193.28955,-38.29036 c -3.32069,-4.66348 -6.6945,-7.82223 -7.49732,-7.01937 -2.07048,2.07048 7.14544,15.49847 10.63693,15.49847 1.59392,0 0.18109,-3.81559 -3.13961,-8.4791 z m -41.44095,-100.6901 c 0.0222,-1.72864 1.21932,-1.28155 2.65767,0.99353 3.26667,5.167 9.93752,-0.26982 7.64887,-6.23402 -1.88052,-4.90055 -29.76098,-18.86215 -29.76098,-14.9033 0,1.62232 1.98546,8.14849 4.41209,14.50261 3.47284,9.09344 5.53913,11.25821 9.706,10.16856 2.91166,-0.76143 5.313,-2.79874 5.33635,-4.52738 z M 448.55422,570.37567 c 0,-2.00248 3.74374,-7.22761 8.31942,-11.61139 4.57568,-4.38378 8.31939,-8.67297 8.31937,-9.53154 -3e-5,-0.85856 -5.56245,-1.77564 -12.36092,-2.03798 -14.51176,-0.55992 -18.13531,4.98689 -12.12625,18.56233 3.79186,8.56637 7.84838,10.95354 7.84838,4.61858 z m 61.00909,-9.02055 c 0,-5.43857 1.29181,-12.3021 2.8707,-15.25228 2.45062,-4.57901 1.94333,-5.35776 -3.46643,-5.32152 -9.76464,0.0654 -15.4107,4.47236 -11.16693,8.71612 1.89377,1.89378 3.44324,6.72942 3.44324,10.74584 0,4.01645 0.83194,8.13457 1.84877,9.15137 4.16442,4.16442 6.47065,1.29902 6.47065,-8.03953 z M 340.40174,554.4409 c 0,-1.43521 -1.24791,-2.60947 -2.77314,-2.60947 -1.52523,0 -2.77314,1.94552 -2.77314,4.32338 0,2.37786 1.24791,3.55212 2.77314,2.60947 1.52523,-0.94264 2.77314,-2.88817 2.77314,-4.32338 z m 21.49184,-17.28468 c 3.95408,1.4506 4.76811,-3.60495 0.95948,-5.95882 -1.37881,-0.85216 -2.55526,-7.78933 -2.61435,-15.41594 -0.0796,-10.28211 0.92681,-13.86656 3.89351,-13.86656 2.20052,0 4.00092,1.71907 4.00092,3.82017 0,4.9698 5.06925,8.83558 14.55899,11.10254 6.40291,1.52958 7.62614,0.92371 7.62614,-3.77732 0,-3.25342 1.83498,-5.59911 4.38006,-5.59911 3.41665,0 3.98115,1.81613 2.56649,8.25711 -0.99747,4.5414 -0.9767,10.89389 0.046,14.11664 1.75926,5.5429 2.3526,5.32146 10.97995,-4.0974 5.01611,-5.47631 11.55939,-9.95693 14.54063,-9.95693 3.09954,0 6.78127,-2.98678 8.59873,-6.97567 3.02308,-6.63493 2.8271,-6.88751 -4.01224,-5.17093 -8.59282,2.15667 -12.03817,-2.03726 -12.09907,-14.72785 -0.0222,-4.86697 -1.55654,-9.7848 -3.40708,-10.9285 -1.85054,-1.1437 -14.60289,-2.34527 -28.3385,-2.67015 -23.78783,-0.56264 -25.27637,-0.96552 -31.34445,-8.48348 -3.50383,-4.34104 -9.1543,-10.72157 -12.55664,-14.17893 l -6.18604,-6.28612 -2.21014,8.52918 c -1.925,7.42894 -0.82806,10.2074 8.50334,21.5384 13.07765,15.88005 17.94535,27.41011 16.76804,39.7185 -0.74767,7.81673 -1.912,9.23372 -7.13307,8.68095 -5.67515,-0.60083 -6.23957,0.51226 -6.23957,12.30468 v 12.96526 l 7.62614,-7.1057 c 4.19437,-3.90813 9.18602,-6.53344 11.09256,-5.83402 z m 74.63677,-8.71008 c -2.00961,-5.23696 -10.16126,-5.83144 -10.16126,-0.74104 0,1.9828 1.4975,5.10258 3.32777,6.93286 4.22305,4.22304 9.12547,-0.21908 6.83349,-6.19182 z m 111.00554,-0.82692 c -0.7031,-2.69818 -1.32461,-1.16203 -1.38113,3.41365 -0.0566,4.57568 0.51874,6.78327 1.27839,4.90577 0.75962,-1.8775 0.80585,-5.62124 0.10288,-8.31942 z m -25.23172,-36.25704 c 7.64169,-9.83194 10.91372,-22.72497 5.76719,-22.72497 -6.09686,0 -13.07153,9.62016 -14.82973,20.4546 -1.92334,11.85227 1.03849,12.59428 9.06254,2.27037 z M 485.45609,445.7588 c 1.74822,-11.55476 0.57338,-12.54796 -6.87225,-5.80975 -5.83661,5.28202 -6.54814,12.23642 -1.74359,17.04097 4.3982,4.3982 6.7064,1.38932 8.61584,-11.23122 z m -226.3625,-36.72179 c -2.43285,-1.77894 -5.75246,-9.16517 -7.37691,-16.41388 -2.67192,-11.92256 -16.1462,-33.61088 -19.06687,-30.69018 -0.65501,0.65499 0.0696,2.78093 1.61048,4.72432 1.54075,1.94342 5.03899,10.39698 7.77383,18.78573 5.19869,15.94633 18.55422,35.61369 20.40798,30.05285 0.59118,-1.77342 -0.91563,-4.67989 -3.34851,-6.45884 z m 245.61672,5.07394 c -1.90653,-0.7693 -5.02631,-0.7693 -6.93285,0 -1.90653,0.76929 -0.34664,1.39874 3.46643,1.39874 3.81307,0 5.37296,-0.62945 3.46642,-1.39874 z M 336.52697,369.08102 c 4.80363,-11.49669 1.98706,-14.38758 -11.8328,-12.14491 -7.80981,1.26735 -9.2507,0.66716 -9.2507,-3.85333 0,-6.71719 5.13294,-12.01003 11.64719,-12.01003 5.27141,0 6.41924,-4.54914 2.64763,-10.4932 -3.34995,-5.27954 -10.6397,-1.29451 -17.27683,9.44459 -5.05141,8.17336 -5.59384,11.89533 -3.90029,26.76297 1.08191,9.49812 2.49632,18.16254 3.14313,19.25425 2.77005,4.67537 20.98187,-7.76801 24.82267,-16.96034 z M 188.01309,314.92281 c -4.79598,-6.97073 -9.28394,-12.67403 -9.97329,-12.67403 -0.68935,0 -1.25335,4.21182 -1.25335,9.35963 0,7.80242 1.4894,10.08095 8.95209,13.69524 4.92362,2.38459 9.41162,3.87607 9.97329,3.3144 0.56167,-0.56167 -2.90276,-6.72454 -7.69874,-13.69524 z m 135.74981,-4.09499 c 0,-3.93974 -1.42795,-4.91322 -5.60473,-3.82099 -4.4037,1.1516 -4.92519,2.28445 -2.43359,5.28665 4.47481,5.39182 8.03832,4.74205 8.03832,-1.46566 z m 296.34935,-9.51173 c 3.5583,-4.2875 11.87248,-26.79871 9.8977,-26.79871 -0.72903,0 -6.92508,5.1615 -13.769,11.47001 -9.7906,9.02466 -11.77426,12.27636 -9.30447,15.25227 3.9837,4.80006 9.23023,4.83048 13.17577,0.0765 z M 347.15866,279.37037 c 4.21213,-20.63049 6.02712,-45.93913 4.22605,-58.92923 -1.89231,-13.64795 -1.929,-13.69151 -2.33635,-2.77314 -0.22767,6.10091 -2.22175,18.58004 -4.43145,27.7314 -4.50796,18.66966 -5.50171,42.98368 -1.75678,42.98368 1.35213,0 3.28645,-4.05572 4.29853,-9.01271 z m 302.42861,-18.68693 c 0.97154,-1.57198 -0.14171,-2.03689 -2.60947,-1.08988 -4.80424,1.84356 -5.68325,3.83125 -1.69428,3.83125 1.43521,0 3.37192,-1.23362 4.30375,-2.74137 z m -298.97175,-67.1071 c -0.88524,-2.21223 -1.54236,-1.55511 -1.67542,1.67544 -0.12035,2.92335 0.53499,4.56123 1.45651,3.63975 0.92149,-0.9215 1.01999,-3.31333 0.2188,-5.31519 z m 40.42121,668.28538 c -8.14887,-8.14888 -10.39747,-8.89699 -27.28152,-9.07657 -15.81009,-0.16833 -19.13977,-1.10846 -23.65022,-6.67864 -8.56732,-10.5802 -6.7688,-21.64056 5.51677,-33.92613 9.12835,-9.12835 12.55922,-10.7663 22.5511,-10.7663 11.73881,0 30.46483,-8.76254 30.46483,-14.25555 0,-4.80752 5.80216,0.70468 8.72122,8.28536 5.04592,13.10406 12.99022,59.8875 11.49644,67.70174 -2.15162,11.25554 -15.91436,10.62035 -27.81862,-1.28391 z m 18.26199,-78.47799 c -2.56942,-3.92613 -3.87327,-25.73261 -1.67032,-27.93557 1.00757,-1.00756 2.60856,1.26242 3.55778,5.04443 2.12317,8.45941 0.6176,26.7189 -1.88746,22.89114 z m -13.43417,-9.70106 c 0,-1.52523 1.32157,-2.77314 2.93681,-2.77314 1.61524,0 2.16555,1.24791 1.2229,2.77314 -0.94265,1.52523 -2.26421,2.77314 -2.93681,2.77314 -0.6726,0 -1.2229,-1.24791 -1.2229,-2.77314 z M 326.53604,649.05502 c 0,-1.43521 1.23363,-3.37192 2.74138,-4.30375 1.57199,-0.97154 2.03688,0.14171 1.08988,2.60947 -1.84356,4.80425 -3.83126,5.68325 -3.83126,1.69428 z m -13.3009,-25.24806 c -2.14243,-3.43057 -2.32643,-5.42016 -0.50127,-5.42016 1.58602,0 3.62263,1.9257 4.5258,4.27932 2.49584,6.50404 -0.1982,7.26774 -4.02453,1.14084 z"
     style="fill:#86b4f8;stroke-width:2.77314043"
     sodipodi:nodetypes="ccscsccssccsccccscsccscccsccsccccscssscccsccccsscsccccccccccscscccsscccsccscscsscccsccccsssssccccsccccscccsscccsssccscsssscscccsscssccsssccssccccsccscscccscccccccsscsccsccccccccccscscsscsscscsscscscsscsssccccccscccsccccccscsssssssccscssssssccscssc" />
  <path
     inkscape:connector-curvature="0"
     id="path927"
     d="m 438.17824,889.46129 c -4.32067,-9.00511 -14.58229,-61.34251 -14.58229,-74.37408 0,-7.28543 1.42312,-11.62015 4.15971,-12.67028 5.48805,-2.10598 5.44684,-18.64557 -0.0674,-27.06136 -2.32489,-3.54826 -6.79428,-20.03921 -9.93192,-36.64655 -3.13767,-16.60734 -9.3469,-38.51576 -13.79832,-48.68537 -4.45141,-10.16963 -8.09349,-20.36145 -8.09349,-22.64851 0,-2.28704 -2.45149,-9.87735 -5.44772,-16.8673 -4.64704,-10.84109 -6.6071,-12.70905 -13.33568,-12.70905 -4.33838,0 -10.31031,-1.85163 -13.27097,-4.11473 -2.96066,-2.26308 -9.78927,-5.35735 -15.17471,-6.87612 -15.90587,-4.48572 -20.6404,-9.10347 -16.76264,-16.34913 2.96649,-5.54295 2.39542,-6.46607 -6.22955,-10.0698 -5.60719,-2.34283 -10.19193,-6.56749 -11.19633,-10.31697 -2.93675,-10.96306 -1.93555,-30.91888 2.38309,-47.49927 6.22784,-23.91029 5.8873,-25.07124 -8.60986,-29.35175 -11.29418,-3.33476 -15.14086,-3.17991 -33.29304,1.34031 -18.24807,4.5441 -23.43217,4.74332 -46.75922,1.79705 -32.37875,-4.08952 -42.18307,-7.40658 -72.42975,-24.50499 -26.83543,-15.17005 -47.16748,-33.06934 -49.89126,-43.92172 -3.56523,-14.20505 5.08192,-18.33994 58.46041,-27.95459 13.72704,-2.47256 32.93218,-6.36455 42.67805,-8.64892 l 17.71978,-4.15336 25.26389,12.70628 c 30.24263,15.21028 39.58994,16.79297 27.63704,4.67953 -12.42938,-12.5963 -20.19437,-23.97588 -24.29937,-35.61064 -6.2597,-17.74195 -22.96429,-41.3444 -34.1315,-48.22564 -14.32244,-8.82544 -21.15857,-16.48213 -39.52854,-44.2733 -27.85015,-42.1333 -40.1439,-109.09712 -23.42134,-127.57537 9.34094,-10.32162 21.25435,-5.66822 53.63279,20.9491 11.55251,9.49697 30.01314,23.77443 41.02359,31.7277 15.94925,11.52073 20.5972,16.54215 22.86297,24.7 1.56413,5.63173 2.85087,11.91929 2.85935,13.97236 0.008,2.05307 5.58674,13.9535 12.39611,26.4454 10.45734,19.18428 13.95685,23.28254 22.52732,26.38166 8.48714,3.06898 10.53736,3.05254 12.53518,-0.10066 1.31367,-2.07331 2.40759,-4.43001 2.43094,-5.23711 0.0222,-0.80706 4.2205,-5.79872 9.32696,-11.09256 14.43062,-14.95995 18.68725,-42.47585 15.00233,-96.97897 -1.85521,-27.44049 -3.47422,-36.23008 -7.76893,-42.1781 -2.98395,-4.13261 -5.42534,-9.03567 -5.42534,-10.89567 0,-4.25344 -5.39226,-21.55201 -8.7979,-28.22405 -2.01236,-3.94237 -0.49906,-7.16943 6.96621,-14.85529 6.24958,-6.434253 10.14251,-13.605503 11.29364,-20.804146 2.22354,-13.905186 13.28493,-25.851545 20.40718,-22.039833 4.93919,2.643385 16.06608,13.728396 29.56931,29.458042 3.92801,4.575682 6.43038,6.270065 5.56081,3.765296 -1.20171,-3.461509 1.62293,-5.745077 11.7734,-9.518117 7.34494,-2.730196 15.81594,-6.608425 18.82446,-8.618292 3.0085,-2.009864 9.24807,-3.749238 13.8657,-3.865275 13.93373,-0.350142 27.8057,-6.593752 27.82384,-12.523206 0.0111,-3.666932 2.13948,-5.429027 6.93285,-5.740101 3.80417,-0.246865 9.57235,-1.288579 12.81818,-2.31489 7.2159,-2.281621 13.63237,-14.862433 9.62432,-18.870486 -1.52082,-1.520804 -14.37166,-3.047338 -28.55747,-3.3923 -16.14289,-0.392552 -29.53483,-2.264757 -35.79581,-5.00429 -7.45426,-3.261665 -14.9345,-3.963691 -29.35355,-2.754852 -15.51547,1.300761 -20.78039,0.685052 -26.56777,-3.106965 -5.96943,-3.911337 -10.96436,-4.406496 -28.8824,-2.863171 -20.87733,1.798215 -21.90905,1.604115 -28.38766,-5.3406219 L 320.02296,2.7496076 H 610.29955 L 1600,0 l 5.1185,473.13929 -704.54238,34.32189 H 880.3076 c -13.5283,0 -22.05864,1.35396 -25.65155,4.07152 -2.96066,2.23931 -9.75073,4.1296 -15.08902,4.20059 -5.3383,0.071 -12.49502,1.67057 -15.90385,3.55461 -3.40883,1.88405 -12.43706,6.78762 -20.06273,10.89684 l -13.86487,7.47128 -18.65672,-10.90235 c -18.09882,-10.57634 -19.2177,-10.85022 -37.41643,-9.15883 -15.86988,1.47495 -19.02879,1.04232 -20.50649,-2.80849 -2.18712,-5.69958 -12.24594,-6.02182 -12.24594,-0.39232 0,2.28784 -1.78274,4.15971 -3.96162,4.15971 -5.14836,0 -12.67722,-7.5844 -12.67722,-12.77073 0,-2.23035 -4.44715,-6.67905 -9.88253,-9.88599 -6.98268,-4.11989 -9.017,-6.69639 -6.93285,-8.78054 5.23067,-5.23067 3.17366,-7.38671 -7.04738,-7.38671 h -9.99706 l 6.53063,7.43479 c 3.59186,4.08917 11.69711,12.51258 18.01166,18.7187 12.47678,12.26258 23.18323,31.06242 23.18323,40.70829 0,9.59973 13.8593,36.36597 23.29383,44.98694 7.6943,7.03086 7.94194,7.71347 2.35772,6.49919 -9.66758,-2.10218 -7.35836,3.48581 3.2768,7.92949 12.15382,5.07818 14.31357,8.73886 8.76992,14.86451 -3.3177,3.66603 -4.09687,8.53564 -3.07808,19.23724 0.80996,8.50811 0.25097,14.32871 -1.37578,14.32871 -1.50692,0 -2.73986,2.49583 -2.73986,5.54628 0,3.05046 -1.24791,5.54628 -2.77314,5.54628 -1.52523,0 -2.77314,1.91103 -2.77314,4.24673 0,2.33574 -1.8181,4.94443 -4.04022,5.79714 -2.82267,1.08316 -3.55433,3.97982 -2.42788,9.61207 1.81338,9.06692 -3.35675,17.47475 -9.33492,15.1807 -2.25695,-0.86605 -4.78045,1.06938 -6.16294,4.72679 -2.87775,7.61307 -1.46786,10.3531 5.32711,10.3531 8.49857,0 9.24701,5.33089 1.17914,8.39829 -5.79719,2.20409 -9.00419,1.83904 -14.29415,-1.62708 -6.55079,-4.29224 -6.74763,-4.24041 -4.98508,1.31291 2.08402,6.56611 -1.36242,7.43382 -10.37288,2.61155 -7.01746,-3.75561 -54.72124,-5.51461 -54.72124,-2.01774 0,4.51892 -4.8939,2.43576 -6.22365,-2.6492 -0.72831,-2.78512 -8.04934,-8.87455 -16.26899,-13.5321 -14.54235,-8.24025 -24.21412,-16.94009 -40.98344,-36.86496 -4.49196,-5.33724 -9.11756,-8.75373 -10.27911,-7.59217 -2.18377,2.18374 13.9449,59.10666 25.71095,90.74171 3.67857,9.89046 8.53955,19.01867 10.80221,20.28491 2.67431,1.49664 3.87949,5.78286 3.44402,12.24885 -0.51483,7.64441 0.75158,10.89037 5.47152,14.0243 4.69845,3.11964 6.14137,6.78221 6.14137,15.58857 0,8.59105 2.55112,15.36361 10.05743,26.69985 9.23503,13.94701 13.30489,23.17034 16.35337,37.0607 0.63164,2.87804 3.25245,7.55772 5.82404,10.39927 4.55267,5.03065 2.08851,5.16647 -93.73209,5.16647 h -98.40769 z m 10.37598,-319.08562 c 0,-2.00248 3.74374,-7.22761 8.31942,-11.61139 4.57568,-4.38378 8.31939,-8.67297 8.31937,-9.53154 -3e-5,-0.85856 -5.56245,-1.77564 -12.36092,-2.03798 -14.51176,-0.55992 -18.13531,4.98689 -12.12625,18.56233 3.79186,8.56637 7.84838,10.95354 7.84838,4.61858 z m 61.00909,-9.02055 c 0,-5.43857 1.29181,-12.3021 2.8707,-15.25228 2.45062,-4.57901 1.94333,-5.35776 -3.46643,-5.32152 -9.76464,0.0654 -15.4107,4.47236 -11.16693,8.71612 1.89377,1.89378 3.44324,6.72942 3.44324,10.74584 0,4.01645 0.83194,8.13457 1.84877,9.15137 4.16442,4.16442 6.47065,1.29902 6.47065,-8.03953 z M 340.40174,554.4409 c 0,-1.43521 -1.24791,-2.60947 -2.77314,-2.60947 -1.52523,0 -2.77314,1.94552 -2.77314,4.32338 0,2.37786 1.24791,3.55212 2.77314,2.60947 1.52523,-0.94264 2.77314,-2.88817 2.77314,-4.32338 z m 21.49184,-17.28468 c 3.95408,1.4506 4.76811,-3.60495 0.95948,-5.95882 -1.37881,-0.85216 -2.55526,-7.78933 -2.61435,-15.41594 -0.0796,-10.28211 0.92681,-13.86656 3.89351,-13.86656 2.20052,0 4.00092,1.71907 4.00092,3.82017 0,4.9698 5.06925,8.83558 14.55899,11.10254 6.40291,1.52958 7.62614,0.92371 7.62614,-3.77732 0,-3.25342 1.83498,-5.59911 4.38006,-5.59911 3.41665,0 3.98115,1.81613 2.56649,8.25711 -0.99747,4.5414 -0.9767,10.89389 0.046,14.11664 1.75926,5.5429 2.3526,5.32146 10.97995,-4.0974 5.01611,-5.47631 11.55939,-9.95693 14.54063,-9.95693 3.09954,0 6.78127,-2.98678 8.59873,-6.97567 3.02308,-6.63493 2.8271,-6.88751 -4.01224,-5.17093 -8.59282,2.15667 -12.03817,-2.03726 -12.09907,-14.72785 -0.0222,-4.86697 -1.55654,-9.7848 -3.40708,-10.9285 -1.85054,-1.1437 -14.60289,-2.34527 -28.3385,-2.67015 -23.78783,-0.56264 -25.27637,-0.96552 -31.34445,-8.48348 -3.50383,-4.34104 -9.1543,-10.72157 -12.55664,-14.17893 l -6.18604,-6.28612 -2.21014,8.52918 c -1.925,7.42894 -0.82806,10.2074 8.50334,21.5384 13.07765,15.88005 17.94535,27.41011 16.76804,39.7185 -0.74767,7.81673 -1.912,9.23372 -7.13307,8.68095 -5.67515,-0.60083 -6.23957,0.51226 -6.23957,12.30468 v 12.96526 l 7.62614,-7.1057 c 4.19437,-3.90813 9.18602,-6.53344 11.09256,-5.83402 z m 74.63677,-8.71008 c -2.00961,-5.23696 -10.16126,-5.83144 -10.16126,-0.74104 0,1.9828 1.4975,5.10258 3.32777,6.93286 4.22305,4.22304 9.12547,-0.21908 6.83349,-6.19182 z m 111.00554,-0.82692 c -0.7031,-2.69818 -1.32461,-1.16203 -1.38113,3.41365 -0.0566,4.57568 0.51874,6.78327 1.27839,4.90577 0.75962,-1.8775 0.80585,-5.62124 0.10288,-8.31942 z m -25.23172,-36.25704 c 7.64169,-9.83194 10.91372,-22.72497 5.76719,-22.72497 -6.09686,0 -13.07153,9.62016 -14.82973,20.4546 -1.92334,11.85227 1.03849,12.59428 9.06254,2.27037 z m 163.35356,-11.63241 c 0.94265,-1.52522 -0.78194,-2.77314 -3.8324,-2.77314 -3.05045,0 -6.31751,1.24792 -7.26016,2.77314 -0.94265,1.52523 0.78194,2.77314 3.8324,2.77314 3.05045,0 6.31752,-1.24791 7.26016,-2.77314 z m 65.86209,-4.79775 c 2.66915,-0.76747 4.85299,-2.40748 4.85299,-3.64443 0,-1.23696 8.42342,-6.19376 18.7187,-11.01509 32.96449,-15.43738 60.07063,-35.18962 32.45872,-23.65261 -13.57269,5.67104 -67.45032,37.50112 -69.73558,41.19875 -1.13396,1.83482 0.13145,2.07802 3.54427,0.68122 2.91934,-1.19486 7.49175,-2.8004 10.1609,-3.56784 z M 485.45609,445.7588 c 1.74822,-11.55476 0.57338,-12.54796 -6.87225,-5.80975 -5.83661,5.28202 -6.54814,12.23642 -1.74359,17.04097 4.3982,4.3982 6.7064,1.38932 8.61584,-11.23122 z m 19.25422,-31.64785 c -1.90653,-0.7693 -5.02631,-0.7693 -6.93285,0 -1.90653,0.76929 -0.34664,1.39874 3.46643,1.39874 3.81307,0 5.37296,-0.62945 3.46642,-1.39874 z M 336.52697,369.08102 c 4.80363,-11.49669 1.98706,-14.38758 -11.8328,-12.14491 -7.80981,1.26735 -9.2507,0.66716 -9.2507,-3.85333 0,-6.71719 5.13294,-12.01003 11.64719,-12.01003 5.27141,0 6.41924,-4.54914 2.64763,-10.4932 -3.34995,-5.27954 -10.6397,-1.29451 -17.27683,9.44459 -5.05141,8.17336 -5.59384,11.89533 -3.90029,26.76297 1.08191,9.49812 2.49632,18.16254 3.14313,19.25425 2.77005,4.67537 20.98187,-7.76801 24.82267,-16.96034 z m 390.72787,-3.05001 c 0.94264,-1.52522 0.39234,-2.77314 -1.2229,-2.77314 -1.61524,0 -2.93681,1.24792 -2.93681,2.77314 0,1.52523 0.5503,2.77314 1.2229,2.77314 0.67259,0 1.99416,-1.24791 2.93681,-2.77314 z m -100.4827,-77.67184 c 5.62632,-11.17104 11.34384,-17.62964 21.45965,-24.24107 7.5844,-4.95699 14.95796,-9.01271 16.38565,-9.01271 4.1751,0 45.73081,-16.95009 48.7717,-19.89342 3.49643,-3.38425 -11.06131,-0.11814 -20.79856,4.66627 -3.81307,1.87356 -16.86771,6.32615 -29.01032,9.89464 -20.45052,6.01004 -23.46484,7.90614 -40.90382,25.72978 -18.73301,19.14619 -21.96985,24.98656 -15.35993,27.71459 7.61674,3.14354 12.12195,-0.29704 19.45563,-14.85808 z m 115.73497,-62.37175 c 8.51568,-3.27937 8.85575,-3.7483 2.77314,-3.82366 -3.81307,-0.0472 -10.67659,1.62834 -15.25227,3.72351 -11.30335,5.17572 -0.91724,5.25907 12.47913,0.10013 z M 493.69002,188.40484 c -2.55908,-9.78588 -6.31183,-8.77058 -6.31183,1.70765 0,8.42506 0.67692,9.64742 3.87343,6.99455 2.13039,-1.76807 3.22766,-5.68405 2.4384,-8.7022 z m -85.10119,-76.79542 c -3.02938,-3.02938 -5.10669,1.78827 -2.93171,6.7992 2.06233,4.75141 2.21183,4.74707 3.36088,-0.0974 0.66139,-2.78853 0.46827,-5.80432 -0.42917,-6.70176 z m 80.17593,-50.623862 c 0.94264,-1.525227 0.39234,-2.77314 -1.2229,-2.77314 -1.61525,0 -2.93682,1.247913 -2.93682,2.77314 0,1.525227 0.55031,2.773141 1.2229,2.773141 0.6726,0 1.99417,-1.247914 2.93682,-2.773141 z m 67.67965,-8.643527 c 7.76613,-2.707286 8.77841,-4.191191 8.03995,-11.785847 -0.8361,-8.599165 -0.98754,-8.679644 -14.71051,-7.818406 -7.62614,0.478608 -16.04664,1.497717 -18.71227,2.264685 -6.41472,1.845697 -9.66589,14.673524 -4.54149,17.918861 5.33858,3.380963 19.34155,3.109885 29.92432,-0.579293 z m 33.53997,-10.768456 c 0,-1.525228 -2.49582,-2.773141 -5.54628,-2.773141 -3.05045,0 -5.54628,1.247913 -5.54628,2.773141 0,1.525227 2.49583,2.77314 5.54628,2.77314 3.05046,0 5.54628,-1.247913 5.54628,-2.77314 z m 237.7968,532.952075 c -10.58022,-1.21741 -9.84811,-8.68853 1.89888,-19.37807 6.04742,-5.50302 12.37539,-8.63298 17.33213,-8.57286 4.2939,0.0521 13.96199,-1.07634 21.4846,-2.50759 8.35309,-1.58926 17.25922,-1.61333 22.87841,-0.0618 7.66876,2.11743 9.20092,3.85475 9.20092,10.43289 0,4.63861 -1.80842,8.58631 -4.38653,9.57563 -6.85678,2.63121 -20.06367,1.9757 -21.9583,-1.08987 -2.99128,-4.83999 -6.76877,-3.00586 -8.56723,4.15971 -0.95702,3.81307 -3.16463,7.0643 -4.90583,7.22495 -9.46658,0.87342 -26.30889,0.98424 -32.97705,0.21686 z M 301.69094,289.43931 c -9.12499,-7.67816 -16.75201,-20.09089 -16.75201,-27.26335 0,-3.01297 2.73523,-4.29743 9.15136,-4.29743 12.30917,0 16.02609,-4.08988 12.61352,-13.87919 -2.67785,-7.68172 -14.68871,-13.02483 -17.83501,-7.93403 -3.26914,5.28959 -9.06004,1.78716 -16.49622,-9.9772 -4.54379,-7.18846 -11.10729,-13.52288 -15.6544,-15.10801 -10.45147,-3.6434 -11.16065,-15.60055 -1.04002,-17.53523 3.73457,-0.71391 8.04938,-0.0387 9.58847,1.50038 1.88244,1.88242 4.01872,1.7856 6.52664,-0.29579 2.05055,-1.7018 6.34356,-2.41027 9.54002,-1.57437 3.19649,0.83589 8.74715,-0.0819 12.33485,-2.03948 3.58769,-1.9576 8.39493,-3.7282 10.68277,-3.93466 14.48332,-1.307 14.0088,-0.83907 12.21657,-12.0471 -1.0131,-6.33558 -0.36197,-13.2506 1.59139,-16.90048 2.80233,-5.2362 2.40031,-7.1416 -2.6384,-12.50507 -7.68432,-8.17958 -26.29482,-10.91265 -37.24717,-5.46999 -10.50277,5.21925 -30.29507,5.10743 -40.61547,-0.22947 -4.49995,-2.32701 -8.18171,-4.60543 -8.18171,-5.06315 0,-0.45773 10.03608,-0.94064 22.3024,-1.07314 12.44264,-0.13441 24.01118,-1.65906 26.16757,-3.44871 2.79541,-2.31998 5.39881,-2.38701 9.40641,-0.24223 7.38762,3.95374 16.89631,3.5938 25.09802,-0.95008 6.32108,-3.50197 6.99658,-3.16294 11.56945,5.80646 2.67103,5.23906 5.69461,14.48693 6.71912,20.55081 1.02448,6.06389 3.70164,14.71151 5.94925,19.21694 7.65883,15.35252 3.25957,101.29249 -5.90083,115.27303 -5.913,9.02441 -17.96836,8.78431 -29.09657,-0.57948 z M 131.35792,177.98863 c -1.10826,-1.79321 -0.87227,-5.30239 0.52445,-7.79817 3.27017,-5.84352 5.99207,-1.33412 3.43834,5.69636 -1.32404,3.64513 -2.593,4.31817 -3.96279,2.10181 z m 59.30774,-19.87612 c -3.5578,-2.2492 -3.36102,-3.22421 1.38657,-6.8705 3.04302,-2.33712 8.34058,-5.0175 11.77234,-5.95641 3.43176,-0.9389 6.23957,-2.81972 6.23957,-4.1796 0,-1.35988 1.87187,-2.47251 4.15971,-2.47251 7.07883,0 4.88624,10.80455 -2.57248,12.67657 -3.70272,0.92932 -7.40728,3.44892 -8.2324,5.59911 -1.72758,4.50206 -6.78113,4.97888 -12.75331,1.20334 z m -15.14737,-8.19484 c -1.84405,-2.98375 3.5837,-7.11988 6.07457,-4.62902 0.91533,0.91535 0.13477,1.66426 -1.73474,1.66426 -1.86946,0 -2.62775,1.24792 -1.6851,2.77314 0.94265,1.52523 1.08993,2.77314 0.32731,2.77314 -0.76261,0 -2.10451,-1.16168 -2.98204,-2.58152 z M 432.17591,48.820368 c -3.78628,-4.562196 -1.14328,-7.246793 7.13452,-7.246793 7.85101,0 8.32222,3.05582 1.16086,7.528161 -4.17665,2.608363 -5.94694,2.548316 -8.29538,-0.281368 z m -60.85729,-4.146799 c -2.64288,-1.684187 -1.0082,-2.813953 5.54628,-3.833143 5.11151,-0.794816 10.47917,-0.331052 11.92814,1.030585 1.61491,1.517592 0.89778,2.475704 -1.85304,2.475704 -2.46815,0 -6.14949,0.610848 -8.18076,1.357441 -2.0313,0.746591 -5.37956,0.282827 -7.44062,-1.030587 z"
     style="fill:#6ba1f6;stroke-width:2.77314043"
     sodipodi:nodetypes="csccccscscccssscsssccccssccsssccccscccscscsccccscsccscssscsscccccscccccsscssscsscccscccccsssscsccsssccsccscscscssccsccsscccsssccscsssscscccsscssccsssccssccccsccscscccscccccccsscscscsccscscccccscccscscsscsscscssscccsssssccccscccsscccccccssscscsccsssssscccscssscscccssccsssccccssscscsscccscccccccccsccssscsccscsccssccscscc" />
  <path
     inkscape:connector-curvature="0"
     id="path925"
     d="m 438.17824,889.46129 c -4.32067,-9.00511 -14.58229,-61.34251 -14.58229,-74.37408 0,-7.28543 1.42312,-11.62015 4.15971,-12.67028 5.48805,-2.10598 5.44684,-18.64557 -0.0674,-27.06136 -2.32489,-3.54826 -6.79428,-20.03921 -9.93192,-36.64655 -3.13767,-16.60734 -9.3469,-38.51576 -13.79832,-48.68537 -4.45141,-10.16963 -8.09349,-20.36145 -8.09349,-22.64851 0,-2.28704 -2.45149,-9.87735 -5.44772,-16.8673 -4.21562,-9.83461 -6.89054,-12.70905 -11.82692,-12.70905 -3.50855,0 -10.7284,-2.30432 -16.04412,-5.12069 -5.31569,-2.8164 -12.7847,-5.88197 -16.59777,-6.81241 -3.81307,-0.93045 -9.27471,-3.40462 -12.13695,-5.49814 -4.35938,-3.18853 -4.67399,-4.79693 -1.93824,-9.90874 2.96649,-5.54295 2.39542,-6.46607 -6.22955,-10.0698 -5.60719,-2.34283 -10.19193,-6.56749 -11.19633,-10.31697 -2.93675,-10.96306 -1.93555,-30.91888 2.38309,-47.49927 5.6558,-21.71402 5.29102,-24.86012 -3.34764,-28.87203 -10.24759,-4.75912 -25.47338,-4.34326 -45.57225,1.24473 -16.02578,4.45555 -18.54338,4.44337 -46.40822,-0.22435 -30.63408,-5.13158 -57.00776,-16.12725 -86.79223,-36.18529 -15.07271,-10.15056 -30.0249,-27.6671 -30.0249,-35.17427 0,-6.35337 8.73539,-11.8922 24.95826,-15.82523 22.47342,-5.44839 85.29631,-17.13576 91.9453,-17.10517 3.57566,0.0164 17.10845,4.99462 30.07288,11.06266 29.239,13.6854 37.37123,14.64665 25.94484,3.06679 -12.40071,-12.56726 -20.1919,-23.96886 -24.26218,-35.50527 -6.62645,-18.78137 -20.53372,-37.94887 -36.96688,-50.94913 -21.83196,-17.27123 -49.0436,-56.04104 -56.06932,-79.8848 -12.59707,-42.75177 -14.26079,-78.0987 -4.19931,-89.21652 6.64561,-7.34331 17.98404,-5.08118 33.55716,6.69496 82.61496,62.4721 79.5997,59.55622 85.76847,82.94096 1.95828,7.42349 8.52302,21.85041 14.58835,32.05984 8.87014,14.93067 13.08909,19.30796 21.56292,22.37214 8.65698,3.13041 10.7518,3.15941 11.75071,0.16279 0.66858,-2.00576 5.85216,-8.73007 11.51904,-14.94291 5.66689,-6.21283 11.20629,-15.03979 12.30978,-19.61547 7.71019,-31.97046 5.39952,-108.01183 -3.66562,-120.63161 -5.17984,-7.21098 -8.09527,-16.53534 -10.51126,-33.61799 -1.09015,-7.70791 0.2787,-12.73858 5.88089,-21.61301 4.01595,-6.361691 8.81157,-16.143869 10.6569,-21.738175 2.7714,-8.401756 5.04387,-10.520988 13.06113,-12.180346 12.28185,-2.542013 19.18678,1.723307 28.43457,17.564645 9.48427,16.246386 15.93568,43.104086 15.93568,66.341536 0,15.9412 1.45116,22.14184 8.40672,35.9207 8.85475,17.54119 17.9075,25.10082 37.03501,30.92668 9.49349,2.89153 11.963,2.59506 20.72848,-2.48849 5.47304,-3.1741 12.71349,-10.13602 16.08987,-15.47093 l 6.1389,-9.69983 -5.50948,-10.27947 c -4.20829,-7.85177 -5.08646,-13.10013 -3.71845,-22.22287 1.27909,-8.5294 0.44551,-14.77891 -2.91615,-21.86306 -4.53458,-9.5559 -4.49279,-10.26656 1.13918,-19.3793 5.88874,-9.52817 35.27615,-37.848138 39.27474,-37.848138 4.70896,0 18.81887,14.362521 23.21865,23.634338 2.56635,5.4082 4.73724,15.09403 4.82418,21.52407 0.0871,6.43003 1.88,14.15249 3.98459,17.16101 2.39924,3.42975 3.82649,12.97668 3.82649,25.59543 0,11.06897 1.76175,24.83032 3.91503,30.58079 2.15327,5.75047 4.66798,14.82309 5.5883,20.16139 3.03551,17.60776 24.55264,68.94457 32.58165,77.7352 4.42053,4.83985 10.00167,8.22708 12.70953,7.71349 2.65542,-0.50366 8.2794,-7.76848 12.49779,-16.14409 5.62632,-11.17104 11.34384,-17.62964 21.45965,-24.24107 7.5844,-4.95699 15.0467,-9.01271 16.58285,-9.01271 1.53615,0 14.96572,-5.10891 29.84346,-11.35313 37.32869,-15.66692 64.1599,-22.86755 72.03748,-19.33253 13.41809,6.02128 11.8663,27.35464 -5.05965,69.55786 -12.06907,30.09312 -19.26246,42.9261 -35.33672,63.04072 -5.18017,6.48221 -8.95619,11.92428 -8.39113,12.09344 0.56503,0.16916 8.51482,0.72457 17.66618,1.23419 24.3921,1.35831 64.77887,9.53303 78.538,15.89691 14.34632,6.63546 21.19431,15.88461 18.80608,25.40008 -2.67411,10.65449 -10.98344,16.04088 -84.36362,54.68736 -19.99429,10.53023 -20.73419,10.68766 -41.9214,8.92072 -23.26587,-1.94031 -58.41299,0.72096 -58.41299,4.42291 0,1.25171 8.28551,10.7678 18.41222,21.14686 21.32994,21.86145 28.7063,32.89011 28.7208,42.94158 0.006,3.95076 3.68074,14.55803 8.16676,23.5717 4.486,9.01365 10.2513,25.65427 12.8118,36.97911 3.95042,17.47253 4.13872,22.93182 1.24339,36.05083 -7.72788,35.01572 -29.47144,66.77229 -51.43662,75.12343 -10.584,4.02402 -36.99503,3.25151 -50.57646,-1.47939 -21.40836,-7.45728 -38.18182,-20.19384 -54.12075,-41.09539 -18.37219,-24.09246 -16.77059,-6.26763 5.18741,57.73194 8.36252,24.37371 16.41458,45.52584 17.89347,47.00473 1.47889,1.47888 2.68889,5.98965 2.68889,10.02387 0,4.03426 2.33246,9.44585 5.18322,12.02576 2.85077,2.5799 5.9444,10.24417 6.87473,17.03168 0.93033,6.78751 5.14945,17.5359 9.37577,23.88531 11.11278,16.69514 10.95399,16.37223 15.49567,31.51322 2.28753,7.62614 5.03103,16.04955 6.09669,18.7187 1.82276,4.56545 -3.72078,4.85299 -93.56387,4.85299 h -95.50144 z m 10.37598,-319.08562 c 0,-2.00248 3.74374,-7.22761 8.31942,-11.61139 4.57568,-4.38378 8.31939,-8.67297 8.31937,-9.53154 -3e-5,-0.85856 -5.56245,-1.77564 -12.36092,-2.03798 -14.51176,-0.55992 -18.13531,4.98689 -12.12625,18.56233 3.79186,8.56637 7.84838,10.95354 7.84838,4.61858 z m 61.00909,-9.02055 c 0,-5.43857 1.29181,-12.3021 2.8707,-15.25228 2.45062,-4.57901 1.94333,-5.35776 -3.46643,-5.32152 -9.76464,0.0654 -15.4107,4.47236 -11.16693,8.71612 1.89377,1.89378 3.44324,6.72942 3.44324,10.74584 0,4.01645 0.83194,8.13457 1.84877,9.15137 4.16442,4.16442 6.47065,1.29902 6.47065,-8.03953 z M 340.40174,554.4409 c 0,-1.43521 -1.24791,-2.60947 -2.77314,-2.60947 -1.52523,0 -2.77314,1.94552 -2.77314,4.32338 0,2.37786 1.24791,3.55212 2.77314,2.60947 1.52523,-0.94264 2.77314,-2.88817 2.77314,-4.32338 z m 21.49184,-17.28468 c 3.95408,1.4506 4.76811,-3.60495 0.95948,-5.95882 -1.37881,-0.85216 -2.55526,-7.78933 -2.61435,-15.41594 -0.0796,-10.28211 0.92681,-13.86656 3.89351,-13.86656 2.20052,0 4.00092,1.71907 4.00092,3.82017 0,4.9698 5.06925,8.83558 14.55899,11.10254 6.40291,1.52958 7.62614,0.92371 7.62614,-3.77732 0,-3.25342 1.83498,-5.59911 4.38006,-5.59911 3.41665,0 3.98115,1.81613 2.56649,8.25711 -0.99747,4.5414 -0.9767,10.89389 0.046,14.11664 1.75926,5.5429 2.3526,5.32146 10.97995,-4.0974 5.01611,-5.47631 11.55939,-9.95693 14.54063,-9.95693 3.09954,0 6.78127,-2.98678 8.59873,-6.97567 3.02308,-6.63493 2.8271,-6.88751 -4.01224,-5.17093 -8.59282,2.15667 -12.03817,-2.03726 -12.09907,-14.72785 -0.0222,-4.86697 -1.55654,-9.7848 -3.40708,-10.9285 -1.85054,-1.1437 -14.60289,-2.34527 -28.3385,-2.67015 -23.78783,-0.56264 -25.27637,-0.96552 -31.34445,-8.48348 -3.50383,-4.34104 -9.1543,-10.72157 -12.55664,-14.17893 l -6.18604,-6.28612 -2.21014,8.52918 c -1.925,7.42894 -0.82806,10.2074 8.50334,21.5384 13.07765,15.88005 17.94535,27.41011 16.76804,39.7185 -0.74767,7.81673 -1.912,9.23372 -7.13307,8.68095 -5.67515,-0.60083 -6.23957,0.51226 -6.23957,12.30468 v 12.96526 l 7.62614,-7.1057 c 4.19437,-3.90813 9.18602,-6.53344 11.09256,-5.83402 z m 74.63677,-8.71008 c -2.00961,-5.23696 -10.16126,-5.83144 -10.16126,-0.74104 0,1.9828 1.4975,5.10258 3.32777,6.93286 4.22305,4.22304 9.12547,-0.21908 6.83349,-6.19182 z m 111.00554,-0.82692 c -0.7031,-2.69818 -1.32461,-1.16203 -1.38113,3.41365 -0.0566,4.57568 0.51874,6.78327 1.27839,4.90577 0.75962,-1.8775 0.80585,-5.62124 0.10288,-8.31942 z m -25.23172,-36.25704 c 7.64169,-9.83194 10.91372,-22.72497 5.76719,-22.72497 -6.09686,0 -13.07153,9.62016 -14.82973,20.4546 -1.92334,11.85227 1.03849,12.59428 9.06254,2.27037 z M 485.45609,445.7588 c 1.74822,-11.55476 0.57338,-12.54796 -6.87225,-5.80975 -5.83661,5.28202 -6.54814,12.23642 -1.74359,17.04097 4.3982,4.3982 6.7064,1.38932 8.61584,-11.23122 z m 19.25422,-31.64785 c -1.90653,-0.7693 -5.02631,-0.7693 -6.93285,0 -1.90653,0.76929 -0.34664,1.39874 3.46643,1.39874 3.81307,0 5.37296,-0.62945 3.46642,-1.39874 z M 336.52697,369.08102 c 4.80363,-11.49669 1.98706,-14.38758 -11.8328,-12.14491 -7.80981,1.26735 -9.2507,0.66716 -9.2507,-3.85333 0,-6.71719 5.13294,-12.01003 11.64719,-12.01003 5.27141,0 6.41924,-4.54914 2.64763,-10.4932 -3.34995,-5.27954 -10.6397,-1.29451 -17.27683,9.44459 -5.05141,8.17336 -5.59384,11.89533 -3.90029,26.76297 1.08191,9.49812 2.49632,18.16254 3.14313,19.25425 2.77005,4.67537 20.98187,-7.76801 24.82267,-16.96034 z"
     style="fill:#b59070;stroke-width:2.77314043" />
  <path
     inkscape:connector-curvature="0"
     id="path923"
     d="m 443.00794,891.58305 c 0,-2.2648 -3.11979,-14.88353 -6.93285,-28.04164 -7.48302,-25.82235 -9.53021,-51.96824 -3.60509,-46.04312 1.83028,1.83027 6.22174,3.32777 9.75882,3.32777 5.28184,0 6.15283,-1.115 4.87402,-6.23957 -0.8564,-3.43176 -1.9019,-12.15794 -2.32337,-19.39151 -0.53014,-9.09895 -2.70173,-15.21212 -7.04677,-19.83722 -7.03105,-7.48421 -11.19841,-22.16627 -11.29744,-39.80197 -0.0433,-7.67996 -3.92818,-20.35909 -11.15873,-36.4171 -6.10091,-13.54926 -11.09256,-28.00395 -11.09256,-32.12148 0,-10.53544 -18.42089,-32.67988 -25.3543,-30.47929 -2.84296,0.90233 -10.46844,-0.78144 -16.94549,-3.74171 -6.47703,-2.96025 -16.45612,-7.39319 -22.17573,-9.85097 -12.42372,-5.33863 -13.51381,-10.10472 -2.31116,-10.10472 5.47756,0 9.75347,2.28615 13.24771,7.08296 6.7047,9.20409 14.715,6.69647 14.715,-4.60651 0,-7.44428 -0.76172,-8.02273 -10.56461,-8.02273 h -10.56461 l -2.99291,-17.33213 c -2.79508,-16.18637 -2.54727,-18.11124 3.74865,-29.11797 6.93471,-12.12348 14.8272,-15.69662 14.8272,-6.71267 0,3.46696 1.96106,5.00347 6.19389,4.853 5.10461,-0.18136 7.0386,2.39195 10.99723,14.63309 2.64186,8.16928 6.08976,16.40329 7.66202,18.29776 2.04965,2.46968 1.29184,4.86245 -2.6778,8.45494 -6.13599,5.553 -6.45659,6.72726 -3.22611,11.81647 1.76219,2.77608 4.04124,2.60007 10.94803,-0.84548 6.5227,-3.25395 10.10113,-3.61362 14.1886,-1.42606 7.84369,4.19782 9.18473,3.64616 5.92823,-2.43864 -4.12457,-7.70686 -3.59246,-9.10455 2.7052,-7.10576 3.06676,0.97335 12.10495,2.06965 20.08489,2.43626 17.92732,0.82354 25.01012,-5.41786 22.4608,-19.79262 -1.39448,-7.86291 -0.14504,-10.48358 9.68502,-20.31362 15.1941,-15.1941 20.71697,-14.01479 33.51249,7.15604 6.8049,11.25897 11.82453,16.64974 15.52476,16.67253 4.85034,0.03 5.36376,1.6463 4.54307,14.3025 -0.66996,10.33145 0.47757,16.44398 4.15858,22.15143 6.46632,10.02624 15.0003,17.37384 20.33838,17.51097 2.28784,0.0588 7.42364,2.28413 11.41291,4.94523 3.98925,2.66113 12.26427,8.19214 18.38892,12.29117 15.00127,10.03979 23.0456,8.14732 20.92462,-4.92269 -0.90091,-5.55177 -0.13478,-11.09464 1.86671,-13.50635 2.78179,-3.35187 1.97043,-5.32216 -4.49396,-10.91276 -7.49524,-6.48213 -7.61205,-6.92614 -2.34239,-8.90322 7.01397,-2.63152 9.60982,-6.4229 9.66354,-14.11404 0.0474,-6.81047 -9.73345,-15.04739 -15.32174,-12.90298 -1.99921,0.76717 -5.7432,-1.82278 -8.32001,-5.75548 -2.5768,-3.93268 -5.87273,-7.15032 -7.3243,-7.15032 -3.78695,0 -21.68116,-14.04787 -21.68116,-17.02082 0,-1.37326 3.14249,-1.70811 6.98332,-0.74414 6.60493,1.65775 6.83033,1.35029 4.15971,-5.67396 -4.3253,-11.3764 -3.44078,-18.77228 4.00364,-33.47689 7.1235,-14.07074 5.9587,-20.62612 -3.70037,-20.82512 -2.94555,-0.0607 -0.90091,-3.04416 5.88582,-8.58841 11.64473,-9.51282 13.24014,-17.68257 5.70033,-29.18977 -4.2972,-6.55837 -4.31911,-7.44921 -0.25624,-10.42013 5.36728,-3.92455 9.93267,-29.35664 5.27005,-29.35664 -1.69841,0 -3.088,-2.49582 -3.088,-5.54628 0,-3.09712 -1.84877,-5.54628 -4.18664,-5.54628 -2.30267,0 -6.98235,-5.8498 -10.39927,-12.99957 -8.90473,-18.63262 -25.20852,-27.78179 -48.51862,-27.22711 -15.05258,0.35821 -17.31654,-0.24827 -17.31654,-4.63888 0,-3.58755 -2.08388,-5.05097 -7.19248,-5.05097 -4.86026,0 -7.66277,-1.79843 -8.64285,-5.54628 -1.87204,-7.15869 -3.02771,-6.99211 -9.61839,1.38657 -2.99937,3.81307 -7.36818,6.93285 -9.70851,6.93285 -2.74081,0 -3.65608,1.56109 -2.57187,4.38653 0.92581,2.41258 1.68327,7.8923 1.68327,12.17716 0,5.01345 3.97541,12.59403 11.15177,21.26506 6.13349,7.41088 10.80451,15.30232 10.38008,17.53653 -1.02633,5.40261 -18.11168,16.73638 -25.22964,16.73638 -3.10791,0 -8.53406,-2.70872 -12.05811,-6.01941 -7.34744,-6.90257 -12.02323,-4.68062 -7.01755,3.33476 4.20261,6.72944 4.25996,14.73161 0.19662,27.44602 -1.74062,5.44658 -3.7086,11.77475 -4.3733,14.06259 -0.91206,3.13925 -2.74369,2.24963 -7.46621,-3.62632 -6.19847,-7.71241 -6.51774,-7.77797 -33.75738,-6.93285 -27.08654,0.84037 -27.48981,0.75942 -26.83915,-5.38638 0.36334,-3.43177 -0.4472,-6.23957 -1.80118,-6.23957 -1.35399,0 -8.66435,-4.17402 -16.24525,-9.2756 l -13.78348,-9.2756 -0.13699,15.23061 c -0.0752,8.37683 0.95895,18.11274 2.29824,21.63535 2.72056,7.15559 -2.78945,29.42774 -9.54518,38.58282 -3.25205,4.40704 -4.75457,4.8102 -7.57162,2.03165 -4.92654,-4.8592 -24.40175,-4.31314 -44.39224,1.24473 -16.02578,4.45555 -18.54338,4.44337 -46.40823,-0.22435 -30.63385,-5.13158 -57.00753,-16.12725 -86.792,-36.18529 -15.07271,-10.15056 -30.0249,-27.6671 -30.0249,-35.17427 0,-6.35337 8.73539,-11.8922 24.95826,-15.82523 22.47342,-5.44839 85.29631,-17.13576 91.9453,-17.10517 3.57566,0.0164 17.10845,4.99462 30.07288,11.06266 29.239,13.6854 37.37123,14.64665 25.94484,3.06679 -12.40071,-12.56726 -20.1919,-23.96886 -24.26218,-35.50527 -6.62645,-18.78137 -20.53372,-37.94887 -36.96688,-50.94913 -21.83196,-17.27123 -49.0436,-56.04104 -56.06932,-79.8848 -12.59707,-42.75177 -14.26079,-78.0987 -4.19931,-89.21652 6.64561,-7.34331 17.98404,-5.08118 33.55716,6.69496 82.61496,62.4721 79.5997,59.55622 85.76847,82.94096 4.98084,18.88141 24.48417,50.87535 32.31896,53.01707 3.46716,0.94778 8.6394,3.52264 11.49386,5.72188 4.96189,3.82291 4.73705,4.52274 -5.1162,15.92567 l -10.30615,11.92703 1.81491,20.79855 c 0.99819,11.43921 2.78019,21.77576 3.96,22.97012 2.36282,2.39197 37.40838,-12.408 40.2433,-16.99503 0.97507,-1.57769 -0.53053,-6.65611 -3.34576,-11.2854 -4.01804,-6.60712 -4.73242,-11.42734 -3.32248,-22.41776 2.68987,-20.96736 5.07088,-22.00332 27.02581,-11.75842 10.3023,4.8074 21.36305,9.44711 24.57948,10.3105 8.48775,2.27839 13.56393,-5.52842 13.56393,-20.86036 0,-12.1425 -0.64234,-13.36538 -8.51631,-16.21261 -4.68398,-1.69376 -13.03374,-3.07955 -18.55503,-3.07955 -5.5213,0 -10.70357,-1.07576 -11.51616,-2.39053 -0.81259,-1.3148 0.58283,-7.63548 3.10093,-14.04593 4.26628,-10.86089 4.26131,-12.19211 -0.0727,-19.52918 -2.55828,-4.33058 -4.65131,-10.52821 -4.65131,-13.77251 0,-3.2443 -1.69222,-6.54809 -3.76049,-7.34176 -8.42352,-3.23241 -10.93025,-89.85181 -2.99116,-103.3586 3.85813,-6.56383 3.87349,-8.38195 0.14587,-17.26324 -8.74812,-20.84316 -17.97938,-20.085995 -12.66019,1.03841 2.26349,8.98912 2.24261,15.2699 -0.0793,23.89331 -3.67765,13.65782 -8.58636,13.67413 -12.02711,0.04 -5.76261,-22.83457 -5.43621,-29.20685 2.1082,-41.15795 4.01595,-6.361697 8.81157,-16.143876 10.6569,-21.738182 2.7714,-8.401756 5.04387,-10.520987 13.06113,-12.180346 12.28185,-2.542013 19.18678,1.723308 28.43457,17.564645 9.48416,16.246503 15.93557,43.104203 15.93557,66.341653 0,15.9412 1.45116,22.14184 8.40672,35.9207 8.83559,17.50322 17.91066,25.10121 36.88549,30.88189 9.16786,2.79298 12.00079,2.50137 20.62054,-2.12266 5.49592,-2.94826 11.94456,-8.78434 14.33032,-12.96907 2.38573,-4.18473 5.82395,-7.61649 7.64047,-7.62613 7.23524,-0.0384 6.3729,-6.14007 -1.96907,-13.93264 -8.27607,-7.73102 -8.68359,-9.02176 -6.91297,-21.89578 1.39786,-10.1636 0.68161,-16.20913 -2.78611,-23.51686 -4.48561,-9.45269 -4.43964,-10.20539 1.17869,-19.29602 5.88874,-9.52817 35.27615,-37.848138 39.27474,-37.848138 4.70896,0 18.81887,14.362521 23.21865,23.634338 2.56635,5.4082 4.73724,15.09403 4.82418,21.52407 0.0871,6.43003 1.88,14.15249 3.98459,17.16101 2.39924,3.42975 3.82649,12.97668 3.82649,25.59543 0,11.06897 1.77259,24.83032 3.93908,30.58079 2.16649,5.75047 4.68428,14.95086 5.59514,20.44532 2.49672,15.06096 23.33407,66.10477 31.1904,76.40491 12.86052,16.86105 23.24396,14.85691 29.06226,-5.60945 3.43482,-12.08218 12.16108,-23.936 17.62065,-23.936 1.78557,0 5.50518,-2.49583 8.26582,-5.54629 2.76063,-3.05045 6.69222,-5.54628 8.73689,-5.54628 2.04466,0 15.89028,-5.10891 30.76802,-11.35313 37.32869,-15.66692 64.1599,-22.86755 72.03748,-19.33253 13.41809,6.02128 11.8663,27.35464 -5.05965,69.55786 -12.06907,30.09312 -19.26246,42.9261 -35.33672,63.04072 -5.18017,6.48221 -8.95619,11.92428 -8.39113,12.09344 0.56503,0.16916 8.51482,0.72457 17.66618,1.23419 24.3921,1.35831 64.77887,9.53303 78.538,15.89691 14.34632,6.63546 21.19431,15.88461 18.80608,25.40008 -2.67411,10.65449 -10.98344,16.04088 -84.36362,54.68736 -19.99429,10.53023 -20.73419,10.68766 -41.9214,8.92072 -23.26587,-1.94031 -58.41299,0.72096 -58.41299,4.42291 0,1.25171 8.28551,10.7678 18.41222,21.14686 21.32994,21.86145 28.7063,32.89011 28.7208,42.94158 0.006,3.95076 3.68074,14.55803 8.16676,23.5717 4.486,9.01365 10.2513,25.65427 12.8118,36.97911 3.95042,17.47253 4.13872,22.93182 1.24339,36.05083 -6.17489,27.97902 -21.11463,53.77713 -39.89076,68.88387 -16.91599,13.6101 -56.18156,11.62245 -81.30355,-4.11565 -17.96351,-11.25357 -25.83507,-18.4598 -22.44965,-20.55208 4.80782,-2.97142 -3.81584,-20.17756 -13.192,-26.32107 -9.6168,-6.30118 -13.15458,-1.44888 -11.09417,15.21628 1.65754,13.40647 30.62144,99.91822 34.87718,104.17397 1.47889,1.47888 2.68889,5.98965 2.68889,10.02387 0,4.03426 2.33246,9.44585 5.18322,12.02576 2.85077,2.5799 5.9444,10.24417 6.87473,17.03168 0.93033,6.78751 5.14945,17.5359 9.37577,23.88531 11.11278,16.69514 10.95399,16.37223 15.49567,31.51322 2.28753,7.62614 5.03103,16.04955 6.09669,18.7187 1.82254,4.56492 -3.67707,4.85299 -92.64591,4.85299 -81.79766,0 -94.58347,-0.55665 -94.58347,-4.1178 z m -5.54628,-253.6867 c 0,-4.05633 -10.95624,-9.06268 -15.78128,-7.21114 -3.43467,1.31799 -3.59479,2.42886 -0.83033,5.75981 3.78647,4.56243 16.61161,5.68295 16.61161,1.45133 z m 178.52985,-77.25512 c 3.07779,-10.73167 -0.86406,-31.41423 -6.3325,-33.22611 -3.15603,-1.0457 -3.5685,1.48302 -2.16915,13.29829 0.9696,8.18689 0.49381,16.89542 -1.08419,19.84393 -1.54663,2.88992 -2.01604,6.54242 -1.04311,8.11662 3.02616,4.89645 7.99865,1.13852 10.62895,-8.03273 z m -23.23399,-65.49551 c 0,-2.19783 -1.22212,-4.75136 -2.71582,-5.67454 -3.72502,-2.30218 -14.46927,3.77008 -12.45045,7.03657 2.62411,4.2459 15.16627,3.11953 15.16627,-1.36203 z M 278.8355,386.33415 c -1.34001,-6.39326 -6.29903,-5.59068 -7.26006,1.175 -0.67734,4.76836 0.16611,5.82277 3.60256,4.50405 2.46782,-0.947 4.11368,-3.50256 3.6575,-5.67905 z M 444.23125,259.17691 c 2.96066,-2.23934 8.2204,-4.07152 11.68829,-4.07152 6.75373,0 14.15716,-10.12268 10.22371,-13.97887 -6.56854,-6.43955 -36.42193,9.80762 -33.24297,18.09188 1.99367,5.19541 4.41892,5.18653 11.33097,-0.0415 z M 319.49167,581.17242 c -2.27588,-15.1767 0.89683,-36.59778 4.83697,-32.65764 1.51885,1.51885 3.16785,12.24578 3.66443,23.83764 0.70233,16.39453 0.0627,21.07612 -2.88029,21.07612 -2.34758,0 -4.48062,-4.65083 -5.62111,-12.25612 z m 112.45094,8.12922 c -2.78451,-3.35514 -2.5364,-4.46789 1.32689,-5.95036 4.36248,-1.67406 9.5865,2.63479 9.69598,7.9974 0.0743,3.63825 -7.46676,2.23782 -11.02287,-2.04704 z m -57.02595,-43.25812 c -2.85778,-4.62399 3.56962,-9.92648 7.39519,-6.10091 3.19998,3.19999 1.19722,9.11568 -3.08614,9.11568 -1.3452,0 -3.28426,-1.35665 -4.30905,-3.01477 z m 33.45497,0.28686 c -2.04533,-3.30939 0.55067,-8.36466 4.29543,-8.36466 3.37436,0 3.39624,7.50584 0.028,9.58756 -1.41985,0.87753 -3.36537,0.3272 -4.32338,-1.2229 z m 49.19399,-11.83108 c 1.74716,-5.24731 10.40058,-5.99331 10.40058,-0.89661 0,2.57245 -2.37103,4.36303 -5.77736,4.36303 -3.38873,0 -5.3002,-1.43321 -4.62322,-3.46642 z m 37.04162,1.45168 c -0.89906,-0.89905 -0.24487,-3.30938 1.45398,-5.35624 3.77339,-4.54664 14.38187,-4.97437 12.89707,-0.51999 -1.27001,3.81008 -12.01679,8.2105 -14.35105,5.87623 z m 3.57801,-21.19799 c -3.97008,-2.07165 -12.70547,-4.62022 -19.41198,-5.66353 -11.14309,-1.73349 -24.67277,-9.47849 -24.67277,-14.12383 0,-1.04531 2.49732,-5.40771 5.54964,-9.69426 3.90838,-5.48882 7.18886,-7.36507 11.09256,-6.34423 3.0979,0.81012 5.54292,0.0835 5.54292,-1.64708 0,-4.83255 8.79344,-3.63217 19.00694,2.59461 7.144,4.35544 8.9461,7.02747 7.77079,11.52196 -0.9259,3.54057 0.60301,8.56343 3.87144,12.71856 10.08017,12.81488 5.6785,18.16648 -8.74954,10.6378 z M 343.47008,502.32826 c -1.88806,-6.63618 -2.89485,-12.60378 -2.23731,-13.26135 2.18054,-2.18052 8.00031,15.09126 6.82489,20.25477 -0.75086,3.2984 -2.35526,0.8526 -4.58758,-6.99342 z M 480.90753,394.68679 c -3.48855,-3.48853 -1.84849,-12.01693 2.31094,-12.01693 2.28785,0 4.15972,1.14586 4.15972,2.54632 0,1.40049 0.75745,4.52028 1.68326,6.93285 1.69156,4.40819 -4.39054,6.30113 -8.15392,2.53776 z M 328.06254,311.50716 c 0.16361,-3.73816 3.55938,-10.05848 7.54608,-14.04521 6.10143,-6.10141 7.93198,-6.68132 11.5671,-3.66442 4.47942,3.71756 5.75141,15.94985 2.19627,21.12037 -1.12057,1.62975 -6.44056,3.05828 -11.82218,3.17453 -8.67036,0.18718 -9.75091,-0.5627 -9.48727,-6.58527 z"
     style="fill:#687292;stroke-width:2.77314043" />
  <path
     inkscape:connector-curvature="0"
     id="path921"
     d="m 443.00794,891.58305 c 0,-2.2648 -3.11979,-14.88353 -6.93285,-28.04164 -7.48302,-25.82235 -9.53021,-51.96824 -3.60509,-46.04312 1.83028,1.83027 6.22174,3.32777 9.75882,3.32777 5.28184,0 6.15283,-1.115 4.87402,-6.23957 -0.8564,-3.43176 -1.9019,-12.15794 -2.32337,-19.39151 -0.53014,-9.09895 -2.70173,-15.21212 -7.04677,-19.83722 -7.03105,-7.48421 -11.19841,-22.16627 -11.29744,-39.80197 -0.0433,-7.67996 -3.92818,-20.35909 -11.15873,-36.4171 -6.10091,-13.54926 -11.09256,-28.45229 -11.09256,-33.11782 0,-4.66553 -1.29847,-9.28528 -2.88551,-10.26611 -1.58704,-0.98083 -5.97038,-6.67009 -9.74076,-12.6428 -5.42751,-8.59771 -8.54669,-10.85945 -14.97627,-10.85945 -9.78369,0 -12.61196,-3.88595 -11.57642,-15.90563 0.75837,-8.80228 0.48189,-9.05264 -9.99714,-9.05264 h -10.77709 l -2.99291,-17.33213 c -2.79508,-16.18637 -2.54727,-18.11124 3.74865,-29.11797 6.93471,-12.12348 14.8272,-15.69662 14.8272,-6.71267 0,3.46696 1.96106,5.00347 6.19389,4.853 5.10461,-0.18136 7.0386,2.39195 10.99723,14.63309 2.64186,8.16928 6.08976,16.40329 7.66202,18.29776 2.04965,2.46968 1.29184,4.86245 -2.6778,8.45494 -6.13599,5.553 -6.45659,6.72726 -3.22611,11.81647 1.76219,2.77608 4.04124,2.60007 10.94803,-0.84548 6.5227,-3.25395 10.10113,-3.61362 14.1886,-1.42606 7.84369,4.19782 9.18473,3.64616 5.92823,-2.43864 -4.12457,-7.70686 -3.59246,-9.10455 2.7052,-7.10576 3.06676,0.97335 12.10495,2.06965 20.08489,2.43626 17.92732,0.82354 25.01012,-5.41786 22.4608,-19.79262 -1.39448,-7.86291 -0.14504,-10.48358 9.68502,-20.31362 15.1941,-15.1941 20.71697,-14.01479 33.51249,7.15604 6.8049,11.25897 11.82453,16.64974 15.52476,16.67253 4.85034,0.03 5.36376,1.6463 4.54307,14.3025 -0.66996,10.33145 0.47757,16.44398 4.15858,22.15143 6.46632,10.02624 15.0003,17.37384 20.33838,17.51097 2.28784,0.0588 7.42364,2.28413 11.41291,4.94523 3.98925,2.66113 12.26427,8.19214 18.38892,12.29117 15.00127,10.03979 23.0456,8.14732 20.92462,-4.92269 -0.90091,-5.55177 -0.13478,-11.09464 1.86671,-13.50635 2.78179,-3.35187 1.97043,-5.32216 -4.49396,-10.91276 -7.49524,-6.48213 -7.61205,-6.92614 -2.34239,-8.90322 7.01397,-2.63152 9.60982,-6.4229 9.66354,-14.11404 0.0474,-6.81047 -9.73345,-15.04739 -15.32174,-12.90298 -1.99921,0.76717 -5.7432,-1.82278 -8.32001,-5.75548 -2.5768,-3.93268 -5.87273,-7.15032 -7.3243,-7.15032 -3.78695,0 -21.68116,-14.04787 -21.68116,-17.02082 0,-1.37326 3.14249,-1.70811 6.98332,-0.74414 6.60493,1.65775 6.83033,1.35029 4.15971,-5.67396 -4.3253,-11.3764 -3.44078,-18.77228 4.00364,-33.47689 7.1235,-14.07074 5.9587,-20.62612 -3.70037,-20.82512 -2.94555,-0.0607 -0.90091,-3.04416 5.88582,-8.58841 11.64473,-9.51282 13.24014,-17.68257 5.70033,-29.18977 -4.2972,-6.55837 -4.31911,-7.44921 -0.25624,-10.42013 5.36728,-3.92455 9.93267,-29.35664 5.27005,-29.35664 -1.69841,0 -3.088,-2.49582 -3.088,-5.54628 0,-3.09712 -1.84877,-5.54628 -4.18664,-5.54628 -2.30267,0 -6.98235,-5.8498 -10.39927,-12.99957 -8.90473,-18.63262 -25.20852,-27.78179 -48.51862,-27.22711 -15.05258,0.35821 -17.31654,-0.24827 -17.31654,-4.63888 0,-3.58755 -2.08388,-5.05097 -7.19248,-5.05097 -4.86026,0 -7.66277,-1.79843 -8.64285,-5.54628 -1.87204,-7.15869 -3.02771,-6.99211 -9.61839,1.38657 -2.99937,3.81307 -7.36818,6.93285 -9.70851,6.93285 -2.74081,0 -3.65608,1.56109 -2.57187,4.38653 0.92581,2.41258 1.68327,7.8923 1.68327,12.17716 0,5.01345 3.97541,12.59403 11.15177,21.26506 6.13349,7.41088 10.80451,15.30232 10.38008,17.53653 -1.02633,5.40261 -18.11168,16.73638 -25.22964,16.73638 -3.10791,0 -8.53406,-2.70872 -12.05811,-6.01941 -7.34744,-6.90257 -12.02323,-4.68062 -7.01755,3.33476 4.20261,6.72944 4.25996,14.73161 0.19662,27.44602 -1.74062,5.44658 -3.68351,11.74996 -4.31759,14.00749 -0.81627,2.90636 -3.73777,1.0475 -10.00765,-6.3676 -7.48851,-8.8563 -10.35255,-10.36936 -18.56085,-9.80572 -5.3383,0.36659 -12.42547,2.38172 -15.7493,4.4781 -3.32381,2.09636 -10.18733,3.41396 -15.25228,2.92796 -7.75253,-0.74389 -9.10045,-1.8933 -8.52277,-7.26768 0.53083,-4.93868 -1.45732,-7.27963 -8.78162,-10.33993 -8.72952,-3.64743 -18.35065,-14.1043 -25.18225,-27.36976 -3.99616,-7.7596 -8.75209,-8.38345 -10.58145,-1.38798 -1.33758,5.11492 -2.99668,5.81184 -10.75238,4.5165 -17.7357,-2.96213 -24.45458,-7.02938 -26.22357,-15.87437 -1.1105,-5.55249 -3.75047,-8.92075 -7.78567,-9.93353 -3.83373,-0.96219 -8.36751,-6.36588 -12.18504,-14.52302 -13.13576,-28.06781 -23.32783,-42.47211 -37.41632,-52.8799 -7.91455,-5.84681 -18.11368,-16.06844 -22.66477,-22.71474 -4.55108,-6.64631 -10.39218,-14.24366 -12.98021,-16.88299 -2.58803,-2.63937 -6.50532,-8.29696 -8.70511,-12.57245 -5.81295,-11.29808 -18.98048,-81.30551 -17.96232,-95.49983 0.7696,-10.72935 1.69427,-12.20264 8.12688,-12.94885 5.45183,-0.63243 10.28355,2.12855 19.41198,11.09256 6.68455,6.56402 15.89736,13.80644 20.47304,16.09428 4.57569,2.28784 13.31108,7.64916 19.41199,11.91404 6.10091,4.26489 16.87647,11.45902 23.94568,15.98697 13.59684,8.70899 16.27731,13.41267 22.8179,40.04094 4.8876,19.89855 22.18301,49.84958 28.91659,50.07579 2.6075,0.0876 8.2057,1.05559 12.44045,2.15112 l 7.69956,1.99184 -8.78179,10.92775 -8.78178,10.92778 1.97375,24.32566 c 1.08558,13.37913 2.46399,24.81589 3.06312,25.41503 1.94584,1.94583 43.51696,-17.4707 44.85162,-20.94878 0.71234,-1.85634 -1.69503,-7.49197 -5.34975,-12.52358 -5.59844,-7.70767 -6.38138,-11.22085 -4.97152,-22.30823 2.5671,-20.18832 5.21048,-21.27012 27.06003,-11.07439 10.3023,4.8074 21.36305,9.44711 24.57948,10.3105 8.48775,2.27839 13.56393,-5.52842 13.56393,-20.86036 0,-12.1425 -0.64234,-13.36538 -8.51631,-16.21261 -4.68398,-1.69376 -13.03374,-3.07955 -18.55503,-3.07955 -5.5213,0 -10.70357,-1.07576 -11.51616,-2.39053 -0.81259,-1.3148 0.58283,-7.63548 3.10093,-14.04593 4.26628,-10.86089 4.26131,-12.19211 -0.0727,-19.52918 -2.55828,-4.33058 -4.65131,-10.52821 -4.65131,-13.77251 0,-3.2443 -1.69222,-6.54809 -3.76049,-7.34176 -8.4812,-3.25455 -10.95623,-90.88518 -2.9136,-103.15978 3.66818,-5.59833 3.81177,-8.05266 0.902,-15.41626 -1.90343,-4.81684 -5.16869,-10.77397 -7.25615,-13.23805 -2.64125,-3.1178 -3.23298,-7.9973 -1.94588,-16.046299 1.97603,-12.357444 7.0684,-16.91094 18.91218,-16.91094 15.14872,0 29.85646,37.553769 29.85959,76.241459 0.002,30.61672 14.52577,57.61685 36.91744,68.63283 23.79795,11.70783 42.16005,6.52601 55.09647,-15.54834 6.7041,-11.43966 6.81569,-12.37446 2.85096,-23.88222 -5.98039,-17.35816 -2.61868,-49.37315 5.88691,-56.06364 4.0779,-3.20767 5.75152,-6.96256 4.97484,-11.16142 -0.764,-4.13042 1.57151,-9.58526 6.72609,-15.709473 9.59845,-11.404 18.47646,-10.158974 24.09737,3.379333 5.86084,14.11626 15.4716,57.69969 15.46176,70.11684 -0.005,6.28352 2.48675,19.2372 5.53721,28.78595 3.05045,9.54876 5.54628,19.49927 5.54628,22.11225 0,4.59589 4.73583,19.01119 16.17512,49.23522 6.32728,16.71741 15.17712,28.63132 26.25887,35.35042 9.98577,6.05457 15.04622,3.94066 20.22232,-8.44749 8.75303,-20.94895 24.27321,-31.70968 70.69567,-49.01604 54.51733,-20.32414 59.42585,-21.33874 61.72306,-12.75819 4.72932,17.66501 1.37992,33.14745 -9.75704,45.10158 -2.90318,3.11621 -6.05158,8.81044 -6.99644,12.65384 -0.94487,3.84344 -3.25231,9.48387 -5.12771,12.53432 -1.87536,3.05046 -4.24321,10.29457 -5.26186,16.09803 -1.0528,5.99802 -4.77746,13.09532 -8.63068,16.44566 -3.72821,3.24164 -6.77858,7.34048 -6.77858,9.10852 0,1.76805 -7.48748,9.02918 -16.63885,16.13585 -9.15136,7.10667 -16.63884,14.22133 -16.63884,15.81034 0,1.93707 10.28081,2.30601 31.19783,1.1196 20.35444,-1.15448 35.53519,-0.65047 43.67696,1.45011 6.86353,1.77078 18.09475,4.3939 24.95827,5.82916 23.42755,4.89898 38.62546,12.64855 38.78151,19.77508 0.0582,2.6558 -17.41033,18.83051 -20.35394,18.84642 -1.30401,0.008 -8.16753,3.9443 -15.25227,8.74943 -23.88525,16.19985 -54.08797,33.1984 -61.68649,34.71811 -4.15122,0.83025 -12.26393,-0.0469 -18.02821,-1.94935 -6.05712,-1.99902 -22.28898,-3.26901 -38.45858,-3.009 -21.0409,0.33835 -29.33347,-0.57479 -33.44468,-3.68276 -14.78306,-11.17567 -10.28827,0.62374 7.86601,20.64922 7.60489,8.38875 21.05618,22.95315 29.89171,32.3653 11.79017,12.55961 16.53233,19.93838 17.82234,27.7314 0.96671,5.84013 4.84237,17.76469 8.61257,26.49906 3.77016,8.73437 8.5403,24.72621 10.6003,35.53741 3.16792,16.62592 3.15148,22.20265 -0.10649,36.16882 -8.26141,35.41356 -31.65107,66.54558 -52.59461,70.00433 -18.13115,2.99429 -29.69154,2.12688 -44.683,-3.3527 -19.75258,-7.21982 -33.27949,-18.29566 -39.48922,-32.33382 -10.0787,-22.78451 -30.0394,-27.24098 -28.79762,-6.42939 0.68222,11.43341 10.57415,44.50438 24.35303,81.41766 5.69331,15.25227 11.2673,31.47514 12.38662,36.05082 1.11932,4.57569 3.95322,12.06317 6.29752,16.63885 2.34433,4.57568 5.71245,15.16722 7.48474,23.53678 1.79952,8.49823 6.08086,18.29391 9.69634,22.18512 3.56071,3.83226 7.1435,10.08755 7.96174,13.90062 3.61737,16.85725 4.77912,20.548 7.24389,23.01277 1.44173,1.44172 1.96138,4.34115 1.15479,6.44314 -1.20368,3.13639 -17.32761,3.82177 -89.91048,3.82177 -76.36794,0 -88.4438,-0.56222 -88.4438,-4.1178 z M 537.29471,693.2616 c 0,-1.52523 -1.24791,-2.77314 -2.77314,-2.77314 -1.52522,0 -2.77314,1.24791 -2.77314,2.77314 0,1.52522 1.24792,2.77314 2.77314,2.77314 1.52523,0 2.77314,-1.24792 2.77314,-2.77314 z m -99.83305,-55.36525 c 0,-4.05633 -10.95624,-9.06268 -15.78128,-7.21114 -3.43467,1.31799 -3.59479,2.42886 -0.83033,5.75981 3.78647,4.56243 16.61161,5.68295 16.61161,1.45133 z m 178.52985,-77.25512 c 3.07779,-10.73167 -0.86406,-31.41423 -6.3325,-33.22611 -3.15603,-1.0457 -3.5685,1.48302 -2.16915,13.29829 0.9696,8.18689 0.49381,16.89542 -1.08419,19.84393 -1.54663,2.88992 -2.01604,6.54242 -1.04311,8.11662 3.02616,4.89645 7.99865,1.13852 10.62895,-8.03273 z m -23.23399,-65.49551 c 0,-2.19783 -1.22212,-4.75136 -2.71582,-5.67454 -3.72502,-2.30218 -14.46927,3.77008 -12.45045,7.03657 2.62411,4.2459 15.16627,3.11953 15.16627,-1.36203 z M 423.59595,413.54143 c 2.28784,-2.58354 7.01028,-6.67825 10.49429,-9.09937 l 6.33457,-4.40208 -8.64144,-1.72828 c -10.44506,-2.08901 -21.4374,2.72198 -16.80456,7.35481 4.64398,4.64399 3.69973,7.50789 -2.47542,7.50789 -3.18725,0 -5.54628,1.84877 -5.54628,4.34659 0,5.45474 10.51037,2.94095 16.63884,-3.97956 z m 249.98401,-20.18037 5.94766,-5.94766 -8.02183,2.01335 c -9.68595,2.43102 -10.49778,3.121 -8.14721,6.92431 2.51745,4.07333 3.42294,3.80844 10.22138,-2.99 z m -394.18731,-8.05109 c 0,-2.79727 -1.1853,-5.81849 -2.63401,-6.71383 -3.18368,-1.96763 -8.1895,6.89805 -6.51808,11.54406 1.77534,4.93494 9.15209,1.0417 9.15209,-4.83023 z m 164.8386,-126.13306 c 2.96066,-2.23934 8.2204,-4.07152 11.68829,-4.07152 6.75373,0 14.15716,-10.12268 10.22371,-13.97887 -6.56854,-6.43955 -36.42193,9.80762 -33.24297,18.09188 1.99367,5.19541 4.41892,5.18653 11.33097,-0.0415 z M 340.40174,618.3868 c 0,-1.52522 1.87187,-2.77314 4.15971,-2.77314 2.28784,0 4.15971,1.24792 4.15971,2.77314 0,1.52523 -1.87187,2.77314 -4.15971,2.77314 -2.28784,0 -4.15971,-1.24791 -4.15971,-2.77314 z m -20.91007,-37.21438 c -2.27588,-15.1767 0.89683,-36.59778 4.83697,-32.65764 1.51885,1.51885 3.16785,12.24578 3.66443,23.83764 0.70233,16.39453 0.0627,21.07612 -2.88029,21.07612 -2.34758,0 -4.48062,-4.65083 -5.62111,-12.25612 z m 112.45094,8.12922 c -2.78451,-3.35514 -2.5364,-4.46789 1.32689,-5.95036 4.36248,-1.67406 9.5865,2.63479 9.69598,7.9974 0.0743,3.63825 -7.46676,2.23782 -11.02287,-2.04704 z m -57.02595,-43.25812 c -2.85778,-4.62399 3.56962,-9.92648 7.39519,-6.10091 3.19998,3.19999 1.19722,9.11568 -3.08614,9.11568 -1.3452,0 -3.28426,-1.35665 -4.30905,-3.01477 z m 33.45497,0.28686 c -2.04533,-3.30939 0.55067,-8.36466 4.29543,-8.36466 3.37436,0 3.39624,7.50584 0.028,9.58756 -1.41985,0.87753 -3.36537,0.3272 -4.32338,-1.2229 z m 49.19399,-11.83108 c 1.74716,-5.24731 10.40058,-5.99331 10.40058,-0.89661 0,2.57245 -2.37103,4.36303 -5.77736,4.36303 -3.38873,0 -5.3002,-1.43321 -4.62322,-3.46642 z m 37.04162,1.45168 c -0.89906,-0.89905 -0.24487,-3.30938 1.45398,-5.35624 3.77339,-4.54664 14.38187,-4.97437 12.89707,-0.51999 -1.27001,3.81008 -12.01679,8.2105 -14.35105,5.87623 z m 3.57801,-21.19799 c -3.97008,-2.07165 -12.70547,-4.62022 -19.41198,-5.66353 -11.14309,-1.73349 -24.67277,-9.47849 -24.67277,-14.12383 0,-1.04531 2.49732,-5.40771 5.54964,-9.69426 3.90838,-5.48882 7.18886,-7.36507 11.09256,-6.34423 3.0979,0.81012 5.54292,0.0835 5.54292,-1.64708 0,-4.83255 8.79344,-3.63217 19.00694,2.59461 7.144,4.35544 8.9461,7.02747 7.77079,11.52196 -0.9259,3.54057 0.60301,8.56343 3.87144,12.71856 10.08017,12.81488 5.6785,18.16648 -8.74954,10.6378 z m -278.73556,-7.3869 c -24.01379,-6.45596 -28.43983,-8.29607 -49.59609,-20.61924 -9.15137,-5.33054 -22.45689,-12.79932 -29.56786,-16.59728 -15.27197,-8.15678 -26.85329,-22.46183 -22.06311,-27.25198 1.71996,-1.71999 14.66451,-5.8404 28.76565,-9.1565 14.10114,-3.31612 37.69596,-8.90838 52.43293,-12.42727 l 26.79444,-6.398 21.87992,12.71311 c 23.80247,13.83017 38.07122,18.78375 54.17549,18.80768 9.24792,0.0139 10.39927,-0.7521 10.39927,-6.91737 0,-8.31493 7.15294,-9.43054 9.66753,-1.50779 0.947,2.98376 0.93006,9.64557 -0.0377,14.80397 -1.11275,5.93147 -0.16722,13.18975 2.57231,19.74642 4.06037,9.71784 3.98139,11.05443 -1.26045,21.32931 -5.56336,10.90507 -5.65998,10.95315 -18.66629,9.28833 -9.33361,-1.19473 -18.23093,-0.0385 -31.09941,4.04146 -21.90809,6.94597 -29.0294,6.96497 -54.39667,0.14504 z m 124.02039,-5.03783 c -1.88806,-6.63618 -2.89485,-12.60378 -2.23731,-13.26135 2.18054,-2.18052 8.00031,15.09126 6.82489,20.25477 -0.75086,3.2984 -2.35526,0.8526 -4.58758,-6.99342 z M 480.90753,394.68679 c -3.48855,-3.48853 -1.84849,-12.01693 2.31094,-12.01693 2.28785,0 4.15972,1.14586 4.15972,2.54632 0,1.40049 0.75745,4.52028 1.68326,6.93285 1.69156,4.40819 -4.39054,6.30113 -8.15392,2.53776 z M 326.53604,317.45286 c 0,-2.7633 21.80071,-22.98351 23.23434,-21.54991 2.36829,2.36829 2.09549,15.38788 -0.39839,19.01495 -1.76968,2.57378 -22.83595,4.91229 -22.83595,2.53496 z M 343.05411,147.6462 c -0.0663,-1.14392 -1.18821,-7.6101 -2.49286,-14.36928 -2.62209,-13.58451 -1.39777,-19.60169 3.98828,-19.60169 4.52008,0 7.54577,15.71373 5.24284,27.22834 -1.53704,7.68526 -6.40091,12.55227 -6.73826,6.74263 z"
     style="fill:#8e6854;stroke-width:2.77314043" />
  <path
     inkscape:connector-curvature="0"
     id="path919"
     d="m 448.55422,890.01686 c 0,-3.12619 -2.10445,-9.67773 -4.67654,-14.55899 -3.27805,-6.22098 -4.5243,-14.6086 -4.16742,-28.04818 0.28003,-10.54525 1.02057,-19.68464 1.64569,-20.30973 2.00193,-2.00193 17.56235,7.23975 19.14826,11.37256 1.33174,3.47048 21.78182,9.28079 27.56726,7.83246 1.14392,-0.28635 2.07986,0.72726 2.07986,2.25249 0,1.52522 -1.24792,2.77314 -2.77314,2.77314 -1.52523,0 -2.77315,1.71907 -2.77315,3.82016 0,2.10107 -1.89599,5.39368 -4.21331,7.31688 -2.95997,2.45656 -3.70655,6.19811 -2.50975,12.57761 3.07497,16.39103 -0.15593,20.65559 -15.64894,20.65559 -11.94053,0 -13.67882,-0.72232 -13.67882,-5.68399 z m 48.22006,-1.49625 c -0.99118,-3.94915 -1.13333,-14.55594 -0.31589,-23.57061 0.81741,-9.0147 0.35668,-17.08848 -1.02384,-17.94169 -1.38056,-0.85322 -2.51008,-4.10456 -2.51008,-7.2252 0,-4.94709 1.4209,-5.5384 11.09256,-4.61606 11.81735,1.12698 13.63941,-0.4556 6.93285,-6.02157 -2.28784,-1.89874 -4.15971,-6.41924 -4.15971,-10.04553 0,-5.25627 -1.46608,-6.59331 -7.22955,-6.59331 -5.32562,0 -6.78626,1.09547 -5.54628,4.15971 0.92581,2.28784 2.44072,6.03158 3.36654,8.31942 1.93312,4.77721 -8.50811,6.04836 -11.38926,1.38657 -0.94265,-1.52523 -3.4567,-2.77314 -5.5868,-2.77314 -3.62414,0 -20.29296,-9.86187 -28.62932,-16.93812 -2.45978,-2.08795 -3.13135,-6.24342 -1.99126,-12.32076 1.42936,-7.61906 0.29812,-10.79007 -6.68767,-18.74645 -7.14694,-8.13989 -8.40168,-11.80904 -8.3656,-24.46243 0.0222,-8.18739 0.98469,-16.36799 2.13629,-18.1791 2.66374,-4.18922 15.68721,-9.1862 23.94169,-9.1862 3.49105,0 9.71367,-3.11978 13.82804,-6.93285 4.11437,-3.81307 8.44266,-6.93285 9.61842,-6.93285 1.17573,0 3.46834,8.59646 5.09462,19.10322 1.78385,11.52468 5.00466,21.2475 8.11867,24.50833 2.83898,2.9728 6.78141,7.79141 8.76099,10.70803 3.49363,5.14737 3.54574,5.14021 1.77584,-0.24348 -1.00288,-3.05045 -2.7582,-18.79524 -3.9007,-34.98838 -1.14254,-16.19317 -2.89441,-30.76419 -3.89311,-32.3801 -2.29466,-3.71285 -13.73248,-0.56486 -26.69924,7.34829 -11.91111,7.26893 -33.17865,7.95373 -43.19491,1.39084 -6.96443,-4.56314 -20.58732,-25.06089 -20.58732,-30.97672 0,-1.73336 3.88714,-5.16168 8.63806,-7.61849 9.9373,-5.13877 8.78567,-6.80503 -9.30383,-13.46143 -8.52522,-3.13701 -14.82663,-7.68382 -17.93005,-12.93748 -3.66043,-6.19664 -6.81724,-8.10056 -13.43101,-8.10056 -10.65283,0 -13.35145,-2.37681 -8.85292,-7.79721 1.89328,-2.28127 3.44235,-4.89194 3.44235,-5.80141 0,-0.90951 2.71405,-1.30915 6.03122,-0.88808 3.31718,0.42108 6.8226,-0.51486 7.78981,-2.07985 2.59611,-4.20059 16.20338,-3.45556 22.39306,1.22609 7.77746,5.88255 10.36536,5.16883 8.90766,-2.45667 -1.09664,-5.73669 0.008,-6.94655 7.65392,-8.38088 4.91459,-0.92198 12.29061,-0.40074 16.39117,1.15829 9.53109,3.62369 8.97813,3.7626 10.66245,-2.6783 0.79292,-3.0321 4.86387,-6.81402 9.04654,-8.40425 l 7.60489,-2.89139 -6.31139,-6.71818 -6.31139,-6.71816 12.00692,-11.53626 12.00693,-11.53624 9.84634,11.05002 c 22.97952,25.78869 23.70597,26.96222 25.3061,40.88078 0.87673,7.62614 2.12464,15.73757 2.77314,18.02542 0.85229,3.00683 -0.82102,4.03056 -6.03755,3.69368 -6.32148,-0.40821 -7.18143,0.56056 -6.93285,7.80986 0.24903,7.26271 1.1264,8.11562 7.16682,6.96712 3.7857,-0.71979 10.32646,0.47191 14.53506,2.64827 4.38336,2.26674 10.62368,3.21116 14.60879,2.21097 7.51915,-1.88718 9.69529,3.32688 3.83456,9.18761 -3.79937,3.79937 2.69613,33.15056 14.28342,64.5424 4.22242,11.43921 10.92598,29.56043 14.89682,40.26936 3.9708,10.70895 7.21967,21.05396 7.21967,22.98889 0,1.93493 2.34209,8.14804 5.2046,13.80688 2.86255,5.65885 6.65665,17.1366 8.43135,25.50616 1.80063,8.4918 6.08804,18.29685 9.70078,22.18512 3.56071,3.83226 7.1435,10.08755 7.96174,13.90062 3.61737,16.85725 4.77912,20.548 7.24389,23.01277 1.44172,1.44172 1.96138,4.34115 1.15479,6.44314 -1.96749,5.12715 -41.24961,5.44711 -43.62577,0.35535 -1.29412,-2.77314 -1.9412,-2.77314 -3.23531,0 -1.17609,2.52015 -11.7599,3.46642 -38.77114,3.46642 H 498.5764 Z m 32.20101,-47.82037 c 0,-3.97613 -3.15031,-5.68968 -7.43648,-4.04493 -3.35913,1.28904 -3.4372,2.01497 -0.42218,3.92619 4.74193,3.00589 7.85866,3.05298 7.85866,0.11869 z m -20.16605,-52.45858 c -1.10546,-4.62191 -1.26134,-4.62191 -3.27317,0 -1.16183,2.66915 -1.16183,7.03684 0,9.70599 2.01183,4.62191 2.16771,4.62191 3.27317,0 0.6384,-2.66915 0.6384,-7.03684 0,-9.70599 z m 24.41434,-86.66064 c 4.37904,0 4.96422,-3.31776 2.32325,-13.17242 -0.98355,-3.67011 -3.82288,-6.23956 -6.89497,-6.23956 -3.55849,0 -5.23258,1.98837 -5.25338,6.23956 -0.0166,3.43176 -0.70854,11.23122 -1.53721,17.33213 l -1.50673,11.09256 4.39895,-7.62613 c 2.4194,-4.19438 6.23094,-7.62614 8.47009,-7.62614 z m -90.21564,-58.36199 c 0,-6.26943 -13.7639,-16.60906 -21.41564,-16.08774 -4.2363,0.2886 -10.51014,-0.397 -13.9419,-1.52359 -9.16399,-3.00841 -8.01937,4.34887 1.4082,9.0515 20.33139,10.14166 33.94934,13.57522 33.94934,8.55983 z m 38.82396,-3.51485 c 0,-0.47725 -3.93675,-4.53297 -8.74831,-9.0127 -8.48675,-7.90146 -8.55203,-4.80727 -0.10621,5.02745 3.61761,4.21246 8.85439,6.56946 8.85439,3.98525 z m 15.76007,-21.83734 c -0.88525,-2.21222 -1.54237,-1.55512 -1.67542,1.67545 -0.12036,2.92333 0.53499,4.56123 1.45651,3.63975 0.92148,-0.92152 1.01998,-3.31335 0.2188,-5.3152 z m -11.60035,-21.66516 c -0.94265,-1.52523 -3.82411,-2.68543 -6.40324,-2.57822 -3.82275,0.1589 -3.6644,0.63533 0.85695,2.57822 7.42068,3.18878 7.51705,3.18878 5.54629,0 z m -51.08416,247.96499 c 0.13311,-3.23057 0.79017,-3.88767 1.67542,-1.67545 0.80107,2.00185 0.70257,4.39371 -0.2188,5.3152 -0.92152,0.92148 -1.57692,-0.71642 -1.45651,-3.63975 z M 611.97109,707.31224 c -15.46647,-5.89672 -30.30613,-16.51613 -30.30613,-21.68732 0,-8.39651 5.83527,-14.54845 13.79962,-14.54845 9.65328,0 12.97076,-4.18109 8.03565,-10.12756 -3.0141,-3.63176 -2.74084,-4.96692 1.67786,-8.19793 2.90309,-2.12281 4.26306,-3.85963 3.02217,-3.85963 -1.24087,0 -0.91375,-1.61749 0.72695,-3.59441 2.15525,-2.59693 1.82056,-6.9687 -1.20607,-15.75357 -2.52991,-7.34308 -3.51895,-16.12623 -2.49705,-22.17484 2.5671,-15.19439 18.03798,-22.25317 18.03798,-8.23004 0,6.18216 3.52219,7.00321 7.82123,1.82317 1.87267,-2.25642 2.01252,-5.04811 0.38202,-7.62613 -1.41463,-2.23668 -2.59116,-7.98892 -2.61451,-12.78271 -0.025,-5.15843 -1.74031,-9.36756 -4.20217,-10.31226 -3.11407,-1.19497 -4.15971,-6.18091 -4.15971,-19.83472 0,-15.6668 -0.95978,-19.19829 -6.80681,-25.04529 -7.17767,-7.17769 -18.19372,-9.21179 -18.09056,-3.34038 0.0336,1.90653 2.52933,8.90633 5.54628,15.5551 6.79151,14.96711 6.79154,19.34069 2.5e-4,28.12186 -4.66184,6.02781 -6.09694,6.48033 -10.99325,3.46643 -3.09732,-1.90653 -7.27148,-3.46643 -9.27596,-3.46643 -7.15396,0 -18.40162,-7.03867 -21.25779,-13.30289 -4.04302,-8.86737 -3.63173,-16.07058 1.4823,-25.96004 3.75941,-7.26984 5.52862,-8.25456 12.37184,-6.88593 9.74911,1.94982 18.52327,-4.94429 13.69574,-10.76111 -2.28477,-2.75296 -1.67071,-4.0593 2.53556,-5.39432 8.59152,-2.72685 9.73966,-11.26344 2.78082,-20.67578 -5.36514,-7.25673 -6.26965,-12.53648 -7.18506,-41.94032 -0.77696,-24.9549 -2.22509,-35.54389 -5.60987,-41.01968 -6.72065,-10.87243 -20.79664,-25.40663 -24.60566,-25.40663 -1.82329,0 -4.09241,-3.09709 -5.04246,-6.8824 -0.98471,-3.92344 -5.58494,-8.86812 -10.69991,-11.50105 -11.36608,-5.85072 -21.34168,-15.17787 -21.40374,-20.01242 -0.0277,-2.0524 -2.57137,-7.27548 -5.6556,-11.60687 -4.40266,-6.18297 -5.22035,-10.29734 -3.80527,-19.14679 2.48204,-15.52185 -1.71325,-14.13223 -11.40069,3.7763 -8.04033,14.86361 -8.08212,15.16916 -3.41404,24.95826 4.58885,9.62288 4.56636,9.91043 -0.77545,9.91043 -3.02578,0 -5.50141,1.24791 -5.50141,2.77314 0,1.52523 -1.30263,2.77314 -2.89472,2.77314 -1.59209,0 -2.52802,-2.18385 -2.07986,-4.853 1.13369,-6.7519 -10.64966,-8.01739 -17.43925,-1.87289 -2.92466,2.64679 -5.31758,7.11477 -5.31758,9.92884 0,2.81404 -1.24791,5.11647 -2.77314,5.11647 -1.52523,0 -2.77314,-1.87187 -2.77314,-4.15971 0,-6.78693 -4.80131,-4.73234 -6.70967,2.87123 -0.97057,3.867 -4.53761,8.1091 -7.92677,9.4269 -3.38917,1.31777 -9.72041,6.15368 -14.06942,10.74642 l -7.90733,8.35045 6.04417,3.23476 c 8.01202,4.28788 14.78735,1.55762 12.6722,-5.1066 -2.15326,-6.78435 4.83877,-13.04774 8.98652,-8.05001 1.60496,1.93388 3.773,6.92217 4.81781,11.08507 1.64073,6.53713 0.83527,7.97364 -5.90837,10.53758 -4.29443,1.63274 -10.69018,2.24524 -14.21279,1.36114 -8.43473,-2.11699 -19.16897,3.39676 -14.90804,7.65769 4.48614,4.48614 3.7583,7.50789 -1.80834,7.50789 -2.68357,0 -6.41713,2.46261 -8.29682,5.47243 -3.16532,5.06853 -2.82195,5.3533 4.65222,3.85847 7.01577,-1.40316 8.6776,-0.43866 12.72303,7.38434 3.90195,7.54555 4.08317,10.06337 1.12257,15.59534 -3.49383,6.52825 -16.71231,14.83281 -23.6096,14.83281 -6.80352,0 -7.45684,-6.31583 -1.14578,-11.07628 4.23858,-3.19716 5.27584,-5.41573 3.14715,-6.73133 -3.62666,-2.24139 -14.21811,0.47645 -14.21811,3.64848 0,1.15831 -3.59596,1.57822 -7.99103,0.93316 -4.39507,-0.64506 -8.83639,0.19496 -9.86966,1.86685 -1.03325,1.67185 -4.3505,3.0397 -7.37173,3.0397 -6.99605,0 -26.2204,-9.72987 -28.53234,-14.44085 -8.5116,-17.34394 -18.3369,-26.77135 -18.3369,-17.59433 0,2.46282 -1.91506,5.21273 -4.25569,6.11092 -6.66601,2.55797 -28.94226,-4.79593 -32.03548,-10.57568 -3.5405,-6.61544 -0.0832,-13.30508 3.53503,-6.83987 1.38996,2.48371 3.7131,4.51584 5.16254,4.51584 4.80984,0 2.7263,-6.92847 -3.19574,-10.62684 -4.28068,-2.67333 -5.46262,-5.56896 -4.44532,-10.89059 1.69894,-8.8875 -0.23405,-14.53339 -4.97587,-14.53339 -4.19843,0 -6.93285,6.1052 -6.93285,15.47908 0,10.34482 -3.83931,8.00312 -10.60194,-6.46638 -13.18723,-28.2157 -23.37234,-42.63005 -37.49311,-53.06168 -7.91454,-5.84681 -18.11368,-16.06844 -22.66477,-22.71474 -4.55108,-6.64631 -10.39218,-14.24366 -12.98021,-16.88299 -8.77341,-8.9474 -12.68853,-20.26364 -20.12027,-58.15575 -8.8928,-45.34147 -8.70852,-61.59387 0.71345,-62.92953 7.58955,-1.0759 14.40635,3.87582 14.40635,10.46474 0,3.08933 5.98732,7.47731 17.33213,12.70233 9.53267,4.39041 22.32378,11.53076 28.42469,15.86743 6.10091,4.33668 16.87647,11.58955 23.94568,16.1175 7.06923,4.52795 14.17565,11.64576 15.79206,15.81736 5.70599,14.72601 11.23158,41.53981 9.73752,47.25307 -1.03845,3.97102 1.4026,9.28558 7.7836,16.94613 8.0385,9.65045 10.71677,11.10998 19.79204,10.78571 15.87211,-0.5671 17.62087,3.40595 7.70927,17.51505 l -8.53161,12.14469 3.35419,22.87841 c 1.84481,12.58312 4.19221,22.87841 5.21647,22.87841 5.26123,0 44.15181,-19.71343 44.15181,-22.3803 0,-1.70959 -2.55736,-6.69982 -5.68302,-11.0894 -8.06027,-11.31965 -3.91881,-18.57974 9.69226,-16.99073 5.46306,0.6378 11.69483,-0.30271 13.84837,-2.08997 3.0169,-2.50382 7.21322,-2.27032 18.28409,1.01738 14.93367,4.43483 20.17679,3.42502 30.95047,-5.9609 3.75858,-3.27444 4.05755,-5.11469 1.49708,-9.2147 -5.26999,-8.43855 0.50782,-20.44841 10.3812,-21.57858 10.34608,-1.18427 25.28871,-13.55079 24.19634,-20.02488 -1.33491,-7.91167 5.35413,-9.69655 10.85951,-2.89771 l 4.97557,6.14459 3.56179,-5.70335 c 1.959,-3.13685 4.87734,-5.70335 6.48521,-5.70335 1.60787,0 6.95323,-7.62928 11.87861,-16.95396 7.12295,-13.48514 8.58941,-18.90377 7.1674,-26.48372 -1.28393,-6.84401 -3.06118,-9.2632 -6.30612,-8.58393 -2.79879,0.58588 -4.26689,3.27716 -3.85771,7.07174 0.4617,4.28157 -0.83242,6.1259 -4.29837,6.1259 -2.72744,0 -6.42698,1.46801 -8.2212,3.26224 -2.5009,2.5009 -4.46215,2.17634 -8.40367,-1.39068 -4.22102,-3.81998 -7.5029,-4.21176 -18.3327,-2.18854 -7.2552,1.35542 -14.57998,3.8531 -16.27728,5.5504 -4.62142,4.6214 -7.52304,3.7356 -7.52304,-2.29662 0,-7.78901 -3.05852,-8.63249 -16.69843,-4.6051 -12.17265,3.59415 -13.40098,4.82274 -18.99671,19.00043 -1.65545,4.19437 -4.1332,7.62613 -5.50607,7.62613 -3.83933,0 -9.88641,-16.72236 -10.00011,-27.65394 -0.0868,-8.33386 -1.02628,-9.75083 -6.34134,-9.56326 -5.63974,0.19903 -6.23957,-1.06731 -6.23957,-13.17242 0,-7.36593 -1.0308,-13.39261 -2.29069,-13.39261 -3.53376,0 -1.84941,-53.02276 1.97866,-62.28741 4.10428,-9.93319 2.19125,-18.79932 -6.53749,-30.29852 -11.2082,-14.765647 -4.22995,-32.205389 12.88648,-32.205389 15.84922,0 30.53062,36.658729 30.53383,76.241459 10e-4,15.46647 1.58166,22.76437 7.80712,36.05083 11.20992,23.92441 24.82199,34.72615 48.3423,38.36161 13.07452,2.02089 27.17062,-5.3853 33.48309,-17.59225 5.47606,-10.58957 19.51179,-20.13425 30.10485,-20.47215 6.80052,-0.21691 8.8867,-1.63608 9.57987,-6.51688 0.48738,-3.43176 -0.44856,-6.23956 -2.07986,-6.23956 -1.67672,0 -2.96601,-5.55351 -2.96601,-12.77583 0,-10.51056 -0.77778,-12.47737 -4.38652,-11.09256 -2.41258,0.9258 -4.90841,1.68326 -5.54628,1.68326 -0.63785,0 -1.15976,1.71324 -1.15976,3.8072 0,7.10885 -11.39536,29.61067 -14.13728,27.91608 -5.57151,-3.44338 9.94795,-40.0427 16.97958,-40.0427 2.71286,0 7.43884,-3.95856 10.50222,-8.7968 5.03034,-7.94491 5.17207,-9.40373 1.46336,-15.06392 l -4.10639,-6.26712 -6.73731,5.85802 c -3.70553,3.22192 -6.73732,7.50486 -6.73732,9.51764 0,2.01279 -2.30512,3.65962 -5.12252,3.65962 -2.81737,0 -6.47664,2.80781 -8.13173,6.23957 -2.92708,6.06924 -3.01435,6.02336 -3.19691,-1.68075 -0.12285,-5.18017 2.0836,-9.7069 6.37742,-13.08443 4.44637,-3.49751 6.18741,-7.2062 5.3947,-11.49167 -0.764,-4.13042 1.57151,-9.58526 6.72609,-15.709473 9.59845,-11.404 18.47646,-10.158974 24.09737,3.379333 5.86084,14.11626 15.4716,57.69969 15.46176,70.11684 -0.005,6.28352 2.48675,19.2372 5.53721,28.78595 3.05045,9.54876 5.54628,19.49927 5.54628,22.11225 0,2.61299 2.40476,11.49779 5.34392,19.74401 16.79495,47.12062 22.15188,56.3079 37.97098,65.12113 11.58579,6.45476 16.32415,4.00148 23.21654,-12.02037 3.1882,-7.41113 8.44743,-15.27345 11.68718,-17.4718 3.23975,-2.19835 8.12047,-6.12088 10.84606,-8.71674 5.44594,-5.18677 80.18172,-34.2149 95.47736,-37.08438 6.2538,-1.17321 9.57779,-0.72727 9.57779,1.28496 0,1.69497 -1.76818,3.08177 -3.92931,3.08177 -3.06837,0 -2.66707,2.30443 1.83157,10.51731 6.76433,12.3492 5.52507,20.72573 -4.82848,32.63721 -3.89554,4.48171 -7.87192,11.26836 -8.83639,15.08143 -0.96447,3.81307 -3.28797,9.42868 -5.16337,12.47913 -1.87536,3.05046 -4.24321,10.29457 -5.26186,16.09803 -1.0528,5.99802 -4.77746,13.09532 -8.63068,16.44566 -3.72821,3.24164 -6.77858,7.34048 -6.77858,9.10852 0,1.76805 -7.48748,9.02918 -16.63885,16.13585 -9.15136,7.10667 -16.63884,14.22133 -16.63884,15.81034 0,1.93707 10.28081,2.30601 31.19783,1.1196 20.35444,-1.15448 35.53519,-0.65047 43.67696,1.45011 6.86353,1.77078 18.09475,4.40643 24.95827,5.85701 18.35708,3.87962 35.48619,10.94999 37.17212,15.34348 2.70159,7.04023 -1.57021,12.07755 -12.80836,15.10369 -6.21012,1.6722 -11.69398,5.05147 -12.42453,7.65622 -1.38765,4.94767 -9.26185,10.57787 -41.99336,30.02612 -24.8959,14.79249 -30.73866,16.37393 -45.62651,12.34958 -6.42032,-1.73549 -15.65848,-3.54402 -20.52928,-4.01898 -4.8708,-0.47495 -10.55216,-2.27126 -12.62525,-3.99177 -2.83105,-2.34954 -5.70993,-2.12131 -11.56624,0.91697 -9.96784,5.17138 -21.26683,5.16079 -28.12486,-0.0277 -14.70483,-11.12215 -10.14925,0.746 7.94962,20.71037 7.60489,8.38875 21.05618,22.95314 29.89171,32.36529 11.79017,12.55961 16.53233,19.93838 17.82234,27.73141 0.96671,5.84012 4.84237,17.76468 8.61257,26.49905 3.77016,8.73437 8.5403,24.72621 10.6003,35.53741 3.16792,16.62592 3.15148,22.20265 -0.10649,36.16882 -8.26141,35.41356 -31.65107,66.54558 -52.59461,70.00433 -17.28063,2.85384 -32.09208,1.72248 -45.78219,-3.49699 z m 19.6104,-202.00715 c 0,-4.42291 -8.77735,-14.48275 -12.63637,-14.48275 -4.96156,0 -5.42612,12.82904 -0.53605,14.80224 5.50899,2.22292 13.17242,2.03704 13.17242,-0.31949 z m -12.47913,-72.7187 c -1.3417,-2.17093 -2.93695,-2.33202 -4.78572,-0.48325 -1.52523,1.52522 -1.86746,4.23849 -0.76056,6.02953 1.3417,2.17092 2.93695,2.33201 4.78572,0.48324 1.52522,-1.52522 1.86746,-4.23849 0.76056,-6.02952 z m 54.4776,-39.22533 5.94766,-5.94766 -8.02183,2.01335 c -9.68595,2.43102 -10.49778,3.121 -8.14721,6.92431 2.51745,4.07333 3.42294,3.80844 10.22138,-2.99 z m -83.59558,-13.46434 c 0,-1.52523 -1.24791,-2.77314 -2.77314,-2.77314 -1.52522,0 -2.77314,1.24791 -2.77314,2.77314 0,1.52522 1.24792,2.77314 2.77314,2.77314 1.52523,0 2.77314,-1.24792 2.77314,-2.77314 z M 485.09986,315.36976 c -0.49046,-4.16609 0.21075,-7.5747 1.55836,-7.5747 1.34753,0 5.2881,-3.83863 8.7568,-8.53032 6.01841,-8.1403 6.08599,-8.77424 1.47831,-13.8657 -2.65567,-2.93445 -5.78619,-5.33538 -6.95676,-5.33538 -2.93598,0 -9.37402,19.66417 -8.45217,25.81611 0.51009,3.40394 -1.98864,6.05201 -7.76973,8.23412 -10.09223,3.8094 -10.87759,6.69691 -2.28204,8.39055 11.80126,2.3253 14.60843,0.85989 13.66723,-7.13468 z M 340.40174,618.3868 c 0,-1.52522 1.17426,-2.77314 2.60947,-2.77314 1.43521,0 3.38073,1.24792 4.32338,2.77314 0.94265,1.52523 -0.23156,2.77314 -2.60947,2.77314 -2.37786,0 -4.32338,-1.24791 -4.32338,-2.77314 z m 6.91976,-17.33212 c -5.35618,-15.14945 -6.29106,-28.52932 -2.50492,-35.85091 6.04034,-11.68073 9.45086,-9.5012 9.45086,6.03965 0,7.62613 1.24791,13.8657 2.77314,13.8657 1.52523,0 2.77314,4.36769 2.77314,9.70599 0,7.90722 -1.044,9.70599 -5.6333,9.70599 -3.09835,0 -6.18485,-1.55989 -6.85892,-3.46642 z m 18.30802,0.91854 c -3.11992,-1.9753 -3.39446,-5.94766 -1.38657,-20.06281 2.43072,-17.0874 7.02617,-23.31568 8.8936,-12.05356 0.50583,3.05045 2.81169,9.69975 5.12419,14.77623 3.84307,8.43653 3.78994,9.68805 -0.61822,14.55899 -5.43089,6.00107 -6.52653,6.25473 -12.013,2.78115 z m 213.2623,-21.02381 c 0,-7.26502 4.07693,-8.75891 11.09256,-4.06454 3.60046,2.40914 3.43598,3.33553 -1.22331,6.89037 -7.58937,5.79034 -9.86925,5.13755 -9.86925,-2.82583 z m 25.0139,-2.70612 c -2.18732,-2.63556 -2.39772,-4.22673 -0.55885,-4.22673 3.35148,0 7.25895,5.2612 5.3358,7.18437 -0.698,0.698 -2.84763,-0.63294 -4.77695,-2.95764 z m -384.45603,-70.8772 c -24.01379,-6.45596 -28.43983,-8.29607 -49.59609,-20.61924 -9.15137,-5.33054 -22.45689,-12.79932 -29.56786,-16.59728 -15.5056,-8.28154 -26.86175,-22.45176 -21.94065,-27.37755 1.78732,-1.78904 10.36417,-4.66004 19.05966,-6.38 8.69551,-1.71998 31.57794,-7.23423 50.84986,-12.2539 40.08727,-10.44131 39.10142,-10.58252 70.61256,10.11406 17.03362,11.18774 20.03605,12.19991 36.18892,12.19991 16.93977,0 17.61424,-0.26548 17.61424,-6.93285 0,-8.31493 7.15294,-9.43054 9.66753,-1.50779 0.947,2.98376 0.93006,9.64557 -0.0377,14.80397 -1.11275,5.93147 -0.16722,13.18975 2.57231,19.74642 4.06037,9.71784 3.98139,11.05443 -1.26045,21.32931 -5.56336,10.90507 -5.65998,10.95315 -18.66629,9.28833 -9.33361,-1.19473 -18.23093,-0.0385 -31.09941,4.04146 -21.90809,6.94597 -29.0294,6.96497 -54.39667,0.14504 z m 254.06279,-15.6036 c 0,-0.51708 2.55967,-3.49982 5.68813,-6.62828 6.54655,-6.54655 17.35168,-4.95754 15.94534,2.34494 -0.59986,3.11482 -4.06695,4.61348 -11.25027,4.86292 -5.71076,0.19828 -10.3832,-0.0624 -10.3832,-0.57958 z m -36.73662,-65.71642 c -6.94017,-3.96625 -10.39426,-7.92084 -10.39928,-11.90609 -0.006,-5.2444 2.04902,-6.20598 16.96852,-7.93756 18.18403,-2.11047 21.72029,-0.26262 21.8055,11.39517 0.0483,6.59051 -8.12463,15.13954 -14.0416,14.68805 -2.16773,-0.16556 -8.61764,-2.97322 -14.33314,-6.23957 z m 100.51885,-57.40559 c 0,-1.61524 1.24792,-2.16554 2.77314,-1.2229 1.52523,0.94265 2.77315,2.26422 2.77315,2.93681 0,0.6726 -1.24792,1.2229 -2.77315,1.2229 -1.52522,0 -2.77314,-1.32156 -2.77314,-2.93681 z M 498.47075,362.168 c 0,-0.59944 1.93668,-1.83305 4.30375,-2.74139 2.46787,-0.947 3.58101,-0.48211 2.60946,1.08987 -1.62855,2.63507 -6.91321,3.89751 -6.91321,1.65152 z M 339.579,303.72248 c 7.3879,-10.15066 11.74633,-8.7137 7.45889,2.4592 -0.92578,2.4126 -4.10383,4.38652 -7.0623,4.38652 -5.21622,0 -5.22823,-0.20715 -0.39659,-6.84572 z m 52.12584,-12.44593 c -3.05046,-1.30161 -8.4946,-1.69059 -12.0981,-0.86442 -6.51189,1.49295 -6.52207,1.45665 -1.66763,-5.95216 3.41518,-5.21219 5.76111,-6.57732 7.79973,-4.5387 4.18675,4.18674 10.4061,3.59212 14.01235,-1.3397 2.75212,-3.76375 3.74829,-3.78251 8.62513,-0.16242 10.77903,8.00132 -3.05248,18.66848 -16.67148,12.8574 z M 341.87772,140.02006 c -1.07815,-6.10091 -2.44677,-12.96443 -3.04139,-15.25227 -0.59462,-2.28784 0.0666,-5.9893 1.46949,-8.22546 2.03817,-3.24889 3.13975,-2.51618 5.48297,3.64696 3.38963,8.91536 3.48963,17.49278 0.29586,25.37705 -1.8638,4.60105 -2.58077,3.65583 -4.20693,-5.54628 z"
     style="fill:#665958;stroke-width:2.77314043" />
  <path
     inkscape:connector-curvature="0"
     id="path917"
     d="m 457.93223,891.39583 c 0.90859,-2.36773 -0.34301,-7.34976 -2.78135,-11.07115 -2.43834,-3.72136 -3.7416,-8.56878 -2.89613,-10.77204 0.84548,-2.20327 -0.47154,-9.1197 -2.92666,-15.36989 -3.52605,-8.97638 -3.74865,-12.07203 -1.05962,-14.73419 2.67534,-2.64854 3.99383,-2.32536 6.1574,1.50934 1.51422,2.68376 7.11582,6.70243 12.44805,8.9304 8.20092,3.42654 9.26925,4.84628 6.9324,9.2127 -1.51943,2.83906 -2.03251,12.23546 -1.14023,20.88089 1.12141,10.86552 0.64628,15.71896 -1.53879,15.71896 -1.73859,0 -3.1611,-1.24791 -3.1611,-2.77314 0,-1.52522 -1.32157,-2.77314 -2.93681,-2.77314 -1.61524,0 -2.16554,1.24792 -1.2229,2.77314 0.94265,1.52523 -0.36514,2.77314 -2.90617,2.77314 -3.0367,0 -4.05391,-1.47539 -2.96809,-4.30502 z m 42.38124,-8.86739 c 3.14075,-35.6208 3.66387,-37.4366 10.1533,-35.2424 3.31618,1.12123 10.39709,2.22669 15.73538,2.4565 19.9822,0.86031 36.02246,12.27672 36.06791,25.67074 0.008,2.76942 1.80726,8.46706 3.99526,12.66144 l 3.97816,7.62613 h -35.54573 -35.54573 z m 80.2868,0 c -2.51737,-20.91911 -1.24023,-48.13948 2.20601,-47.01755 1.66011,0.54046 5.20291,7.75276 7.87283,16.02731 7.78892,24.139 7.83984,24.2154 10.95219,16.43125 l 2.77194,-6.93285 3.67719,8.31942 c 4.45144,10.07116 7.4519,18.22161 8.42228,22.87841 0.91935,4.4119 -4.96415,4.49936 -9.32486,0.13866 -2.58825,-2.58826 -3.32776,-2.58826 -3.32776,0 0,2.02031 -4.25594,3.32776 -10.83233,3.32776 h -10.83233 z m -20.72163,-38.77206 c -1.86554,-3.48583 -7.05301,-6.20324 -13.9459,-7.30545 -8.31154,-1.32905 -13.38916,-4.5749 -20.92004,-13.37308 -5.46955,-6.3899 -9.38148,-13.56634 -8.69319,-15.94761 0.6883,-2.38127 2.66102,-16.80872 4.38387,-32.061 1.72284,-15.25227 4.21678,-32.72306 5.54212,-38.82396 1.32531,-6.10091 3.12943,-14.52433 4.00915,-18.7187 0.8797,-4.19438 2.596,-7.62614 3.81399,-7.62614 1.21802,0 5.06921,9.04737 8.55821,20.10527 3.489,11.0579 8.06188,25.09692 10.16195,31.19783 13.2506,38.49452 18.60528,74.61073 12.49292,84.26215 -1.95947,3.09399 -3.01033,2.76155 -5.40308,-1.70931 z m 18.05307,-37.23595 c -14.19019,-25.3744 -18.91182,-40.70912 -17.91422,-58.18096 l 0.84892,-14.86734 7.87025,22.18513 c 4.32865,12.20182 8.92292,25.92886 10.20949,30.50454 1.28657,4.57569 4.34634,13.78554 6.79946,20.46634 7.22816,19.68491 3.22389,19.62973 -7.8139,-0.1076 z m -98.87295,1.99017 c 0,-3.72305 -1.24791,-7.54045 -2.77314,-8.48309 -5.95789,-3.68218 -2.52913,-7.31993 5.28228,-5.60427 4.94027,1.08507 8.82777,0.51958 10.05264,-1.46231 1.47115,-2.38038 2.62516,-2.24053 4.38125,0.53095 3.72247,5.87484 2.92719,7.9222 -3.07732,7.9222 -4.06729,0 -5.54628,1.84877 -5.54628,6.93285 0,4.31378 -1.57146,6.93285 -4.15972,6.93285 -2.56143,0 -4.15971,-2.6009 -4.15971,-6.76918 z m -20.92218,-38.73512 c -3.99848,-2.92375 -5.41827,-7.51962 -5.64087,-18.2596 -0.26428,-12.74422 0.45077,-14.63689 6.38047,-16.89137 3.67286,-1.39641 9.71647,-2.53895 13.43026,-2.53895 6.1183,0 6.75232,1.13139 6.75232,12.04933 0,8.52746 -1.62109,13.51642 -5.54628,17.06865 -3.05045,2.76063 -5.54628,6.69777 -5.54628,8.74923 0,4.78533 -3.11978,4.72906 -9.82962,-0.1772 z m 162.74941,-63.90863 c -6.64514,-2.1316 -15.06855,-6.68127 -18.7187,-10.1104 -6.60595,-6.20598 -9.06232,-16.36055 -3.95758,-16.36055 4.02183,0 23.00398,8.94204 28.38484,13.37141 2.59547,2.13654 12.89075,4.54055 22.87841,5.34226 17.67212,1.41855 23.14649,4.41623 13.30636,7.28632 -13.0733,3.81312 -30.8513,4.01298 -41.89333,0.47096 z m -111.04625,-9.13883 c 0.15196,-5.7196 1.22816,-13.51906 2.39141,-17.33212 3.39147,-11.11703 6.66217,0.23349 4.40486,15.28632 -2.26044,15.07366 -7.18196,16.55512 -6.79627,2.0458 z m -68.70071,4.60652 c -5.32711,-1.55903 -11.0745,-6.25329 -14.55898,-11.89131 -7.30218,-11.81518 -7.18116,-13.03997 1.94682,-19.70549 5.8289,-4.25641 12.54317,-5.61497 29.72411,-6.01433 12.20689,-0.28372 25.31414,-0.9292 29.12721,-1.43441 6.15032,-0.81483 6.86454,0.0111 6.32761,7.31491 -1.56721,21.32001 -29.83514,38.38326 -52.56677,31.73063 z m 101.79952,-7.89064 c -1.57888,-2.95017 -2.8898,-8.25381 -2.91315,-11.78584 -0.0222,-3.53204 -1.17617,-8.21349 -2.5618,-10.40327 -2.0879,-3.2996 -3.26784,-3.36016 -6.89037,-0.35372 -3.63891,3.02001 -4.37108,2.95143 -4.37108,-0.40942 0,-5.68339 2.30562,-7.33762 8.11102,-5.81947 4.51251,1.18006 7.1892,7.02392 12.77733,27.89613 2.04921,7.65395 -0.26317,8.14161 -4.15195,0.87559 z m 98.34893,-8.26958 c -23.63129,-8.47101 -23.57169,-8.41801 -23.57169,-20.96242 0,-13.25742 4.28234,-18.52209 14.1804,-17.43321 5.07762,0.55859 6.81488,-0.7757 7.53079,-5.78397 0.83974,-5.87456 0.1406,-6.33654 -7.16144,-4.73275 -10.93593,2.40193 -21.64045,-5.86733 -18.87488,-14.58087 1.46267,-4.60838 4.10214,-6.06744 10.97626,-6.06744 12.31285,0 16.36388,-8.05999 14.65818,-29.1642 -1.08951,-13.48007 -2.53801,-17.12744 -8.53758,-21.49783 -6.2665,-4.56484 -7.22545,-7.28113 -7.22545,-20.46667 0,-8.36179 -1.32237,-17.67414 -2.93859,-20.69406 -2.69712,-5.03966 -2.46848,-5.19723 2.78274,-1.91779 6.72575,4.20031 13.63664,1.01369 18.47377,-8.51834 3.58182,-7.05834 7.48624,-3.82705 10.4705,8.6654 2.18698,9.15483 5.51641,9.66991 11.08801,1.71529 5.20111,-7.42561 11.95664,-5.20069 15.62634,5.14648 1.50143,4.23348 3.80633,9.56908 5.12205,11.85692 4.90227,8.52444 -6.97831,22.14451 -12.09486,13.86571 -2.99596,-4.84756 -6.93285,-2.99092 -6.93285,3.26954 0,3.32347 -1.43291,10.00535 -3.18426,14.84861 -2.5108,6.9435 -2.36765,10.6508 0.67695,17.52899 6.24378,14.10567 8.63295,11.6988 9.2114,-9.27965 0.132,-4.78272 1.73979,-8.30636 3.79632,-8.31942 1.96219,-0.0111 4.60755,-1.70534 5.87859,-3.76193 3.53143,-5.71394 12.61654,-2.61063 13.65164,4.66315 0.66395,4.6657 -0.71952,6.84031 -5.07657,7.97971 -4.69645,1.22814 -5.54852,2.83057 -3.94756,7.42386 1.12293,3.22173 1.96826,10.60141 1.87852,16.3993 -0.11841,7.65806 1.71206,12.41679 6.69217,17.39691 10.73694,10.73694 6.99894,18.33099 -7.22738,14.683 -7.75448,-1.98845 -6.66009,9.55611 1.52453,16.0823 l 7.86041,6.26769 -5.60729,7.51033 c -3.08398,4.13068 -7.41651,8.36548 -9.62779,9.41068 -2.2113,1.0452 -7.95683,3.94948 -12.76784,6.45401 -9.11645,4.74585 -17.87733,5.39163 -27.30354,2.01267 z M 409.73025,646.8923 c -3.81307,-0.68405 -8.14177,-2.40938 -9.61933,-3.83406 -3.43517,-3.31221 15.51417,0.0721 19.18667,3.42669 2.78223,2.54139 2.41521,2.55703 -9.56734,0.40737 z m 38.82397,-11.36829 c -8.53185,-3.86615 -16.63884,-10.24645 -16.63884,-13.09497 0,-1.61865 4.30624,-3.06509 9.56944,-3.21429 7.24829,-0.20549 10.63946,1.36184 13.98095,6.46159 6.22243,9.49664 2.86632,14.27845 -6.91155,9.84767 z m 22.75622,-17.91588 c -7.08887,-7.54577 -7.91778,-13.08703 -1.95767,-13.08703 2.28784,0 4.15971,1.87187 4.15971,4.15971 0,2.61987 2.64167,4.15971 7.13618,4.15971 5.28572,0 6.89544,1.25019 6.20773,4.82116 -1.40138,7.27678 -8.68303,7.25171 -15.54595,-0.0535 z m 138.08593,-10.15022 c 0,-1.43521 1.24791,-3.38073 2.77314,-4.32338 1.52523,-0.94264 2.77314,0.23156 2.77314,2.60947 0,2.37786 -1.24791,4.32338 -2.77314,4.32338 -1.52523,0 -2.77314,-1.17426 -2.77314,-2.60947 z m -27.04023,-52.67145 c -15.77984,-11.43086 -23.52849,-36.72739 -9.61506,-31.3896 19.84329,7.61272 34.25952,24.54396 30.10854,35.36121 -2.37453,6.18793 -7.96404,5.10466 -20.49348,-3.97161 z m 20.10738,-44.55214 c -0.94265,-1.52523 0.23155,-2.77314 2.60947,-2.77314 2.37785,0 4.32338,1.24791 4.32338,2.77314 0,1.52523 -1.17426,2.77314 -2.60947,2.77314 -1.43521,0 -3.38074,-1.24791 -4.32338,-2.77314 z M 271.41321,499.4239 c -2.10084,-1.33802 -8.57702,-1.79467 -14.39149,-1.01478 -14.76378,1.98025 -23.29865,-0.76469 -28.88439,-9.28963 -3.61421,-5.51597 -3.96598,-7.82508 -1.43077,-9.39191 4.33322,-2.6781 1.24289,-4.35291 -12.48271,-6.76507 -6.10091,-1.07218 -15.13974,-4.66784 -20.08633,-7.99036 -17.06006,-11.4589 -8.84119,-26.07202 16.45787,-29.26202 11.86637,-1.49627 14.563,-2.78575 13.90616,-6.64968 -1.42706,-8.39496 5.31142,-5.20413 19.54368,9.25441 14.03636,14.25949 32.49358,24.34671 60.06192,32.82497 27.55809,8.47511 25.46173,19.33947 -4.77365,24.73941 -8.67963,1.55016 -17.65301,3.52921 -19.94085,4.39792 -2.28784,0.86872 -5.87859,0.48475 -7.97944,-0.85326 z m 365.80181,-7.10989 c -1.93507,-2.3316 -8.43271,-5.7117 -14.43919,-7.51128 -10.00208,-2.99668 -21.69888,-14.38317 -21.69888,-21.12317 0,-1.4932 2.65791,-3.40997 5.90645,-4.25946 4.18609,-1.0947 5.3792,-2.91862 4.09624,-6.26198 -3.22361,-8.40056 6.23415,1.31458 10.94586,11.24379 2.31402,4.87645 9.12269,12.504 15.13034,16.95007 6.00764,4.44609 10.56486,9.25369 10.12715,10.6836 -1.38696,4.53071 -6.42332,4.67 -10.06797,0.27843 z m 66.46812,-36.83521 c -17.29749,-9.71731 -19.20128,-10.14653 -47.14338,-10.62878 l -29.11798,-0.50252 -0.64672,-20.17288 c -1.02021,-31.82204 10.76142,-63.68989 23.54634,-63.68989 2.14908,0 3.37539,-1.55989 2.72511,-3.46642 -0.67076,-1.96671 -5.86974,-3.48889 -12.01693,-3.51834 -13.64912,-0.0654 -17.76751,-2.66247 -17.76751,-11.20432 0,-8.12458 6.68915,-8.98905 16.48177,-2.13005 4.83026,3.38323 5.98167,3.57092 4.2532,0.69328 -1.30355,-2.17023 -4.63032,-5.5765 -7.39281,-7.5695 -6.0506,-4.36523 -6.27281,-8.54375 -1.0927,-20.54723 2.1615,-5.00873 5.37069,-13.01285 7.13152,-17.78689 3.88459,-10.5322 26.59278,-24.0339 38.17905,-22.70026 6.64829,0.76525 7.60877,2.07732 7.60877,10.39417 0,8.40638 -1.78127,10.75343 -15.24736,20.09051 -8.38604,5.8147 -15.66553,11.82673 -16.17665,13.36005 -0.51111,1.53335 3.58157,2.78789 9.09482,2.78789 6.53383,0 10.60355,1.50995 11.68821,4.33656 2.70057,7.03754 -3.99224,17.92128 -12.93817,21.03984 -4.57158,1.59367 -8.31196,3.62283 -8.31196,4.50924 0,0.88641 4.66051,5.88053 10.35668,11.09803 l 10.35668,9.48635 -7.73817,6.6561 c -4.92918,4.23991 -11.2054,6.65612 -17.28954,6.65612 -10.21544,0 -12.97555,4.00397 -4.32035,6.26735 2.87707,0.75235 6.98584,4.95363 9.13064,9.33614 4.28653,8.75877 6.40474,8.98786 23.86754,2.58151 10.79969,-3.96195 12.65253,-3.96262 20.30149,-0.008 6.55915,3.39186 7.73615,5.17327 5.33203,8.07004 -4.42643,5.33352 0.80369,6.43055 16.26059,3.41065 9.89395,-1.93304 15.12338,-1.4851 23.17619,1.98521 5.7196,2.46485 10.39927,6.16835 10.39927,8.23005 0,6.43604 -11.60101,18.85763 -21.4585,22.97635 -8.4961,3.5499 -9.25552,4.75794 -7.63346,12.14309 2.37481,10.81239 -1.02248,10.49791 -23.59771,-2.18427 z M 601.77023,443.0675 c -3.43176,-1.6551 -6.23957,-4.7944 -6.23957,-6.97628 0,-5.40774 5.58009,-3.13681 10.5002,4.2733 4.53419,6.82886 4.43059,6.89458 -4.26063,2.70298 z m -254.43564,-6.95005 c -11.211,-1.51951 -23.35594,-20.64142 -21.43269,-33.74526 1.15649,-7.87977 3.4359,-9.99032 18.30966,-16.95335 9.34379,-4.37421 19.17258,-8.6149 21.84173,-9.42374 7.56407,-2.29214 5.61802,-8.16629 -4.21972,-12.73723 -4.92399,-2.28784 -8.9527,-6.03158 -8.9527,-8.31942 0,-6.31269 17.65833,-6.96848 28.65877,-1.0643 7.9354,4.2591 9.02677,6.06319 7.69525,12.72081 -0.85338,4.26681 -0.2568,11.16314 1.3255,15.32512 2.01117,5.28982 1.99037,7.86285 -0.0691,8.54934 -1.62037,0.54013 -2.94616,2.89408 -2.94616,5.23101 0,6.16549 -24.79049,42.51321 -28.63766,41.98842 -1.7894,-0.24403 -6.99719,-0.95121 -11.57287,-1.5714 z m -55.7267,-48.97557 c -2.36336,-6.15884 0.60418,-12.79145 5.72312,-12.79145 5.4358,0 5.51686,9.35935 0.1198,13.83847 -3.34219,2.77376 -4.45322,2.57467 -5.84298,-1.04702 z m 272.03166,-15.05999 c -12.35345,-10.81854 -32.17714,-49.59587 -36.1323,-70.67875 -1.03691,-5.52712 -3.6266,-11.4945 -5.75491,-13.26082 -2.12827,-1.76633 -3.86961,-6.84159 -3.86961,-11.2784 0,-4.61237 -1.78133,-8.75045 -4.15971,-9.66313 -5.07374,-1.94697 -5.76139,-23.25017 -0.90718,-28.10439 2.48798,-2.48796 2.48798,-4.93061 0,-10.3911 -4.46703,-9.80411 -4.14085,-11.75331 2.56754,-15.34354 4.9337,-2.64043 7.51444,-1.75319 16.94539,5.82573 9.82055,7.892 10.90149,8.23541 9.21703,2.92813 -2.1773,-6.86009 -12.76449,-17.87858 -18.45292,-19.20469 -2.10298,-0.49025 -4.91062,-1.95167 -6.23921,-3.24758 -3.11132,-3.03478 20.84193,-0.0446 24.85591,3.10283 1.66555,1.30601 3.8494,1.55345 4.853,0.54986 3.29776,-3.29775 1.90914,-9.93313 -2.79927,-13.376 -2.54319,-1.85961 -4.92279,-6.36488 -5.28801,-10.01171 -2.05865,-20.55529 -4.14843,-31.25515 -6.70635,-34.33725 -2.05933,-2.48134 -1.35659,-5.34251 2.47215,-10.06521 2.94213,-3.6291 6.23923,-5.7119 7.32689,-4.62844 3.37957,3.36657 7.46207,24.91205 8.41601,44.41579 0.50179,10.25988 2.40162,21.437 4.2218,24.83805 3.06421,5.72551 13.59346,44.26798 13.59346,49.759 0,1.33209 -1.24791,2.42198 -2.77314,2.42198 -1.52523,0 -2.77314,-3.11978 -2.77314,-6.93285 0,-5.52277 -1.39237,-6.93285 -6.84583,-6.93285 -4.94584,0 -6.40279,1.15448 -5.24958,4.15971 1.91485,4.98998 -3.4684,5.67006 -5.4878,0.69329 -1.07307,-2.64463 -2.06363,-2.52299 -4.17829,0.5131 -4.14327,5.94867 7.11926,23.60681 19.93181,31.25041 5.87013,3.50194 12.78678,7.61508 15.37035,9.14031 8.75919,5.17102 19.73702,14.65261 19.73702,17.04696 0,1.31067 3.85464,6.02119 8.56588,10.46783 11.85226,11.18663 15.03951,20.39565 9.26669,26.77454 -4.87654,5.38851 -3.29698,10.87947 3.12966,10.87947 4.60488,0 4.9959,2.44425 1.32074,8.25608 -1.77307,2.80387 -1.1817,5.65299 1.87422,9.02971 2.45553,2.71335 3.53828,5.85967 2.40609,6.99184 -1.13216,1.13216 -3.82469,-0.43539 -5.98338,-3.48343 -8.2676,-11.6737 -16.02812,-18.23282 -19.84124,-16.7696 -2.18097,0.83694 -7.59233,1.52168 -12.02525,1.52168 -7.25875,0 -8.23615,1.10252 -9.83362,11.09256 -1.98784,12.4313 -2.90009,12.94378 -10.7709,6.05088 z m -284.13298,-7.65572 c -5.27562,-2.28851 -15.99817,-9.10317 -23.82785,-15.14373 -7.82969,-6.04057 -15.63649,-10.98283 -17.34849,-10.98283 -1.71197,0 -4.59759,-2.80781 -6.4125,-6.23957 -1.81488,-3.43176 -8.09835,-11.7189 -13.96326,-18.41584 -12.29832,-14.04307 -14.56881,-27.53224 -5.05305,-30.02066 5.51566,-1.4424 5.49664,-1.66131 -1.12767,-12.96481 -3.70594,-6.32371 -7.16657,-17.08986 -7.69028,-23.92477 -0.92257,-12.04061 -0.69342,-12.44954 7.36724,-13.14808 8.25622,-0.71548 13.01063,1.28568 27.70081,11.65946 7.47938,5.28173 7.71441,5.28479 11.46974,0.14906 6.97095,-9.53333 9.62452,-1.39085 7.13105,21.88159 -1.56294,14.58722 -1.31877,23.46538 0.75773,27.55398 1.68502,3.31773 4.69748,11.64786 6.69442,18.51138 4.68957,16.11833 13.08869,30.07377 23.49407,39.03628 5.58114,4.80724 7.7128,8.66365 6.51469,11.78585 -2.14336,5.58546 -3.38814,5.60629 -15.70665,0.26261 z m 438.04228,-78.32846 c 0,-1.63826 4.45003,-6.37287 9.88899,-10.52135 7.70459,-5.87659 9.54171,-8.92625 8.31692,-13.80626 -0.95515,-3.80562 0.13894,-7.97462 2.78823,-10.62384 5.92856,-5.92857 8.63739,-5.49753 13.66415,2.17428 5.36461,8.18742 2.8862,15.28638 -8.73051,25.00704 -9.3967,7.863 -25.92778,12.81708 -25.92778,7.77013 z m -330.00372,-50.4043 c 0,-1.52523 1.32157,-2.77314 2.93681,-2.77314 1.61524,0 2.16554,1.24791 1.2229,2.77314 -0.94265,1.52523 -2.26422,2.77314 -2.93681,2.77314 -0.6726,0 -1.2229,-1.24791 -1.2229,-2.77314 z m 54.07624,-2.77314 c -0.9891,-1.60038 1.58041,-2.75518 6.07589,-2.73068 6.04853,0.033 6.85998,0.64338 3.6301,2.73068 -5.32801,3.44322 -7.57797,3.44322 -9.70599,0 z M 391.42553,224.883 c -7.82869,-4.77384 -8.5585,-6.43399 -8.14976,-18.53869 0.47171,-13.97025 -5.12582,-23.34057 -13.94294,-23.34057 -3.27466,0 -3.834,-1.53875 -2.26807,-6.23957 1.1432,-3.43176 1.88097,-8.42341 1.63948,-11.09256 -0.55864,-6.17495 -0.50241,-7.63937 1.23283,-32.10531 1.2021,-16.94936 0.61966,-21.22719 -3.51185,-25.79244 -3.23232,-3.57166 -4.71542,-9.000408 -4.26914,-15.626783 0.8069,-11.98147 0.006,-10.840982 9.25533,-13.162672 6.50826,-1.633474 8.3032,-0.475306 14.51592,9.366296 9.3147,14.755439 13.14547,32.540579 13.21124,61.336129 0.0402,17.56629 1.3896,26.15092 5.32271,33.86049 2.89794,5.68042 5.26897,12.91747 5.26897,16.08235 0,8.33024 8.10165,19.4249 14.18464,19.4249 6.78377,0 6.70804,4.5587 -0.13671,8.22185 -8.32614,4.456 -22.88673,3.37883 -32.35274,-2.39342 z M 521.87797,102.31655 c -1.03311,-1.67159 0.0785,-4.996151 2.47031,-7.387916 3.5824,-3.582412 5.10613,-3.72001 8.64754,-0.7809 2.36441,1.962269 4.29889,5.286832 4.29889,7.387916 0,4.56022 -12.68392,5.20269 -15.41674,0.7809 z"
     style="fill:#251a1d;stroke-width:2.77314043" />
</svg>
