<?xml version="1.0" encoding="UTF-8" standalone="no"?>
<!-- Created with Inkscape (http://www.inkscape.org/) -->

<svg
   xmlns:dc="http://purl.org/dc/elements/1.1/"
   xmlns:cc="http://creativecommons.org/ns#"
   xmlns:rdf="http://www.w3.org/1999/02/22-rdf-syntax-ns#"
   xmlns:svg="http://www.w3.org/2000/svg"
   xmlns="http://www.w3.org/2000/svg"
   xmlns:sodipodi="http://sodipodi.sourceforge.net/DTD/sodipodi-0.dtd"
   xmlns:inkscape="http://www.inkscape.org/namespaces/inkscape"
   width="1600mm"
   height="900mm"
   viewBox="0 0 1600 900"
   version="1.1"
   id="svg8"
   inkscape:version="0.92.2 (5c3e80d, 2017-08-06)"
   sodipodi:docname="chophead.svg">
  <defs
     id="defs2" />
  <sodipodi:namedview
     id="base"
     pagecolor="#ffffff"
     bordercolor="#666666"
     borderopacity="1.0"
     inkscape:pageopacity="0.0"
     inkscape:pageshadow="2"
     inkscape:zoom="0.12374369"
     inkscape:cx="3429.2752"
     inkscape:cy="119.24508"
     inkscape:document-units="mm"
     inkscape:current-layer="layer1"
     showgrid="false"
     inkscape:window-width="1704"
     inkscape:window-height="1372"
     inkscape:window-x="0"
     inkscape:window-y="0"
     inkscape:window-maximized="0" />
  <metadata
     id="metadata5">
    <rdf:RDF>
      <cc:Work
         rdf:about="">
        <dc:format>image/svg+xml</dc:format>
        <dc:type
           rdf:resource="http://purl.org/dc/dcmitype/StillImage" />
        <dc:title></dc:title>
      </cc:Work>
    </rdf:RDF>
  </metadata>
  <g
     inkscape:label="Layer 1"
     inkscape:groupmode="layer"
     id="layer1"
     transform="translate(0,603)">
    <g
       id="g2352"
       transform="matrix(1.1270026,0,0,1.1270026,-51.097195,-32.637954)">
      <path
         inkscape:connector-curvature="0"
         id="path2301"
         d="m 922.39225,142.33021 v 4.42402 H 748.37654 c -3.67054,3.71718 -8.57753,6.51674 -13.67103,7.36804 -3.18534,0.53237 -7.90993,0.7547 -10.49909,0.494 -8.9245,-0.89858 -13.98193,2.41014 -14.70813,9.62269 -0.57277,5.68859 0.62775,8.62528 4.59557,11.24632 3.32262,2.1948 3.65977,2.24571 7.79849,1.17824 2.37924,-0.61367 7.06713,-2.22721 10.41747,-3.58584 11.02381,-4.47048 13.91319,-3.77584 21.39042,5.14284 4.50117,5.36884 8.53837,15.95072 7.38249,19.34972 -0.40627,1.19462 -3.66223,4.16253 -7.31843,6.67041 -9.4778,6.50137 -11.16039,11.28135 -5.66166,16.08584 1.7214,1.50411 2.48896,1.65309 4.70823,0.91311 3.44094,-1.14724 5.12739,-2.92137 7.03628,-7.40109 0.85473,-2.00615 2.31359,-4.85518 3.24165,-6.33089 1.62462,-2.58321 1.91053,-2.65981 7.68016,-2.07532 4.9199,0.49864 6.95034,1.23439 11.34039,4.11136 6.00982,3.93857 9.66507,8.28461 11.34351,13.48603 1.08614,3.36621 1.01317,3.89464 -1.68519,12.2287 -3.41302,10.54158 -3.56814,15.65166 -0.57928,19.06084 2.62359,2.99244 7.24038,3.52267 11.39153,1.30795 4.32202,-2.3059 4.93549,-4.87405 3.07372,-12.86124 -1.93008,-8.28011 -1.19359,-9.34284 4.96869,-7.17167 7.99891,2.81832 9.33524,0.84524 10.13944,-14.96962 0.63548,-12.49751 2.0523,-16.34442 6.51124,-17.6785 3.1379,-0.93882 5.72458,1.55636 8.14575,7.85844 0.98076,2.55275 3.57809,7.12721 5.77226,10.16579 4.01619,5.56168 4.10723,5.90109 4.3429,16.23518 0.24865,10.90557 10.67493,14.12386 15.41092,4.75681 1.34508,-2.66041 1.41493,-3.51194 0.54673,-6.68073 -0.54724,-1.99739 -1.51053,-4.39346 -2.14093,-5.32474 -3.65016,-5.39186 -4.11919,-20.48864 -0.76896,-24.74785 3.94415,-5.01423 5.94183,-5.01716 13.89528,-0.0217 5.55522,3.48917 6.80654,3.65805 9.63766,1.30069 1.67103,-1.39144 2.31884,-2.87266 2.63652,-6.02805 0.36489,-3.62384 0.008,-4.73236 -2.66649,-8.29096 -3.2793,-4.36268 -3.0529,-4.29934 -11.71919,-3.28043 -2.57056,0.30223 -2.94082,0.0469 -3.56206,-2.45359 -0.15865,-0.63855 -0.24265,-1.39065 -0.26252,-2.22364 0.0102,-0.69786 0.0414,-1.46973 0.0899,-2.3182 0.51366,-5.65981 3.07713,-13.29118 5.94331,-16.50751 3.0027,-3.3695 7.77153,-2.69018 10.78537,1.53633 3.43281,4.81399 6.08576,6.38831 9.31211,5.52627 3.97722,-1.06259 5.56337,-4.76551 4.87773,-11.38793 -1.19446,-11.53832 2.51931,-13.80339 13.94955,-8.50799 6.38148,2.95645 9.11365,3.30991 11.40187,1.47587 2.58641,-2.07306 2.90343,-7.73195 0.59481,-10.61175 -0.32745,-0.40844 -0.68241,-0.76301 -1.10331,-1.08625 z m -206.32229,18.12396 c 0.50564,0.0509 0.63569,0.4917 0.28837,0.97978 -0.34722,0.4881 -0.80386,0.87024 -1.01442,0.84905 -0.21068,-0.0212 -0.33993,-0.46199 -0.28784,-0.97978 0.0521,-0.51782 0.50816,-0.89996 1.01389,-0.84905 z"
         style="fill:#d2191f;fill-opacity:1;stroke-width:0.9086352" />
      <rect
         y="-468.3772"
         x="643.44873"
         height="637.81696"
         width="18.554667"
         id="rect4158-2"
         style="fill:#000000;fill-opacity:1;stroke-width:0.40588352" />
      <path
         id="rect4158-9"
         transform="matrix(0.26458333,0,0,0.26458333,0,-603)"
         d="m 2527.4824,2372.0215 v 267.3613 h 359.7031 a 164.36227,170.93677 0 0 1 -0.2988,-8.7656 164.36227,170.93677 0 0 1 164.3633,-170.9356 164.36227,170.93677 0 0 1 164.3613,170.9356 164.36227,170.93677 0 0 1 -0.4218,8.7656 h 344.5703 v -267.3613 z m -0.2617,277.0058 v 267.3614 H 3559.5 V 2649.0273 H 3214.5957 A 164.36227,170.93677 0 0 1 3051.25,2801.5547 164.36227,170.93677 0 0 1 2888.0371,2649.0273 Z"
         style="fill:#000000;fill-opacity:1;stroke-width:1.53404796"
         inkscape:connector-curvature="0" />
      <path
         inkscape:connector-curvature="0"
         id="rect4158-9-8"
         d="m 668.08114,-403.8994 v 216.82026 l 273.12311,-171.41601 v -45.40425 z"
         style="fill:#000000;fill-opacity:1;stroke-width:0.40588352" />
      <rect
         y="-469.18909"
         x="945.89001"
         height="637.81696"
         width="18.554667"
         id="rect4158-2-8"
         style="fill:#000000;fill-opacity:1;stroke-width:0.40588352" />
      <path
         transform="matrix(0.26458333,0,0,0.26458333,0,-603)"
         id="path2201"
         d="m 2502.8574,2327.9824 c -114.512,0.064 -223.8072,1.0508 -227.4492,3.0215 -3.0212,1.6347 -9.297,3.7697 -13.9473,4.7441 -12.1773,2.5518 -27.2024,18.9813 -31.3105,34.2383 -5.8083,21.5711 4.3559,45.8434 23.9492,57.1895 4.5307,2.6238 63.3406,4.1138 207.1973,5.2461 l 41.5605,0.3281 z m 0,148.9121 -392.2519,0.5782 -553.4336,0.8164 -11.9317,9.6601 c -32.0145,25.9122 -32.9618,75.1694 -1.9004,98.8633 l 11.17,8.5195 310.2539,1.5821 310.2519,1.582 v 26.8887 26.8867 l -308.4238,1.582 c -303.8253,1.5581 -308.5896,1.6788 -319.4961,8.0703 -16.1644,9.4729 -26.357,29.7842 -26.1465,52.1016 0.094,9.941 1.9178,21.4665 4.0547,25.6113 4.8966,9.4982 18.5593,24.3423 26.8379,29.1602 4.7174,2.7454 146.728,4.0847 558.3262,5.2636 l 392.6894,1.125 z m 0,341.125 -41.5605,0.3282 c -143.8566,1.1326 -202.6663,2.6204 -207.1973,5.2441 -17.4776,10.1211 -29.0714,34.2588 -25.2148,52.4961 4.5333,21.4355 17.7469,35.6062 37.8672,40.6055 4.8632,1.2081 108.7037,1.9916 236.1054,1.8593 z"
         style="fill:#000000;stroke-width:3.16332626"
         inkscape:connector-curvature="0" />
      <circle
         r="34.950733"
         cy="93.239609"
         cx="807.65094"
         id="path2259"
         style="opacity:1;fill:#000000;fill-opacity:1;stroke:#000000;stroke-width:23.08067322;stroke-miterlimit:4;stroke-dasharray:none;stroke-opacity:0" />
    </g>
  </g>
</svg>
