<?xml version="1.0" encoding="UTF-8" standalone="no"?>
<svg
   xmlns:dc="http://purl.org/dc/elements/1.1/"
   xmlns:cc="http://creativecommons.org/ns#"
   xmlns:rdf="http://www.w3.org/1999/02/22-rdf-syntax-ns#"
   xmlns:svg="http://www.w3.org/2000/svg"
   xmlns="http://www.w3.org/2000/svg"
   xmlns:sodipodi="http://sodipodi.sourceforge.net/DTD/sodipodi-0.dtd"
   xmlns:inkscape="http://www.inkscape.org/namespaces/inkscape"
   width="600"
   height="600"
   viewBox="0 0 158.75 158.75"
   version="1.1"
   id="svg8"
   inkscape:version="0.92.3 (2405546, 2018-03-11)"
   sodipodi:docname="github logo.svg">
  <defs
     id="defs2" />
  <sodipodi:namedview
     id="base"
     pagecolor="#ffffff"
     bordercolor="#666666"
     borderopacity="1.0"
     inkscape:pageopacity="0.0"
     inkscape:pageshadow="2"
     inkscape:zoom="0.35"
     inkscape:cx="-87.142857"
     inkscape:cy="788.57143"
     inkscape:document-units="px"
     inkscape:current-layer="layer1"
     showgrid="false"
     units="px"
     inkscape:window-width="3440"
     inkscape:window-height="1388"
     inkscape:window-x="-8"
     inkscape:window-y="-8"
     inkscape:window-maximized="1" />
  <metadata
     id="metadata5">
    <rdf:RDF>
      <cc:Work
         rdf:about="">
        <dc:format>image/svg+xml</dc:format>
        <dc:type
           rdf:resource="http://purl.org/dc/dcmitype/StillImage" />
        <dc:title></dc:title>
      </cc:Work>
    </rdf:RDF>
  </metadata>
  <g
     inkscape:label="Layer 1"
     inkscape:groupmode="layer"
     id="layer1"
     transform="translate(0,-138.25001)">
    <path
       inkscape:connector-curvature="0"
       id="path840"
       d="M 52.86246,293.50474 C 36.725786,287.49258 22.564741,275.41934 13.406188,259.86559 9.7032602,253.577 6.9992072,246.90437 4.9666936,239.03994 1.7936417,226.76239 1.878682,211.92901 5.1943,199.34214 c 2.8783207,-10.92681 7.809869,-20.76751 14.978462,-29.88895 2.22292,-2.82848 8.079116,-8.7413 11.157365,-11.26521 17.896907,-14.67409 40.788617,-20.33733 63.561229,-15.72459 7.034044,1.42479 14.554594,4.23253 21.078704,7.86956 21.96159,12.24305 36.84336,34.80585 39.73235,60.23968 0.47879,4.21514 0.54233,13.13479 0.12205,17.1331 -1.85226,17.62138 -9.13294,33.71499 -20.97655,46.36775 -8.03262,8.58141 -18.31777,15.5223 -28.72587,19.38557 -3.8055,1.41253 -6.07461,1.14856 -7.192043,-0.83662 -0.445923,-0.79222 -0.481177,-1.73783 -0.535475,-14.36544 -0.05597,-13.02013 -0.07907,-13.59874 -0.62843,-15.72822 -0.6731,-2.60926 -2.024256,-5.3625 -3.44231,-7.01442 -1.164788,-1.35687 -1.253539,-1.28062 1.98139,-1.70215 5.681978,-0.74036 11.143368,-2.42076 15.561668,-4.78814 9.94103,-5.32651 15.0393,-14.3207 16.20812,-28.59378 0.82152,-10.03212 -1.20173,-17.88049 -6.26643,-24.30818 l -1.39025,-1.76437 0.36764,-1.05216 c 0.65777,-1.88247 1.07836,-4.94551 1.08555,-7.90542 0.009,-3.59 -0.28014,-5.56321 -1.32245,-9.0344 -0.70676,-2.35376 -0.89775,-2.73009 -1.45876,-2.87446 -0.88084,-0.2267 -4.65527,0.32348 -6.84754,0.99815 -3.07521,0.94638 -8.1031,3.52964 -12.16925,6.2524 l -1.372853,0.91928 -2.868591,-0.68712 c -10.168991,-2.43581 -22.653287,-2.43863 -32.720919,-0.007 -2.335405,0.56398 -3.052753,0.64997 -3.391991,0.40657 -0.236613,-0.16976 -1.702652,-1.10868 -3.257849,-2.08648 -5.18321,-3.25884 -10.732979,-5.43351 -14.740976,-5.77625 -2.449982,-0.20951 -2.609529,-0.0835 -3.472796,2.74084 -0.956389,3.12914 -1.301923,5.67111 -1.279432,9.41245 0.0202,3.3689 0.203707,4.70084 1.025001,7.44186 l 0.413309,1.37939 -0.896988,1.01807 c -2.180822,2.47523 -4.629745,6.99517 -5.59412,10.32502 -1.727426,5.96454 -1.727426,15.35402 -2e-5,22.86122 2.144028,9.31778 7.668216,16.6356 15.677546,20.76785 3.602596,1.85868 9.205829,3.55991 14.266681,4.3316 0.989675,0.1509 2.179248,0.34008 2.643506,0.42038 l 0.844107,0.14603 -0.926096,1.10663 c -1.256961,1.502 -2.861911,4.92604 -3.360378,7.16911 -0.225518,1.01481 -0.44779,1.98078 -0.493948,2.14661 -0.08443,0.3032 -3.06656,1.37798 -5.311719,1.91436 -1.752258,0.41863 -5.414926,0.35304 -7.239468,-0.12963 -3.870444,-1.0239 -6.772151,-3.39416 -9.767718,-7.97875 -2.811858,-4.30344 -5.919495,-6.8336 -9.600922,-7.81684 -1.745003,-0.46606 -3.293303,-0.50157 -4.413341,-0.1012 -1.836327,0.65641 -1.406472,1.99068 1.26484,3.92607 3.946274,2.85912 6.754215,6.47245 8.623634,11.09711 2.310776,5.71654 6.579383,9.18577 12.956704,10.53033 2.296389,0.48416 3.216879,0.54592 6.169378,0.41389 1.908649,-0.0854 4.250119,-0.31624 5.203263,-0.51309 0.953135,-0.19685 1.791792,-0.29759 1.863657,-0.2239 0.0719,0.0738 0.130256,3.64299 0.129722,7.93176 -9.59e-4,7.31601 -0.03254,7.85083 -0.511767,8.65682 -1.254064,2.10907 -3.340198,2.41011 -7.070466,1.02031 z m -1.675049,-23.3121 c -0.739344,-0.61389 -0.513021,-1.45662 0.507637,-1.89013 1.562339,-0.66357 3.077859,1.0058 1.767483,1.94693 -0.769316,0.55255 -1.565176,0.53266 -2.27512,-0.0567 z m 5.710852,-0.62944 c -0.812504,-0.83313 0.09395,-2.05596 1.52403,-2.05596 0.979465,0 1.509254,0.38336 1.509254,1.09211 0,1.00939 -2.281776,1.73445 -3.033284,0.96385 z m -11.833528,-0.36814 c -0.870135,-0.62493 -0.68074,-1.79001 0.309858,-1.90609 1.152402,-0.13505 1.952846,0.17482 2.264726,0.87669 0.570585,1.2841 -1.222023,2.00084 -2.574584,1.0294 z m -5.021222,-3.12839 c -0.971303,-0.92304 -0.873885,-2.07963 0.185645,-2.20389 1.038067,-0.12177 2.01484,0.8599 1.913254,1.92285 -0.104169,1.09003 -1.106387,1.22422 -2.098899,0.28104 z m -3.661005,-4.49517 c -0.877801,-0.90008 -0.77542,-2.06923 0.191249,-2.18409 1.161708,-0.13804 2.237124,1.73135 1.456488,2.5318 -0.469359,0.48129 -0.935142,0.383 -1.647737,-0.34771 z m -3.068096,-4.46394 c -0.711295,-0.72936 -0.797025,-1.25582 -0.276642,-1.69867 0.534385,-0.45476 1.65423,0.0812 1.851213,0.88602 0.362167,1.47965 -0.493444,1.92123 -1.574571,0.81265 z m -3.324538,-3.207 c -0.542613,-0.55641 -0.399842,-1.26495 0.274913,-1.36433 0.73091,-0.10764 1.77882,0.79699 1.569896,1.35527 -0.20934,0.55938 -1.302875,0.56475 -1.844809,0.009 z"
       style="fill:#d0d0d0;stroke-width:0.26030141" />
    <path
       inkscape:connector-curvature="0"
       id="path828"
       d="m 486.74829,69.91851 c 0.25466,-0.0665 0.67138,-0.0665 0.92604,0 0.25466,0.0666 0.0463,0.121 -0.46302,0.121 -0.50932,0 -0.71768,-0.0545 -0.46302,-0.121 z m 47.36041,0 c 0.25467,-0.0665 0.67138,-0.0665 0.92605,0 0.25466,0.0666 0.0463,0.121 -0.46303,0.121 -0.50932,0 -0.71768,-0.0545 -0.46302,-0.121 z m -3.39072,-9.6072 c 0,-3.71078 0.0372,-5.22883 0.0827,-3.37344 0.0455,1.85539 0.0455,4.89149 0,6.74688 -0.0455,1.85539 -0.0827,0.33734 -0.0827,-3.37344 z m -72.2391,-6.41615 -0.50403,-0.59531 0.59531,0.50403 c 0.55945,0.47366 0.71576,0.6866 0.50403,0.6866 -0.0502,0 -0.3181,-0.2679 -0.59531,-0.59532 z m 105.19701,-0.29833 c 0,-0.0549 0.20836,-0.2633 0.46302,-0.46302 0.41965,-0.32911 0.42901,-0.31975 0.0999,0.0999 -0.34565,0.44073 -0.56292,0.58089 -0.56292,0.36313 z M 480.1337,52.45601 c 0.25466,-0.0666 0.67138,-0.0666 0.92604,0 0.25467,0.0665 0.0463,0.121 -0.46302,0.121 -0.50932,0 -0.71768,-0.0545 -0.46302,-0.121 z m 4.76754,-10e-4 c 0.25743,-0.0671 0.61462,-0.0627 0.79375,0.01 0.17913,0.0725 -0.0315,0.12737 -0.46806,0.12197 -0.43656,-0.005 -0.58312,-0.0647 -0.32569,-0.13177 z m 2.78962,-0.26197 c 0.191,-0.0764 0.41921,-0.067 0.50712,0.0209 0.0879,0.0879 -0.0683,0.15046 -0.34726,0.13897 -0.30823,-0.0127 -0.37092,-0.0754 -0.15986,-0.15985 z m 81.01211,-3.65563 c 0.34178,-0.3638 0.68094,-0.66146 0.7537,-0.66146 0.0728,0 -0.14734,0.29766 -0.48911,0.66146 -0.34178,0.3638 -0.68094,0.66146 -0.7537,0.66146 -0.0728,0 0.14734,-0.29766 0.48911,-0.66146 z M 450.13589,45.2962 c -0.32911,-0.41964 -0.31975,-0.429 0.0999,-0.0999 0.25466,0.19972 0.46302,0.40808 0.46302,0.46302 0,0.21776 -0.21727,0.0776 -0.56292,-0.36313 z m 26.70706,-0.24688 c 0.19099,-0.0764 0.4192,-0.067 0.50712,0.0209 0.0879,0.0879 -0.0684,0.15046 -0.34727,0.13897 -0.30822,-0.0127 -0.37092,-0.0754 -0.15985,-0.15985 z m 5.94162,-1.06095 c 0.25743,-0.0671 0.61462,-0.0627 0.79375,0.01 0.17913,0.0725 -0.0315,0.12736 -0.46805,0.12197 -0.43657,-0.005 -0.58313,-0.0647 -0.3257,-0.13178 z m 6.21268,-0.78562 c 0.1819,-0.0734 0.47955,-0.0734 0.66145,0 0.1819,0.0734 0.0331,0.13345 -0.33073,0.13345 -0.3638,0 -0.51263,-0.0601 -0.33072,-0.13345 z m 41.67245,-0.75082 c 0.003,-0.58208 0.0571,-0.78905 0.1204,-0.45993 0.0633,0.32912 0.0609,0.80537 -0.005,1.05833 -0.0662,0.25297 -0.118,-0.0163 -0.11507,-0.5984 z m -54.63704,0.48623 c 0.1819,-0.0734 0.47956,-0.0734 0.66146,0 0.1819,0.0734 0.0331,0.13346 -0.33073,0.13346 -0.3638,0 -0.51263,-0.0601 -0.33073,-0.13346 z m 6.0885,-0.54106 c 0.32912,-0.0633 0.80537,-0.0609 1.05834,0.005 0.25296,0.0662 -0.0163,0.118 -0.5984,0.11507 -0.58208,-0.003 -0.78905,-0.0571 -0.45994,-0.12041 z m -2.63238,-0.2582 c 0.191,-0.0764 0.4192,-0.067 0.50712,0.0209 0.0879,0.0879 -0.0684,0.15045 -0.34726,0.13896 -0.30823,-0.0127 -0.37092,-0.0754 -0.15986,-0.15985 z m 5.82083,0 c 0.191,-0.0764 0.41921,-0.067 0.50712,0.0209 0.0879,0.0879 -0.0684,0.15045 -0.34726,0.13896 -0.30823,-0.0127 -0.37092,-0.0754 -0.15986,-0.15985 z m -18.62865,-5.17707 -0.50403,-0.59531 0.59532,0.50403 c 0.32742,0.27721 0.59531,0.5451 0.59531,0.59531 0,0.21173 -0.21294,0.0554 -0.6866,-0.50403 z m -0.16842,-1.83051 c 0.15375,-0.15375 0.43572,-0.22748 0.62661,-0.16386 0.19816,0.0661 0.0782,0.18599 -0.27955,0.27955 -0.44009,0.11509 -0.5434,0.0806 -0.34706,-0.11569 z m -3.35743,-3.54935 c 0.0127,-0.30823 0.0754,-0.37092 0.15985,-0.15985 0.0764,0.19099 0.067,0.4192 -0.0209,0.50711 -0.0879,0.0879 -0.15045,-0.0684 -0.13896,-0.34726 z m 32.47325,-1.6139 c 0.191,-0.0764 0.41921,-0.067 0.50712,0.0209 0.0879,0.0879 -0.0683,0.15046 -0.34726,0.13897 -0.30823,-0.0127 -0.37092,-0.0754 -0.15986,-0.15985 z m -2.1332,-0.25907 c 0.1819,-0.0734 0.47956,-0.0734 0.66146,0 0.1819,0.0734 0.0331,0.13345 -0.33073,0.13345 -0.3638,0 -0.51263,-0.0601 -0.33073,-0.13345 z m 33.86667,0 c 0.1819,-0.0734 0.47956,-0.0734 0.66146,0 0.1819,0.0734 0.0331,0.13345 -0.33073,0.13345 -0.3638,0 -0.51263,-0.0601 -0.33073,-0.13345 z M 491.9242,29.4389 c 0.19099,-0.0764 0.4192,-0.067 0.50712,0.0209 0.0879,0.0879 -0.0684,0.15045 -0.34727,0.13896 -0.30822,-0.0127 -0.37092,-0.0754 -0.15985,-0.15985 z m 37.30625,0 c 0.19099,-0.0764 0.4192,-0.067 0.50712,0.0209 0.0879,0.0879 -0.0684,0.15045 -0.34727,0.13896 -0.30822,-0.0127 -0.37092,-0.0754 -0.15985,-0.15985 z M 490.3367,29.17432 c 0.19099,-0.0764 0.4192,-0.067 0.50712,0.0209 0.0879,0.0879 -0.0684,0.15046 -0.34727,0.13897 -0.30822,-0.0127 -0.37092,-0.0754 -0.15985,-0.15985 z m -37.76492,-1.82568 c 0.0127,-0.30823 0.0754,-0.37092 0.15985,-0.15986 0.0764,0.191 0.067,0.4192 -0.0209,0.50712 -0.0879,0.0879 -0.15045,-0.0683 -0.13896,-0.34726 z m 2.04617,-1.6139 c 0.19099,-0.0764 0.4192,-0.067 0.50712,0.0209 0.0879,0.0879 -0.0684,0.15045 -0.34727,0.13897 -0.30822,-0.0127 -0.37092,-0.0754 -0.15985,-0.15985 z m 16.94919,-4.7802 c -0.32911,-0.41965 -0.31975,-0.42901 0.0999,-0.0999 0.25466,0.19972 0.46302,0.40808 0.46302,0.46302 0,0.21777 -0.21727,0.0776 -0.56292,-0.36312 z m 80.86396,-2.18281 c 0.26339,-0.29105 0.53842,-0.52917 0.61118,-0.52917 0.0728,0 -0.0832,0.23812 -0.3466,0.52917 -0.26339,0.29104 -0.53842,0.52916 -0.61118,0.52916 -0.0728,0 0.0832,-0.23812 0.3466,-0.52916 z m -84.03896,-0.99219 c -0.32911,-0.41965 -0.31975,-0.42901 0.0999,-0.0999 0.25466,0.19972 0.46302,0.40808 0.46302,0.46302 0,0.21777 -0.21727,0.0776 -0.56292,-0.36312 z M 433.2572,8.8278 c 0.0127,-0.30822 0.0754,-0.37092 0.15985,-0.15985 0.0764,0.19099 0.067,0.4192 -0.0209,0.50712 -0.0879,0.0879 -0.15046,-0.0683 -0.13897,-0.34727 z m -0.26459,-1.5875 c 0.0127,-0.30822 0.0754,-0.37092 0.15985,-0.15985 0.0764,0.19099 0.067,0.4192 -0.0209,0.50712 -0.0879,0.0879 -0.15045,-0.0684 -0.13896,-0.34727 z M 588.8322,6.44655 c 0.0127,-0.30822 0.0754,-0.37092 0.15985,-0.15985 0.0764,0.19099 0.067,0.4192 -0.0209,0.50712 -0.0879,0.0879 -0.15045,-0.0684 -0.13896,-0.34727 z M 432.74892,5.27798 c 0,-0.36381 0.0601,-0.51263 0.13345,-0.33073 0.0734,0.1819 0.0734,0.47955 0,0.66145 -0.0734,0.18191 -0.13345,0.0331 -0.13345,-0.33072 z M 589.11767,4.21964 c 0,-0.3638 0.06,-0.51263 0.13345,-0.33073 0.0734,0.1819 0.0734,0.47956 0,0.66146 -0.0734,0.1819 -0.13345,0.0331 -0.13345,-0.33073 z M 432.46345,3.00697 c 0.0127,-0.30823 0.0754,-0.37092 0.15985,-0.15985 0.0764,0.19099 0.067,0.4192 -0.0209,0.50711 -0.0879,0.0879 -0.15046,-0.0683 -0.13897,-0.34726 z M 560.52178,1.68405 c 0.0127,-0.30822 0.0754,-0.37092 0.15985,-0.15985 0.0764,0.19099 0.067,0.4192 -0.0209,0.50712 -0.0879,0.0879 -0.15046,-0.0683 -0.13897,-0.34727 z m 28.86047,-0.11024 c 0,-0.3638 0.06,-0.51263 0.13345,-0.33073 0.0734,0.1819 0.0734,0.47956 0,0.66146 -0.0734,0.1819 -0.13345,0.0331 -0.13345,-0.33073 z M 461.03845,0.8903 c 0.0127,-0.30822 0.0754,-0.37092 0.15985,-0.15985 0.0764,0.19099 0.067,0.4192 -0.0209,0.50712 -0.0879,0.0879 -0.15045,-0.0683 -0.13897,-0.34727 z m 99.74791,-0.79375 c 0.0127,-0.30822 0.0754,-0.37092 0.15985,-0.15985 0.0764,0.19099 0.067,0.4192 -0.0209,0.50712 -0.0879,0.0879 -0.15045,-0.0683 -0.13897,-0.34727 z m -100.0125,-1.05833 c 0.0127,-0.30823 0.0754,-0.37092 0.15985,-0.15985 0.0764,0.19099 0.067,0.4192 -0.0209,0.50711 -0.0879,0.0879 -0.15045,-0.0683 -0.13896,-0.34726 z m 100.30778,-1.03629 c 0.005,-0.43656 0.0647,-0.58312 0.13177,-0.32569 0.0671,0.25743 0.0627,0.61462 -0.01,0.79375 -0.0725,0.17913 -0.12737,-0.0315 -0.12197,-0.46806 z m -100.53187,-1.4552 c 0,-0.50933 0.0544,-0.71769 0.12101,-0.46303 0.0666,0.25467 0.0666,0.67138 0,0.92605 -0.0666,0.25466 -0.12101,0.0463 -0.12101,-0.46302 z m 100.82416,-2.11667 c 0,-0.80037 0.0496,-1.12779 0.11022,-0.72761 0.0606,0.40019 0.0606,1.05503 0,1.45521 -0.0606,0.40019 -0.11022,0.0728 -0.11022,-0.7276 z m -101.07806,-3.175 c 0,-0.65485 0.0516,-0.92274 0.11466,-0.59531 0.0631,0.32742 0.0631,0.8632 0,1.19062 -0.0631,0.32742 -0.11466,0.0595 -0.11466,-0.59531 z m 101.06549,-2.77813 c 0.003,-0.58208 0.0571,-0.78905 0.12041,-0.45993 0.0633,0.32912 0.0609,0.80537 -0.005,1.05833 -0.0662,0.25297 -0.11801,-0.0163 -0.11507,-0.5984 z m 28,-0.022 c 0.0127,-0.30822 0.0754,-0.37092 0.15985,-0.15985 0.0764,0.191 0.067,0.4192 -0.0209,0.50712 -0.0879,0.0879 -0.15045,-0.0684 -0.13897,-0.34727 z m -156.89791,-1.32295 c 0.0127,-0.30823 0.0754,-0.37092 0.15985,-0.15986 0.0764,0.191 0.067,0.4192 -0.0209,0.50712 -0.0879,0.0879 -0.15046,-0.0683 -0.13897,-0.34726 z m 28.06672,-0.11025 c 0,-0.36381 0.0601,-0.51263 0.13345,-0.33073 0.0734,0.1819 0.0734,0.47955 0,0.66145 -0.0734,0.18191 -0.13345,0.0331 -0.13345,-0.33072 z m 100.52078,-1.21268 c 0.0127,-0.30822 0.0754,-0.37092 0.15985,-0.15985 0.0764,0.19099 0.067,0.4192 -0.0209,0.50712 -0.0879,0.0879 -0.15045,-0.0683 -0.13896,-0.34727 z m 28.04583,0 c 0.0127,-0.30822 0.0754,-0.37092 0.15985,-0.15985 0.0764,0.19099 0.067,0.4192 -0.0209,0.50712 -0.0879,0.0879 -0.15046,-0.0683 -0.13897,-0.34727 z M 460.77386,-14.9847 c 0.0127,-0.30822 0.0754,-0.37092 0.15985,-0.15985 0.0764,0.19099 0.067,0.4192 -0.0209,0.50712 -0.0879,0.0879 -0.15045,-0.0683 -0.13896,-0.34727 z m -28.04583,-0.26458 c 0.0127,-0.30823 0.0754,-0.37092 0.15985,-0.15985 0.0764,0.19099 0.067,0.4192 -0.0209,0.50711 -0.0879,0.0879 -0.15045,-0.0683 -0.13896,-0.34726 z m 156.10417,-1.05833 c 0.0127,-0.30823 0.0754,-0.37092 0.15985,-0.15986 0.0764,0.191 0.067,0.4192 -0.0209,0.50712 -0.0879,0.0879 -0.15045,-0.0683 -0.13896,-0.34726 z m -155.83959,-0.79375 c 0.0127,-0.30823 0.0754,-0.37092 0.15985,-0.15986 0.0764,0.191 0.067,0.4192 -0.0209,0.50712 -0.0879,0.0879 -0.15045,-0.0683 -0.13896,-0.34726 z m 155.575,-1.05834 c 0.0127,-0.30822 0.0754,-0.37092 0.15985,-0.15985 0.0764,0.19099 0.067,0.4192 -0.0209,0.50712 -0.0879,0.0879 -0.15045,-0.0683 -0.13897,-0.34727 z m -155.04583,-2.116664 c 0.0127,-0.308226 0.0754,-0.370919 0.15985,-0.159853 0.0764,0.190994 0.067,0.4192 -0.0209,0.507119 -0.0879,0.08792 -0.15045,-0.06835 -0.13896,-0.347266 z m 154.51667,-0.79375 c 0.0127,-0.308226 0.0754,-0.370919 0.15985,-0.159853 0.0764,0.190994 0.067,0.4192 -0.0209,0.507119 -0.0879,0.08792 -0.15045,-0.06835 -0.13896,-0.347266 z m -120.14173,-8.676807 c 0,-0.05494 0.20836,-0.2633 0.46303,-0.463021 0.41964,-0.329107 0.429,-0.319749 0.0999,0.0999 -0.34565,0.44073 -0.56292,0.580888 -0.56292,0.363125 z m 86.80423,-6.13986 c 0.0127,-0.308226 0.0754,-0.370919 0.15985,-0.159853 0.0764,0.190995 0.067,0.419198 -0.0209,0.507119 -0.0879,0.08792 -0.15045,-0.06835 -0.13896,-0.347266 z m -87.79584,-1.830035 c 0.003,-0.582084 0.0571,-0.789054 0.12041,-0.459936 0.0633,0.329118 0.0609,0.805368 -0.005,1.058333 -0.0662,0.252966 -0.118,-0.01633 -0.11507,-0.598397 z m 0,-3.439584 c 0.003,-0.582083 0.0571,-0.789053 0.12041,-0.459935 0.0633,0.329117 0.0609,0.805367 -0.005,1.058333 -0.0662,0.252965 -0.118,-0.01633 -0.11507,-0.598398 z m 87.79584,-1.609547 c 0.0127,-0.308227 0.0754,-0.37092 0.15985,-0.159854 0.0764,0.190995 0.067,0.419198 -0.0209,0.507119 -0.0879,0.08792 -0.15045,-0.06835 -0.13896,-0.347265 z m -53.26829,-2.666723 c 0.1819,-0.0734 0.47956,-0.0734 0.66146,0 0.1819,0.0734 0.0331,0.133454 -0.33073,0.133454 -0.3638,0 -0.51263,-0.06006 -0.33073,-0.133454 z m 18.25625,0 c 0.1819,-0.0734 0.47956,-0.0734 0.66146,0 0.1819,0.0734 0.0331,0.133454 -0.33073,0.133454 -0.3638,0 -0.51263,-0.06006 -0.33073,-0.133454 z m -15.47309,-0.272708 c 0.25743,-0.06708 0.61462,-0.06267 0.79375,0.0098 0.17913,0.07248 -0.0315,0.127362 -0.46805,0.12197 -0.43657,-0.0054 -0.58313,-0.06469 -0.3257,-0.131773 z m 12.69497,0.0011 c 0.25466,-0.06655 0.67138,-0.06655 0.92604,0 0.25466,0.06655 0.0463,0.121002 -0.46302,0.121002 -0.50932,0 -0.71768,-0.05445 -0.46302,-0.121002 z m -7.54063,-0.278096 c 0.90951,-0.05166 2.39779,-0.05166 3.30729,0 0.90951,0.05167 0.16537,0.09394 -1.65364,0.09394 -1.81901,0 -2.56315,-0.04227 -1.65365,-0.09394 z m -39.6875,-5.53558 c 0.1819,-0.0734 0.47956,-0.0734 0.66146,0 0.1819,0.0734 0.0331,0.133453 -0.33073,0.133453 -0.3638,0 -0.51263,-0.06005 -0.33073,-0.133453 z m 2.51858,-0.0081 c 0.25743,-0.06708 0.61462,-0.06267 0.79375,0.0098 0.17913,0.07248 -0.0315,0.127363 -0.46806,0.12197 -0.43656,-0.0054 -0.58312,-0.06469 -0.32569,-0.131773 z m 76.72917,0 c 0.25743,-0.06708 0.61461,-0.06267 0.79375,0.0098 0.17913,0.07248 -0.0315,0.127363 -0.46806,0.12197 -0.43656,-0.0054 -0.58313,-0.06469 -0.32569,-0.131773 z m 2.5085,0.0081 c 0.1819,-0.0734 0.47956,-0.0734 0.66146,0 0.1819,0.0734 0.0331,0.133453 -0.33073,0.133453 -0.3638,0 -0.51263,-0.06005 -0.33073,-0.133453 z m -101.00469,-4.158133 c 0,-0.05494 0.20836,-0.263301 0.46302,-0.463021 0.41965,-0.329108 0.42901,-0.319749 0.0999,0.0999 -0.34564,0.44073 -0.56291,0.580887 -0.56291,0.363125 z m 2.51355,-2.810521 c 0.26339,-0.291042 0.53842,-0.529167 0.61118,-0.529167 0.0728,0 -0.0832,0.238125 -0.3466,0.529167 -0.26339,0.291042 -0.53842,0.529167 -0.61118,0.529167 -0.0728,0 0.0832,-0.238125 0.3466,-0.529167 z m 114.9277,-0.992187 c -0.3291,-0.419646 -0.31974,-0.429004 0.0999,-0.0999 0.44073,0.345644 0.58089,0.562917 0.36313,0.562917 -0.055,0 -0.2633,-0.208359 -0.46303,-0.46302 z m -1.96727,-1.984375 -0.7771,-0.859896 0.8599,0.777105 c 0.47294,0.427408 0.85989,0.814361 0.85989,0.859896 0,0.204406 -0.21831,0.02445 -0.94269,-0.777105 z m -3.32439,-3.042709 c -0.32911,-0.419644 -0.31975,-0.429002 0.0999,-0.09989 0.44073,0.345644 0.58089,0.562916 0.36313,0.562916 -0.0549,0 -0.2633,-0.208359 -0.46302,-0.463021 z m -59.28253,-19.032303 c 0.191,-0.07643 0.4192,-0.06703 0.50712,0.02089 0.0879,0.08792 -0.0684,0.150453 -0.34726,0.138964 -0.30823,-0.01269 -0.37092,-0.07539 -0.15986,-0.159852 z m 14.81667,0 c 0.19099,-0.07643 0.4192,-0.06703 0.50712,0.02089 0.0879,0.08792 -0.0683,0.150453 -0.34727,0.138964 -0.30822,-0.01269 -0.37092,-0.07539 -0.15985,-0.159852 z m -9.27695,-0.280689 c 1.20054,-0.04903 3.16507,-0.04903 4.36562,0 1.20055,0.04903 0.21828,0.08914 -2.18281,0.08914 -2.4011,0 -3.38336,-0.04011 -2.18281,-0.08914 z"
       style="fill:#2a2a2a;stroke-width:0.26458332" />
  </g>
</svg>
