<?xml version="1.0" encoding="UTF-8" standalone="no"?>
<svg
   xmlns:dc="http://purl.org/dc/elements/1.1/"
   xmlns:cc="http://creativecommons.org/ns#"
   xmlns:rdf="http://www.w3.org/1999/02/22-rdf-syntax-ns#"
   xmlns:svg="http://www.w3.org/2000/svg"
   xmlns="http://www.w3.org/2000/svg"
   xmlns:sodipodi="http://sodipodi.sourceforge.net/DTD/sodipodi-0.dtd"
   xmlns:inkscape="http://www.inkscape.org/namespaces/inkscape"
   version="1.1"
   width="1600"
   height="900"
   viewBox="0 0 1600 900"
   xml:space="preserve"
   id="svg552"
   sodipodi:docname="inefficient.organisation8.svg"
   inkscape:version="0.92.2 (5c3e80d, 2017-08-06)"><metadata
     id="metadata556"><rdf:RDF><cc:Work
         rdf:about=""><dc:format>image/svg+xml</dc:format><dc:type
           rdf:resource="http://purl.org/dc/dcmitype/StillImage" /><dc:title></dc:title></cc:Work></rdf:RDF></metadata><sodipodi:namedview
     pagecolor="#ffffff"
     bordercolor="#666666"
     borderopacity="1"
     objecttolerance="10"
     gridtolerance="10"
     guidetolerance="10"
     inkscape:pageopacity="0"
     inkscape:pageshadow="2"
     inkscape:window-width="1704"
     inkscape:window-height="1372"
     id="namedview554"
     showgrid="false"
     inkscape:zoom="0.5125"
     inkscape:cx="891.15618"
     inkscape:cy="-92.872263"
     inkscape:window-x="0"
     inkscape:window-y="0"
     inkscape:window-maximized="0"
     inkscape:current-layer="svg552" /><desc
     id="desc2">Created with Fabric.js 1.7.19</desc><defs
     id="defs4" /><path
     inkscape:connector-curvature="0"
     id="path92"
     style="opacity:1;fill:#eeeeee;fill-opacity:1;fill-rule:nonzero;stroke:#444444;stroke-width:0.5;stroke-linecap:butt;stroke-linejoin:miter;stroke-miterlimit:10;stroke-dasharray:none;stroke-opacity:0.5"
     d="m 800.80081,2357.7476 -0.5195,0.01 -0.658,-0.127 -0.4272,-0.069 -0.046,-0.1617 0.1674,-0.4906 0.3464,-0.2425 0.6869,0.035 0.4675,0.3405 0.04,0.56 z" /><path
     inkscape:connector-curvature="0"
     id="path164"
     style="opacity:1;fill:#eeeeee;fill-opacity:1;fill-rule:nonzero;stroke:#444444;stroke-width:0.5;stroke-linecap:butt;stroke-linejoin:miter;stroke-miterlimit:10;stroke-dasharray:none;stroke-opacity:0.5"
     d="m 719.84443,2609.0687 1.5758,1.3392 1.2526,-0.912 1.2988,0.1097 0.71,0.4502 0.7273,0.1732 0.912,0.01 1.5701,2.2627 -0.658,2.003 1.7201,-0.3925 1.4951,1.6682 0.6811,-0.1328 0.3406,-0.6753 0.964,-0.7735 0.6638,1.039 0.8081,1.9915 1.0217,0.606 0.9005,2.107 0.71,2.6668 0.6465,0.3809 1.1083,0.01 1.1256,-0.3636 -0.4272,2.3089 0.1328,2.0434 1.8587,1.4719 -1.1083,0.8139 -1.166,1.1776 -2.3725,0.9063 -0.6176,-0.381 -2.0723,-2.0492 -0.9639,-2.4128 -2.1762,-3.4403 -0.4272,-1.0102 -0.5599,-0.6465 -1.9683,-0.4156 -1.7317,-0.8255 -1.4431,-1.7317 -0.4503,-1.0621 -0.5541,-0.7388 -1.9568,0.04 -1.2353,-0.8139 -1.218,-1.1083 -5.501,-3.1979 -2.1589,0.3233 -0.9928,-0.9005 0.052,-1.5989 1.1371,-0.9525 -4.7621,-0.3636 -1.6913,-0.5715 1.166,-0.3463 6.6382,-0.052 2.4878,-0.2655 0.2194,0.6869 2.1993,1.4142 z m 175.6002,127.3204 0.069,1.7663 -2.5168,-1.6162 -0.583,-0.762 0.8081,-0.987 1.5817,-0.035 0.3867,0.6004 z" /><path
     inkscape:connector-curvature="0"
     id="path218"
     style="opacity:1;fill:#eeeeee;fill-opacity:1;fill-rule:nonzero;stroke:#444444;stroke-width:0.5;stroke-linecap:butt;stroke-linejoin:miter;stroke-miterlimit:10;stroke-dasharray:none;stroke-opacity:0.5"
     d="m 3611.4857,1709.7396 0.531,0.3059 0.4041,0.4156 0.1963,0.5773 v 0.1443 l -0.3117,-0.01 -0.3752,-0.1789 -0.2713,-0.2425 -0.1386,-0.063 -0.058,-0.052 0.3232,0.035 0.3695,0.2424 0.2771,0.1097 v -0.2828 l -0.3348,-0.4907 -0.1963,-0.1674 -0.254,-0.1443 -0.2886,-0.098 -0.1963,0.087 -0.1096,0.04 -0.058,-0.1155 0.058,-0.1039 0.1039,-0.1039 z m 9.9226,5.9513 -0.075,0.1212 -0.1155,-0.1039 0.081,-0.1905 0.069,-0.1616 0.1097,0.087 z m -2.4013,21.4153 -0.1558,0.075 -0.1847,-0.023 -0.1212,-0.1097 v -0.1732 l 0.15,-0.1212 0.2136,0.04 0.1212,0.1559 z m -15.897,0.7677 0.1039,0.1097 0.2367,-0.029 0.2078,-0.017 -0.127,0.1097 -0.4271,0.046 -0.2078,-0.2771 0.2597,-0.2136 0.2309,-0.035 v 0.058 0.063 h -0.1097 l -0.1731,0.052 v 0.1327 z m -37.2315,2.6495 0.1905,0.2136 v 0.1039 l -0.092,-0.017 -0.2771,-0.063 -0.092,-0.127 0.202,0.087 0.087,-0.017 -0.1847,-0.1905 -0.1616,-0.1385 -0.1213,-0.058 v -0.069 l 0.1501,0.035 z m -5586.1762,-138.5013 1.293,1.3622 -0.2482,0.6869 -0.9351,-0.063 -0.4271,-0.2424 0.7273,-0.1212 0.1212,-0.254 -0.3348,-0.3983 -0.4445,-0.2771 h -0.3059 l -0.075,0.5484 -0.5022,-0.4271 0.2944,-0.4272 0.3578,-0.2828 z m 5383.3941,12.8088 -1.0275,0.5368 -0.3117,-0.087 1.218,-0.7619 -0.01,0.092 z m -2.0319,1.2526 -1.2006,0.6234 -0.3233,-0.3348 0.433,-0.012 0.8081,-0.6003 0.9755,-0.046 -0.1154,0.3348 z m -5349.014,19.2622 2.6957,1.8645 -1.1429,0.1328 -2.8169,-0.9005 -2.5745,-1.8414 0.7677,-0.3983 0.3752,0.6638 1.1718,0.6177 0.6927,-1.2988 0.456,-0.2944 -2.0549,-1.3392 0.8139,0.069 1.9452,0.912 z m 5351.8367,0.1559 0.081,0.3694 -0.9236,-1.0101 -0.5483,-0.6523 0.035,-0.2829 0.2482,0.179 0.3059,0.3175 0.2021,0.254 z m 0.1789,2.0665 -0.5887,0.069 0.4387,-0.2309 0.1212,-0.3175 -0.069,-0.9986 0.2309,0.081 0.081,0.4098 0.04,0.6003 z m 0.1386,6.0436 -0.4329,0.058 0.2828,-0.329 1.8529,-0.3636 0.1616,-0.1039 0.3002,0.202 -0.01,0.1905 -0.1327,0.098 -0.9178,0.01 -0.7216,0.1732 z m -0.092,5.2933 0.8716,0.6349 -0.1154,0.4387 -0.2944,0.5022 -1.1371,1.2815 -0.3464,-0.1213 1.1083,-1.1602 0.4272,-0.7677 -0.635,-0.5888 -0.254,0.127 h -0.1039 l -0.2193,-0.5484 h 0.2193 z m 23.9148,29.208 -0.5253,0.4387 -0.202,-0.3983 0.2597,-0.4907 -0.4387,-2.0376 -0.7273,-0.2771 -0.4329,-0.6119 h 0.2078 l 0.7273,0.56 0.583,0.2539 0.3406,1.3392 z m -80.3105,1.1544 -0.1501,0.035 -0.3059,-0.1674 0.04,-0.2078 0.2136,-0.092 0.2713,0.1559 z m 84.5936,5.4433 0.098,0.8313 -0.3694,-0.1097 -0.1212,-0.3233 -0.1213,-0.837 -0.3867,-0.8196 0.4387,0.2193 0.3636,0.6408 z m -5341.6081,46.3346 -0.046,0.098 -0.1963,-0.127 -0.381,-0.2367 -0.3232,-0.2597 -0.01,-0.1097 0.456,-0.1558 0.583,-0.1213 0.127,0.1674 -0.1096,0.2367 z m -14.7022,24.8499 -0.3752,0.086 h -0.4387 l -0.2193,-0.2135 -0.012,-0.1732 h 0.1501 l 0.1385,0.029 0.6235,0.029 0.1616,0.127 z m 66.1163,94.6662 -0.1327,0.2598 -0.254,-0.092 -0.1501,-0.329 -0.052,-0.3579 0.098,-0.2886 0.1674,0.012 0.1905,0.3578 z" /><text
     xml:space="preserve"
     style="font-style:normal;font-variant:normal;font-weight:normal;font-stretch:normal;font-size:40px;line-height:1.25;font-family:'Old English Text MT';-inkscape-font-specification:'Old English Text MT';letter-spacing:0px;word-spacing:0px;fill:#000000;fill-opacity:1;stroke:none"
     x="177.56097"
     y="172.19511"
     id="text940"><tspan
       sodipodi:role="line"
       id="tspan938"
       x="177.56097"
       y="210.57892" /></text>
<flowRoot
     transform="matrix(0.96651965,0,0,0.88785701,40.664284,219.16297)"
     style="font-style:normal;font-variant:normal;font-weight:normal;font-stretch:normal;font-size:40px;line-height:1.25;font-family:'Old English Text MT';-inkscape-font-specification:'Old English Text MT';letter-spacing:0px;word-spacing:0px;fill:#000000;fill-opacity:1;stroke:none"
     id="flowRoot1022"
     xml:space="preserve"><flowRegion
       id="flowRegion1024"><rect
         y="125.36585"
         x="-240"
         height="446.82925"
         width="2007.8049"
         id="rect1026" /></flowRegion><flowPara
       id="flowPara1028" /></flowRoot><rect
     style="opacity:1;fill:#b55c77;fill-opacity:1;stroke:#000000;stroke-width:1.7759161;stroke-miterlimit:4;stroke-dasharray:none;stroke-opacity:1"
     id="rect932"
     width="1384.3331"
     height="97.473434"
     x="175.30135"
     y="378.03799" /><text
     xml:space="preserve"
     style="font-style:normal;font-variant:normal;font-weight:normal;font-stretch:normal;font-size:123.67603302px;line-height:1.25;font-family:'Old English Text MT';-inkscape-font-specification:'Old English Text MT';letter-spacing:0px;word-spacing:0px;fill:#000000;fill-opacity:1;stroke:none;stroke-width:3.09190106"
     x="174.86852"
     y="479.58963"
     id="text936-2"
     transform="scale(1.0433592,0.95844269)"><tspan
       sodipodi:role="line"
       id="tspan934-5"
       x="174.86852"
       y="479.58963"
       style="font-style:normal;font-variant:normal;font-weight:normal;font-stretch:normal;font-size:85.33333588px;font-family:sans-serif;-inkscape-font-specification:sans-serif;stroke-width:3.09190106">BUS</tspan></text>
<rect
     style="opacity:1;fill:#b5bc64;fill-opacity:1;stroke:#000000;stroke-width:1.7759161;stroke-miterlimit:4;stroke-dasharray:none;stroke-opacity:1"
     id="rect932-6"
     width="1384.3331"
     height="97.473434"
     x="175.30135"
     y="473.57883" /><text
     xml:space="preserve"
     style="font-style:normal;font-variant:normal;font-weight:normal;font-stretch:normal;font-size:123.67603302px;line-height:1.25;font-family:'Old English Text MT';-inkscape-font-specification:'Old English Text MT';letter-spacing:0px;word-spacing:0px;fill:#000000;fill-opacity:1;stroke:none;stroke-width:3.09190106"
     x="174.86852"
     y="579.29388"
     id="text936-2-1"
     transform="scale(1.0433592,0.95844269)"><tspan
       sodipodi:role="line"
       id="tspan934-5-9"
       x="174.86852"
       y="579.29388"
       style="font-style:normal;font-variant:normal;font-weight:normal;font-stretch:normal;font-size:85.33333588px;font-family:sans-serif;-inkscape-font-specification:sans-serif;stroke-width:3.09190106">BCK</tspan></text>
<rect
     style="opacity:1;fill:#735cb5;fill-opacity:1;stroke:#000000;stroke-width:1.7759161;stroke-miterlimit:4;stroke-dasharray:none;stroke-opacity:1"
     id="rect932-5"
     width="1384.3331"
     height="97.473434"
     x="175.30135"
     y="569.11969" /><text
     xml:space="preserve"
     style="font-style:normal;font-variant:normal;font-weight:normal;font-stretch:normal;font-size:123.67603302px;line-height:1.25;font-family:'Old English Text MT';-inkscape-font-specification:'Old English Text MT';letter-spacing:0px;word-spacing:0px;fill:#000000;fill-opacity:1;stroke:none;stroke-width:3.09190106"
     x="174.86852"
     y="678.99817"
     id="text936-2-7"
     transform="scale(1.0433592,0.95844269)"><tspan
       sodipodi:role="line"
       id="tspan934-5-6"
       x="174.86852"
       y="678.99817"
       style="font-style:normal;font-variant:normal;font-weight:normal;font-stretch:normal;font-size:85.33333588px;font-family:sans-serif;-inkscape-font-specification:sans-serif;stroke-width:3.09190106">DB</tspan></text>
<rect
     style="opacity:1;fill:#5cb5b0;fill-opacity:1;stroke:#000000;stroke-width:1.7759161;stroke-miterlimit:4;stroke-dasharray:none;stroke-opacity:1"
     id="rect932-3"
     width="1384.3331"
     height="97.473434"
     x="175.30135"
     y="664.66052" /><text
     xml:space="preserve"
     style="font-style:normal;font-variant:normal;font-weight:normal;font-stretch:normal;font-size:123.67603302px;line-height:1.25;font-family:'Old English Text MT';-inkscape-font-specification:'Old English Text MT';letter-spacing:0px;word-spacing:0px;fill:#000000;fill-opacity:1;stroke:none;stroke-width:3.09190106"
     x="174.86852"
     y="778.70245"
     id="text936-2-4"
     transform="scale(1.0433592,0.95844269)"><tspan
       sodipodi:role="line"
       id="tspan934-5-5"
       x="174.86852"
       y="778.70245"
       style="font-style:normal;font-variant:normal;font-weight:normal;font-stretch:normal;font-size:85.33333588px;font-family:sans-serif;-inkscape-font-specification:sans-serif;stroke-width:3.09190106">OS</tspan></text>
<rect
     style="opacity:1;fill:#60b55c;fill-opacity:1;stroke:#000000;stroke-width:1.7759161;stroke-miterlimit:4;stroke-dasharray:none;stroke-opacity:1"
     id="rect932-56"
     width="1384.3331"
     height="97.473434"
     x="175.30135"
     y="282.49716" /><text
     xml:space="preserve"
     style="font-style:normal;font-variant:normal;font-weight:normal;font-stretch:normal;font-size:123.67603302px;line-height:1.25;font-family:'Old English Text MT';-inkscape-font-specification:'Old English Text MT';letter-spacing:0px;word-spacing:0px;fill:#000000;fill-opacity:1;stroke:none;stroke-width:3.09190106"
     x="174.86852"
     y="379.88516"
     id="text936-2-6"
     transform="scale(1.0433592,0.95844269)"><tspan
       sodipodi:role="line"
       id="tspan934-5-95"
       x="174.86852"
       y="379.88516"
       style="font-style:normal;font-variant:normal;font-weight:normal;font-stretch:normal;font-size:85.33333588px;font-family:sans-serif;-inkscape-font-specification:sans-serif;stroke-width:3.09190106">UI</tspan></text>
<flowRoot
     xml:space="preserve"
     id="flowRoot1133"
     style="fill:black;fill-opacity:1;stroke:none;font-family:'Old English Text MT';font-style:normal;font-weight:normal;font-size:40px;line-height:1.25;letter-spacing:0px;word-spacing:0px;-inkscape-font-specification:'Old English Text MT';font-stretch:normal;font-variant:normal"><flowRegion
       id="flowRegion1135"><rect
         id="rect1137"
         width="99.512192"
         height="81.951218"
         x="396.09756"
         y="47.317074" /></flowRegion><flowPara
       id="flowPara1139" /></flowRoot><text
     xml:space="preserve"
     style="font-style:normal;font-variant:normal;font-weight:normal;font-stretch:normal;font-size:75.33892059px;line-height:1.25;font-family:sans-serif;-inkscape-font-specification:sans-serif;letter-spacing:0px;word-spacing:0px;fill:#787878;fill-opacity:1;stroke:none;stroke-width:1.88347316;"
     x="-746.61884"
     y="99.490662"
     id="text1341"
     transform="rotate(-90)"><tspan
       sodipodi:role="line"
       id="tspan1339"
       x="-746.61884"
       y="99.490662"
       style="stroke-width:1.88347316;fill:#787878;fill-opacity:1;">technology</tspan></text>
<path
     inkscape:connector-curvature="0"
     id="path318"
     style="opacity:1;fill:#eeeeee;fill-opacity:1;fill-rule:nonzero;stroke:#444444;stroke-width:0.5;stroke-linecap:butt;stroke-linejoin:miter;stroke-miterlimit:10;stroke-dasharray:none;stroke-opacity:0.5"
     d="m 861.9979,1942.7983 -1.5874,0.381 -0.7561,-0.069 -0.5715,-1.3277 0.2078,-0.8196 0.254,-0.2598 2.7015,0.3233 0.2308,0.6003 -0.04,0.5715 z m 8.3699,0.4849 -1.0505,0.1269 -0.1732,-0.8081 0.3232,-0.4271 0.4503,-0.2021 0.8023,0.2482 0.4214,0.3522 -0.023,0.3001 z m -8.416,7.9196 -0.3522,0.3002 -0.658,-0.9756 -0.1039,-0.4098 1.1891,-0.508 0.6465,0.2656 z m 17.0341,4.3927 2.4244,0.8486 0.7619,-0.092 -0.7734,0.837 -2.4187,0.456 -0.8023,0.4041 -0.9755,-0.2598 -0.5253,-0.9697 z m -0.5772,3.8617 -1.2007,1.2757 v -1.3565 l 0.433,-0.1789 h 0.3925 z m 6.6209,9.5475 -0.5946,0.277 -0.04,-1.749 0.7677,0.3348 0.3002,0.2829 -0.127,0.4791 z m -103.6827,88.334 -0.1039,0.7562 -0.3059,-0.7273 -0.9987,-1.1661 -0.3694,-0.5195 0.4445,0.081 z m 41.1394,4.0233 -0.2886,0.179 0.3694,-1.3277 0.4156,-0.1674 z m -48.1932,3.9137 0.075,0.2886 -0.3348,-0.017 -0.6003,-0.8486 -0.2136,-0.7331 -0.3809,-0.8369 -0.5253,-0.6061 -0.058,-0.56 -0.017,-0.8831 0.5946,1.3507 0.5657,1.0852 0.4098,0.8889 z m -96.8771,5.5068 -0.2944,0.127 -0.3117,-0.306 -0.1327,-0.4675 0.1096,-0.7562 0.7851,0.4964 0.3117,0.3348 z m 127.9092,-0.3868 -0.6408,0.098 -1.5643,-0.9986 h 0.6004 l 0.8947,0.6234 z m 2.1126,-0.2482 0.8832,0.8255 -1.1718,-0.5657 -1.4892,-0.2425 0.5656,-0.1501 0.8255,0.023 z m -129.0982,4.335 -0.6407,0.023 -0.583,-0.2597 0.1443,-1.7317 0.1558,-0.3579 0.9005,0.583 0.7562,1.5123 z m 25.86,11.2503 -0.5079,0.4387 -0.6754,-0.3117 -0.3001,-0.4214 -0.1097,-0.4502 0.1558,-0.5368 1.5124,0.075 0.4271,0.2367 z m 7.9659,2.4475 2.332,0.785 0.4329,1.2757 -0.4964,0.8485 -1.1776,-0.2078 -0.583,-0.4675 -0.8196,-1.5239 -2.2801,0.3463 -1.5759,-0.3001 -0.8716,-1.9857 -0.035,-0.9005 0.381,-0.5484 1.6739,-0.6003 2.0896,0.4387 0.7966,1.1256 z m 137.901,2.8169 0.081,0.3232 -0.5887,-0.04 -0.1732,-0.1097 0.012,-0.6003 0.4272,-0.7273 0.3348,-0.6119 0.6811,-0.5714 1.218,-0.5715 0.5888,-0.2424 0.1904,0.1327 -0.2251,0.087 -2.0145,1.2007 -0.6292,0.8427 -0.2771,0.5888 0.052,0.1847 z m -0.3348,5.6338 0.1155,0.4675 -0.6061,-0.3117 -0.5715,-0.86 -1.0217,-1.0679 -0.2424,-0.4387 0.785,0.4156 0.5138,0.6234 z m 62.5029,2.5918 0.01,0.3174 -1.5585,-1.622 0.6119,0.127 z m -60.1593,0.6407 0.2193,0.6176 -0.3925,-0.2886 -1.2526,-0.6003 -0.1385,-0.5022 z m 71.1382,2.7938 -0.329,0.3694 -0.029,-0.3579 -0.4561,-0.1731 -0.6291,-0.3637 -0.8543,-0.4156 -0.4618,-0.069 -0.2309,-0.2424 0.3232,-0.127 0.5253,0.1905 0.7389,0.381 0.8543,0.3809 z m -35.8288,39.5636 -0.4734,0.3232 0.1732,-0.4387 -0.3637,-0.9582 -0.3578,-0.1385 0.3578,-0.2713 0.508,0.7215 z" /></svg>