<?xml version="1.0" encoding="UTF-8" standalone="no"?>
<!-- Created with Inkscape (http://www.inkscape.org/) -->

<svg
   xmlns:dc="http://purl.org/dc/elements/1.1/"
   xmlns:cc="http://creativecommons.org/ns#"
   xmlns:rdf="http://www.w3.org/1999/02/22-rdf-syntax-ns#"
   xmlns:svg="http://www.w3.org/2000/svg"
   xmlns="http://www.w3.org/2000/svg"
   xmlns:sodipodi="http://sodipodi.sourceforge.net/DTD/sodipodi-0.dtd"
   xmlns:inkscape="http://www.inkscape.org/namespaces/inkscape"
   width="1600mm"
   height="900mm"
   viewBox="0 0 1600 900"
   version="1.1"
   id="svg8"
   inkscape:version="0.92.2 (5c3e80d, 2017-08-06)"
   sodipodi:docname="timeline2015.1.svg">
  <defs
     id="defs2" />
  <sodipodi:namedview
     id="base"
     pagecolor="#ffffff"
     bordercolor="#666666"
     borderopacity="1.0"
     inkscape:pageopacity="0.0"
     inkscape:pageshadow="2"
     inkscape:zoom="0.7"
     inkscape:cx="3778.8686"
     inkscape:cy="3537.3514"
     inkscape:document-units="mm"
     inkscape:current-layer="layer1"
     showgrid="false"
     inkscape:window-width="1704"
     inkscape:window-height="1372"
     inkscape:window-x="0"
     inkscape:window-y="0"
     inkscape:window-maximized="0" />
  <metadata
     id="metadata5">
    <rdf:RDF>
      <cc:Work
         rdf:about="">
        <dc:format>image/svg+xml</dc:format>
        <dc:type
           rdf:resource="http://purl.org/dc/dcmitype/StillImage" />
        <dc:title></dc:title>
      </cc:Work>
    </rdf:RDF>
  </metadata>
  <g
     inkscape:label="Layer 1"
     inkscape:groupmode="layer"
     id="layer1"
     transform="translate(0,603)">
    <path
       style="opacity:1;fill:#008ac9;fill-opacity:1;stroke:#000000;stroke-width:44.61850739;stroke-miterlimit:4;stroke-dasharray:none;stroke-opacity:0"
       d="m 15.355876,-552.9983 v 12.86174 h 10.456726 a 24.787281,24.787281 0 0 1 -0.858346,-6.43112 24.787281,24.787281 0 0 1 0.879018,-6.43062 z m 58.314786,0 a 24.787281,24.787281 0 0 1 0.858345,6.43062 24.787281,24.787281 0 0 1 -0.878498,6.43112 H 175.86904 a 24.787281,24.787281 0 0 1 -0.85835,-6.43112 24.787281,24.787281 0 0 1 0.87902,-6.43062 z m 150.056438,0 a 24.787281,24.787281 0 0 1 0.85834,6.43062 24.787281,24.787281 0 0 1 -0.8785,6.43112 h 402.33204 a 24.787281,24.787281 0 0 1 -0.85836,-6.43112 24.787281,24.787281 0 0 1 0.8785,-6.43062 z m 450.16993,0 a 24.787281,24.787281 0 0 1 0.85836,6.43062 24.787281,24.787281 0 0 1 -0.87903,6.43112 h 252.27555 a 24.787281,24.787281 0 0 1 -0.85834,-6.43112 24.787281,24.787281 0 0 1 0.879,-6.43062 z m 300.11295,0 a 24.787281,24.787281 0 0 1 0.85834,6.43062 24.787281,24.787281 0 0 1 -0.8785,6.43112 h 12.63851 a 24.787281,24.787281 0 0 1 -0.85836,-6.43112 24.787281,24.787281 0 0 1 0.87856,-6.43062 z m 60.47612,0 a 24.787281,24.787281 0 0 1 0.8583,6.43062 24.787281,24.787281 0 0 1 -0.879,6.43112 h 41.7431 a 24.787281,24.787281 0 0 1 -0.8583,-6.43112 24.787281,24.787281 0 0 1 0.8785,-6.43062 z m 89.58,0 a 24.787281,24.787281 0 0 1 0.8583,6.43062 24.787281,24.787281 0 0 1 -0.8785,6.43112 h 46.6566 a 24.787281,24.787281 0 0 1 -0.8584,-6.43112 24.787281,24.787281 0 0 1 0.8785,-6.43062 z m 94.4939,0 a 24.787281,24.787281 0 0 1 0.8584,6.43062 24.787281,24.787281 0 0 1 -0.8785,6.43112 h 7.7251 a 24.787281,24.787281 0 0 1 -0.8584,-6.43112 24.787281,24.787281 0 0 1 0.8785,-6.43062 z m 55.5625,0 a 24.787281,24.787281 0 0 1 0.8584,6.43062 24.787281,24.787281 0 0 1 -0.8785,6.43112 h 12.2607 a 24.787281,24.787281 0 0 1 -0.8583,-6.43112 24.787281,24.787281 0 0 1 0.8785,-6.43062 z m 60.0987,0 a 24.787281,24.787281 0 0 1 0.8583,6.43062 24.787281,24.787281 0 0 1 -0.879,6.43112 h 49.6802 a 24.787281,24.787281 0 0 1 -0.8584,-6.43112 24.787281,24.787281 0 0 1 0.879,-6.43062 z m 97.5176,0 a 24.787281,24.787281 0 0 1 0.8583,6.43062 24.787281,24.787281 0 0 1 -0.8785,6.43112 h 94.6593 a 24.787281,24.787281 0 0 1 -0.8583,-6.43112 24.787281,24.787281 0 0 1 0.8785,-6.43062 z m 142.4972,0 a 24.787281,24.787281 0 0 1 0.8583,6.43062 24.787281,24.787281 0 0 1 -0.879,6.43112 h 10.4774 v -12.86174 z"
       id="rect834-1"
       inkscape:connector-curvature="0" />
    <g
       id="g1571"
       transform="translate(0.22678546,-155.65062)">
      <path
         id="path1063-0"
         transform="matrix(0.26458333,0,0,0.26458333,0,-603)"
         d="m 187.14258,707.89062 a 93.684212,93.684212 0 0 0 -93.683596,93.6836 93.684212,93.684212 0 0 0 93.683596,93.68555 93.684212,93.684212 0 0 0 93.68359,-93.68555 93.684212,93.684212 0 0 0 -93.68359,-93.6836 z m 0,38.05469 a 55.628573,55.628573 0 0 1 55.6289,55.62891 55.628573,55.628573 0 0 1 -55.6289,55.6289 55.628573,55.628573 0 0 1 -55.62891,-55.6289 55.628573,55.628573 0 0 1 55.62891,-55.62891 z"
         style="opacity:1;fill:#008ac9;fill-opacity:1;stroke:#000000;stroke-width:66.91728973;stroke-miterlimit:4;stroke-dasharray:none;stroke-opacity:0"
         inkscape:connector-curvature="0" />
      <path
         id="path1063-3-5"
         transform="matrix(0.26458333,0,0,0.26458333,0,-603)"
         d="m 5320,707.89062 a 93.684212,93.684212 0 0 0 -93.6836,93.6836 A 93.684212,93.684212 0 0 0 5320,895.25977 93.684212,93.684212 0 0 0 5413.6836,801.57422 93.684212,93.684212 0 0 0 5320,707.89062 Z m 0,38.05469 a 55.628573,55.628573 0 0 1 55.6289,55.62891 A 55.628573,55.628573 0 0 1 5320,857.20312 55.628573,55.628573 0 0 1 5264.3711,801.57422 55.628573,55.628573 0 0 1 5320,745.94531 Z"
         style="opacity:1;fill:#008ac9;fill-opacity:1;stroke:#000000;stroke-width:66.91728973;stroke-miterlimit:4;stroke-dasharray:none;stroke-opacity:0"
         inkscape:connector-curvature="0" />
      <path
         id="path1063-4-9"
         transform="matrix(0.26458333,0,0,0.26458333,0,-603)"
         d="m 4724.2852,707.89062 a 93.684212,93.684212 0 0 0 -93.6836,93.6836 93.684212,93.684212 0 0 0 93.6836,93.68555 93.684212,93.684212 0 0 0 93.6855,-93.68555 93.684212,93.684212 0 0 0 -93.6855,-93.6836 z m 0,38.05469 a 55.628573,55.628573 0 0 1 55.6289,55.62891 55.628573,55.628573 0 0 1 -55.6289,55.6289 55.628573,55.628573 0 0 1 -55.627,-55.6289 55.628573,55.628573 0 0 1 55.627,-55.62891 z"
         style="opacity:1;fill:#008ac9;fill-opacity:1;stroke:#000000;stroke-width:66.91728973;stroke-miterlimit:4;stroke-dasharray:none;stroke-opacity:0"
         inkscape:connector-curvature="0" />
      <path
         id="path1063-5-8"
         transform="matrix(0.26458333,0,0,0.26458333,0,-603)"
         d="m 4157.1426,707.89062 a 93.684212,93.684212 0 0 0 -93.6836,93.6836 93.684212,93.684212 0 0 0 93.6836,93.68555 93.684212,93.684212 0 0 0 93.6855,-93.68555 93.684212,93.684212 0 0 0 -93.6855,-93.6836 z m 0,38.05469 a 55.628573,55.628573 0 0 1 55.6289,55.62891 55.628573,55.628573 0 0 1 -55.6289,55.6289 55.628573,55.628573 0 0 1 -55.6289,-55.6289 55.628573,55.628573 0 0 1 55.6289,-55.62891 z"
         style="opacity:1;fill:#008ac9;fill-opacity:1;stroke:#000000;stroke-width:66.91728973;stroke-miterlimit:4;stroke-dasharray:none;stroke-opacity:0"
         inkscape:connector-curvature="0" />
      <path
         id="path1063-58-0"
         transform="matrix(0.26458333,0,0,0.26458333,0,-603)"
         d="m 3590,707.89062 a 93.684212,93.684212 0 0 0 -93.6836,93.6836 A 93.684212,93.684212 0 0 0 3590,895.25977 93.684212,93.684212 0 0 0 3683.6836,801.57422 93.684212,93.684212 0 0 0 3590,707.89062 Z m 0,38.05469 a 55.628573,55.628573 0 0 1 55.6289,55.62891 A 55.628573,55.628573 0 0 1 3590,857.20312 55.628573,55.628573 0 0 1 3534.3711,801.57422 55.628573,55.628573 0 0 1 3590,745.94531 Z"
         style="opacity:1;fill:#008ac9;fill-opacity:1;stroke:#000000;stroke-width:66.91728973;stroke-miterlimit:4;stroke-dasharray:none;stroke-opacity:0"
         inkscape:connector-curvature="0" />
      <path
         id="path1063-8-8"
         transform="matrix(0.26458333,0,0,0.26458333,0,-603)"
         d="m 4514.2852,707.89062 a 93.684212,93.684212 0 0 0 -93.6836,93.6836 93.684212,93.684212 0 0 0 93.6836,93.68555 93.684212,93.684212 0 0 0 93.6855,-93.68555 93.684212,93.684212 0 0 0 -93.6855,-93.6836 z m 0,38.05469 a 55.628573,55.628573 0 0 1 55.6289,55.62891 55.628573,55.628573 0 0 1 -55.6289,55.6289 55.628573,55.628573 0 0 1 -55.627,-55.6289 55.628573,55.628573 0 0 1 55.627,-55.62891 z"
         style="opacity:1;fill:#008ac9;fill-opacity:1;stroke:#000000;stroke-width:66.91728973;stroke-miterlimit:4;stroke-dasharray:none;stroke-opacity:0"
         inkscape:connector-curvature="0" />
      <path
         id="path1063-2-0"
         transform="matrix(0.26458333,0,0,0.26458333,0,-603)"
         d="m 2455.7148,707.89062 a 93.684212,93.684212 0 0 0 -93.6836,93.6836 93.684212,93.684212 0 0 0 93.6836,93.68555 93.684212,93.684212 0 0 0 93.6836,-93.68555 93.684212,93.684212 0 0 0 -93.6836,-93.6836 z m 0,38.05469 a 55.628573,55.628573 0 0 1 55.629,55.62891 55.628573,55.628573 0 0 1 -55.629,55.6289 55.628573,55.628573 0 0 1 -55.6289,-55.6289 55.628573,55.628573 0 0 1 55.6289,-55.62891 z"
         style="opacity:1;fill:#008ac9;fill-opacity:1;stroke:#000000;stroke-width:66.91728973;stroke-miterlimit:4;stroke-dasharray:none;stroke-opacity:0"
         inkscape:connector-curvature="0" />
      <path
         id="path1063-9-0"
         transform="matrix(0.26458333,0,0,0.26458333,0,-603)"
         d="m 4951.4297,707.89062 a 93.684212,93.684212 0 0 0 -93.6856,93.6836 93.684212,93.684212 0 0 0 93.6856,93.68555 93.684212,93.684212 0 0 0 93.6836,-93.68555 93.684212,93.684212 0 0 0 -93.6836,-93.6836 z m 0,38.05469 a 55.628573,55.628573 0 0 1 55.6269,55.62891 55.628573,55.628573 0 0 1 -55.6269,55.6289 55.628573,55.628573 0 0 1 -55.6289,-55.6289 55.628573,55.628573 0 0 1 55.6289,-55.62891 z"
         style="opacity:1;fill:#008ac9;fill-opacity:1;stroke:#000000;stroke-width:66.91728973;stroke-miterlimit:4;stroke-dasharray:none;stroke-opacity:0"
         inkscape:connector-curvature="0" />
      <path
         id="path1063-6-6"
         transform="matrix(0.26458333,0,0,0.26458333,0,-603)"
         d="m 3818.5723,707.89062 a 93.684212,93.684212 0 0 0 -93.6856,93.6836 93.684212,93.684212 0 0 0 93.6856,93.68555 93.684212,93.684212 0 0 0 93.6836,-93.68555 93.684212,93.684212 0 0 0 -93.6836,-93.6836 z m 0,38.05469 a 55.628573,55.628573 0 0 1 55.6269,55.62891 55.628573,55.628573 0 0 1 -55.6269,55.6289 55.628573,55.628573 0 0 1 -55.6289,-55.6289 55.628573,55.628573 0 0 1 55.6289,-55.62891 z"
         style="opacity:1;fill:#008ac9;fill-opacity:1;stroke:#000000;stroke-width:66.91728973;stroke-miterlimit:4;stroke-dasharray:none;stroke-opacity:0"
         inkscape:connector-curvature="0" />
      <path
         id="path1063-95-3"
         transform="matrix(0.26458333,0,0,0.26458333,0,-603)"
         d="m 754.28516,707.89062 a 93.684212,93.684212 0 0 0 -93.6836,93.6836 93.684212,93.684212 0 0 0 93.6836,93.68555 93.684212,93.684212 0 0 0 93.68554,-93.68555 93.684212,93.684212 0 0 0 -93.68554,-93.6836 z m 0,38.05469 a 55.628573,55.628573 0 0 1 55.6289,55.62891 55.628573,55.628573 0 0 1 -55.6289,55.6289 55.628573,55.628573 0 0 1 -55.62891,-55.6289 55.628573,55.628573 0 0 1 55.62891,-55.62891 z"
         style="opacity:1;fill:#008ac9;fill-opacity:1;stroke:#000000;stroke-width:66.91728973;stroke-miterlimit:4;stroke-dasharray:none;stroke-opacity:0"
         inkscape:connector-curvature="0" />
      <path
         id="path1063-23-5"
         transform="matrix(0.26458333,0,0,0.26458333,0,-603)"
         d="m 5858.5723,707.89062 a 93.684212,93.684212 0 0 0 -93.6856,93.6836 93.684212,93.684212 0 0 0 93.6856,93.68555 93.684212,93.684212 0 0 0 93.6836,-93.68555 93.684212,93.684212 0 0 0 -93.6836,-93.6836 z m 0,38.05469 a 55.628573,55.628573 0 0 1 55.6269,55.62891 55.628573,55.628573 0 0 1 -55.6269,55.6289 55.628573,55.628573 0 0 1 -55.6289,-55.6289 55.628573,55.628573 0 0 1 55.6289,-55.62891 z"
         style="opacity:1;fill:#008ac9;fill-opacity:1;stroke:#000000;stroke-width:66.91728973;stroke-miterlimit:4;stroke-dasharray:none;stroke-opacity:0"
         inkscape:connector-curvature="0" />
    </g>
    <circle
       style="opacity:1;fill:#003399;fill-opacity:1;stroke:#000000;stroke-width:27.98878098;stroke-miterlimit:4;stroke-dasharray:none;stroke-opacity:0"
       id="path1472-04"
       cx="950.52863"
       cy="-546.56744"
       r="10.995591"
       inkscape:transform-center-x="2.1381562"
       inkscape:transform-center-y="2.5431315e-005" />
  </g>
</svg>
